<svg width="29" height="28" viewBox="0 0 29 28" fill="none" xmlns="http://www.w3.org/2000/svg">
<mask id="mask0_1216_4317" style="mask-type:alpha" maskUnits="userSpaceOnUse" x="0" y="0" width="29" height="28">
<rect x="0.5" width="28" height="28" fill="#D9D9D9"/>
</mask>
<g mask="url(#mask0_1216_4317)">
<path d="M7.32492 19.95C8.31659 19.1917 9.42492 18.5938 10.6499 18.1563C11.8749 17.7188 13.1583 17.5 14.4999 17.5C15.8416 17.5 17.1249 17.7188 18.3499 18.1563C19.5749 18.5938 20.6833 19.1917 21.6749 19.95C22.3555 19.1528 22.8853 18.2487 23.2645 17.2375C23.6437 16.2264 23.8333 15.1473 23.8333 14C23.8333 11.4139 22.9242 9.21185 21.1062 7.39379C19.2881 5.57574 17.086 4.66671 14.4999 4.66671C11.9138 4.66671 9.71172 5.57574 7.89367 7.39379C6.07561 9.21185 5.16659 11.4139 5.16659 14C5.16659 15.1473 5.35617 16.2264 5.73534 17.2375C6.1145 18.2487 6.64436 19.1528 7.32492 19.95ZM14.4999 15.1667C13.3527 15.1667 12.3853 14.773 11.5978 13.9855C10.8103 13.198 10.4166 12.2306 10.4166 11.0834C10.4166 9.93615 10.8103 8.96879 11.5978 8.18129C12.3853 7.39379 13.3527 7.00004 14.4999 7.00004C15.6471 7.00004 16.6145 7.39379 17.402 8.18129C18.1895 8.96879 18.5833 9.93615 18.5833 11.0834C18.5833 12.2306 18.1895 13.198 17.402 13.9855C16.6145 14.773 15.6471 15.1667 14.4999 15.1667ZM14.4999 25.6667C12.886 25.6667 11.3694 25.3605 9.94992 24.748C8.53047 24.1355 7.29575 23.3042 6.24575 22.2542C5.19575 21.2042 4.3645 19.9695 3.752 18.55C3.1395 17.1306 2.83325 15.6139 2.83325 14C2.83325 12.3862 3.1395 10.8695 3.752 9.45004C4.3645 8.0306 5.19575 6.79587 6.24575 5.74587C7.29575 4.69587 8.53047 3.86462 9.94992 3.25212C11.3694 2.63962 12.886 2.33337 14.4999 2.33337C16.1138 2.33337 17.6305 2.63962 19.0499 3.25212C20.4694 3.86462 21.7041 4.69587 22.7541 5.74587C23.8041 6.79587 24.6353 8.0306 25.2478 9.45004C25.8603 10.8695 26.1666 12.3862 26.1666 14C26.1666 15.6139 25.8603 17.1306 25.2478 18.55C24.6353 19.9695 23.8041 21.2042 22.7541 22.2542C21.7041 23.3042 20.4694 24.1355 19.0499 24.748C17.6305 25.3605 16.1138 25.6667 14.4999 25.6667Z" fill="black"/>
</g>
</svg>
