<svg width="29" height="28" viewBox="0 0 29 28" fill="none" xmlns="http://www.w3.org/2000/svg">
<path d="M14.4999 22.1667C14.2471 22.1667 14.0381 22.0841 13.8728 21.9188C13.7076 21.7535 13.6249 21.5445 13.6249 21.2917V14.875H7.20825C6.95547 14.875 6.74645 14.7924 6.58117 14.6271C6.41589 14.4618 6.33325 14.2528 6.33325 14C6.33325 13.7473 6.41589 13.5382 6.58117 13.373C6.74645 13.2077 6.95547 13.125 7.20825 13.125H13.6249V6.70837C13.6249 6.4556 13.7076 6.24657 13.8728 6.08129C14.0381 5.91601 14.2471 5.83337 14.4999 5.83337C14.7527 5.83337 14.9617 5.91601 15.127 6.08129C15.2923 6.24657 15.3749 6.4556 15.3749 6.70837V13.125H21.7916C22.0444 13.125 22.2534 13.2077 22.4187 13.373C22.5839 13.5382 22.6666 13.7473 22.6666 14C22.6666 14.2528 22.5839 14.4618 22.4187 14.6271C22.2534 14.7924 22.0444 14.875 21.7916 14.875H15.3749V21.2917C15.3749 21.5445 15.2923 21.7535 15.127 21.9188C14.9617 22.0841 14.7527 22.1667 14.4999 22.1667Z" fill="black"/>
</svg>
