<svg width="29" height="28" viewBox="0 0 29 28" fill="none" xmlns="http://www.w3.org/2000/svg">
<path d="M14.4999 23.2458C14.0722 23.2458 13.7076 23.0951 13.4062 22.7937C13.1048 22.4923 12.9541 22.1277 12.9541 21.6999C12.9541 21.2722 13.1048 20.9124 13.4062 20.6208C13.7076 20.3291 14.0722 20.1833 14.4999 20.1833C14.9277 20.1833 15.2923 20.334 15.5937 20.6354C15.8951 20.9368 16.0458 21.2916 16.0458 21.6999C16.0458 22.1277 15.8951 22.4923 15.5937 22.7937C15.2923 23.0951 14.9277 23.2458 14.4999 23.2458ZM14.4999 17.5291C14.111 17.5291 13.7854 17.393 13.5229 17.1208C13.2604 16.8486 13.1291 16.518 13.1291 16.1291V5.54161C13.1291 5.17217 13.2652 4.85133 13.5374 4.57911C13.8097 4.30689 14.1305 4.17078 14.4999 4.17078C14.8888 4.17078 15.2145 4.30689 15.477 4.57911C15.7395 4.85133 15.8708 5.17217 15.8708 5.54161V16.1291C15.8708 16.518 15.7347 16.8486 15.4624 17.1208C15.1902 17.393 14.8694 17.5291 14.4999 17.5291Z" fill="black"/>
</svg>
