<svg width="29" height="16" viewBox="0 0 29 16" fill="none" xmlns="http://www.w3.org/2000/svg">
<g clip-path="url(#clip0_850_3691)">
<path d="M0.5 0.631592H28.5V15.3684H0.5V0.631592Z" fill="#B22234"/>
<path d="M0.5 2.33215H28.5H0.5ZM28.5 4.59936H0.5H28.5ZM0.5 6.86657H28.5H0.5ZM28.5 9.13377H0.5H28.5ZM0.5 11.401H28.5H0.5ZM28.5 13.6682H0.5H28.5Z" fill="black"/>
<path d="M0.5 2.33215H28.5M28.5 4.59936H0.5M0.5 6.86657H28.5M28.5 9.13377H0.5M0.5 11.401H28.5M28.5 13.6682H0.5" stroke="white" stroke-width="1.1336"/>
<path d="M0.5 0.631592H11.7V8.56681H0.5V0.631592Z" fill="#3C3B6E"/>
<path d="M1.4332 0.97168L1.69972 1.79196L1.00195 1.285H1.86445L1.16667 1.79196L1.4332 0.97168Z" fill="white"/>
<path d="M1.4332 2.55872L1.69972 3.379L1.00195 2.87204H1.86445L1.16667 3.379L1.4332 2.55872Z" fill="white"/>
<path d="M1.4332 4.146L1.69972 4.96628L1.00195 4.45932H1.86445L1.16667 4.96628L1.4332 4.146Z" fill="white"/>
<path d="M1.4332 5.73279L1.69972 6.55307L1.00195 6.04611H1.86445L1.16667 6.55307L1.4332 5.73279Z" fill="white"/>
<path d="M1.4332 7.32007L1.69972 8.14035L1.00195 7.63339H1.86445L1.16667 8.14035L1.4332 7.32007Z" fill="white"/>
<path d="M2.36582 1.76538L2.63234 2.58566L1.93457 2.0787H2.79706L2.09929 2.58566L2.36582 1.76538Z" fill="white"/>
<path d="M2.36582 3.35266L2.63234 4.17294L1.93457 3.66598H2.79706L2.09929 4.17294L2.36582 3.35266Z" fill="white"/>
<path d="M2.36582 4.93945L2.63234 5.75974L1.93457 5.25277H2.79706L2.09929 5.75974L2.36582 4.93945Z" fill="white"/>
<path d="M2.36582 6.52673L2.63234 7.34702L1.93457 6.84005H2.79706L2.09929 7.34702L2.36582 6.52673Z" fill="white"/>
<path d="M3.30136 0.971924L3.56789 1.79221L2.87012 1.28524H3.73261L3.03484 1.79221L3.30136 0.971924Z" fill="white"/>
<path d="M3.30136 2.55896L3.56789 3.37924L2.87012 2.87228H3.73261L3.03484 3.37924L3.30136 2.55896Z" fill="white"/>
<path d="M3.30136 4.14624L3.56789 4.96652L2.87012 4.45956H3.73261L3.03484 4.96652L3.30136 4.14624Z" fill="white"/>
<path d="M3.30136 5.73303L3.56789 6.55332L2.87012 6.04635H3.73261L3.03484 6.55332L3.30136 5.73303Z" fill="white"/>
<path d="M3.30039 7.32031L3.56691 8.1406L2.86914 7.63363H3.73164L3.03386 8.1406L3.30039 7.32031Z" fill="white"/>
<path d="M4.23422 1.76611L4.50075 2.5864L3.80298 2.07943H4.66547L3.9677 2.5864L4.23422 1.76611Z" fill="white"/>
<path d="M4.23422 3.35291L4.50075 4.17319L3.80298 3.66623H4.66547L3.9677 4.17319L4.23422 3.35291Z" fill="white"/>
<path d="M4.23422 4.94019L4.50075 5.76047L3.80298 5.25351H4.66547L3.9677 5.76047L4.23422 4.94019Z" fill="white"/>
<path d="M4.23422 6.52698L4.50075 7.34726L3.80298 6.8403H4.66547L3.9677 7.34726L4.23422 6.52698Z" fill="white"/>
<path d="M5.16806 0.972778L5.43459 1.79306L4.73682 1.2861H5.59931L4.90154 1.79306L5.16806 0.972778Z" fill="white"/>
<path d="M5.16806 2.55957L5.43459 3.37985L4.73682 2.87289H5.59931L4.90154 3.37985L5.16806 2.55957Z" fill="white"/>
<path d="M5.16806 4.14685L5.43459 4.96713L4.73682 4.46017H5.59931L4.90154 4.96713L5.16806 4.14685Z" fill="white"/>
<path d="M5.16806 5.73364L5.43459 6.55393L4.73682 6.04696H5.59931L4.90154 6.55393L5.16806 5.73364Z" fill="white"/>
<path d="M5.16782 7.32092L5.43434 8.14121L4.73657 7.63424H5.59907L4.90129 8.14121L5.16782 7.32092Z" fill="white"/>
<path d="M6.10166 1.76648L6.36818 2.58676L5.67041 2.0798H6.5329L5.83513 2.58676L6.10166 1.76648Z" fill="white"/>
<path d="M6.10141 3.35339L6.36794 4.17368L5.67017 3.66671H6.53266L5.83489 4.17368L6.10141 3.35339Z" fill="white"/>
<path d="M6.10141 4.94055L6.36794 5.76083L5.67017 5.25387H6.53266L5.83489 5.76083L6.10141 4.94055Z" fill="white"/>
<path d="M6.10141 6.52747L6.36794 7.34775L5.67017 6.84079H6.53266L5.83489 7.34775L6.10141 6.52747Z" fill="white"/>
<path d="M7.03574 0.97229L7.30226 1.79257L6.60449 1.28561H7.46699L6.76921 1.79257L7.03574 0.97229Z" fill="white"/>
<path d="M7.03574 2.55957L7.30226 3.37985L6.60449 2.87289H7.46699L6.76921 3.37985L7.03574 2.55957Z" fill="white"/>
<path d="M7.03574 4.14636L7.30226 4.96665L6.60449 4.45968H7.46699L6.76921 4.96665L7.03574 4.14636Z" fill="white"/>
<path d="M7.03574 5.73364L7.30226 6.55393L6.60449 6.04696H7.46699L6.76921 6.55393L7.03574 5.73364Z" fill="white"/>
<path d="M7.03525 7.32043L7.30177 8.14072L6.604 7.63375H7.4665L6.76872 8.14072L7.03525 7.32043Z" fill="white"/>
<path d="M7.96713 1.76599L8.23366 2.58627L7.53589 2.07931H8.39838L7.70061 2.58627L7.96713 1.76599Z" fill="white"/>
<path d="M7.96738 3.35291L8.2339 4.17319L7.53613 3.66623H8.39863L7.70085 4.17319L7.96738 3.35291Z" fill="white"/>
<path d="M7.96738 4.94019L8.2339 5.76047L7.53613 5.25351H8.39863L7.70085 5.76047L7.96738 4.94019Z" fill="white"/>
<path d="M7.96738 6.52698L8.2339 7.34726L7.53613 6.8403H8.39863L7.70085 7.34726L7.96738 6.52698Z" fill="white"/>
<path d="M8.90024 0.972778L9.16676 1.79306L8.46899 1.2861H9.33149L8.63371 1.79306L8.90024 0.972778Z" fill="white"/>
<path d="M8.90024 2.55957L9.16676 3.37985L8.46899 2.87289H9.33149L8.63371 3.37985L8.90024 2.55957Z" fill="white"/>
<path d="M8.90024 4.14685L9.16676 4.96713L8.46899 4.46017H9.33149L8.63371 4.96713L8.90024 4.14685Z" fill="white"/>
<path d="M8.90024 5.73364L9.16676 6.55393L8.46899 6.04696H9.33149L8.63371 6.55393L8.90024 5.73364Z" fill="white"/>
<path d="M8.90073 7.3208L9.16725 8.14108L8.46948 7.63412H9.33198L8.6342 8.14108L8.90073 7.3208Z" fill="white"/>
<path d="M9.83359 1.76599L10.1001 2.58627L9.40234 2.07931H10.2648L9.56706 2.58627L9.83359 1.76599Z" fill="white"/>
<path d="M9.83359 3.35278L10.1001 4.17307L9.40234 3.6661H10.2648L9.56706 4.17307L9.83359 3.35278Z" fill="white"/>
<path d="M9.83359 4.94006L10.1001 5.76035L9.40234 5.25338H10.2648L9.56706 5.76035L9.83359 4.94006Z" fill="white"/>
<path d="M9.83359 6.52686L10.1001 7.34714L9.40234 6.84018H10.2648L9.56706 7.34714L9.83359 6.52686Z" fill="white"/>
<path d="M10.7669 0.97229L11.0335 1.79257L10.3357 1.28561H11.1982L10.5004 1.79257L10.7669 0.97229Z" fill="white"/>
<path d="M10.7667 2.5592L11.0332 3.37949L10.3354 2.87252H11.1979L10.5002 3.37949L10.7667 2.5592Z" fill="white"/>
<path d="M10.7667 4.14648L11.0332 4.96677L10.3354 4.4598H11.1979L10.5002 4.96677L10.7667 4.14648Z" fill="white"/>
<path d="M10.7667 5.73328L11.0332 6.55356L10.3354 6.0466H11.1979L10.5002 6.55356L10.7667 5.73328Z" fill="white"/>
<path d="M10.7667 7.32056L11.0332 8.14084L10.3354 7.63388H11.1979L10.5002 8.14084L10.7667 7.32056Z" fill="white"/>
</g>
<defs>
<clipPath id="clip0_850_3691">
<rect width="28" height="14.7368" fill="white" transform="translate(0.5 0.631592)"/>
</clipPath>
</defs>
</svg>
