<svg width="29" height="28" viewBox="0 0 29 28" fill="none" xmlns="http://www.w3.org/2000/svg">
<mask id="mask0_1453_2537" style="mask-type:alpha" maskUnits="userSpaceOnUse" x="0" y="0" width="29" height="28">
<rect x="0.5" width="28" height="28" fill="#D9D9D9"/>
</mask>
<g mask="url(#mask0_1453_2537)">
<path d="M24.9999 15.1667H22.6666C22.336 15.1667 22.0589 15.0549 21.8353 14.8313C21.6117 14.6077 21.4999 14.3306 21.4999 14C21.4999 13.6695 21.6117 13.3924 21.8353 13.1688C22.0589 12.9452 22.336 12.8334 22.6666 12.8334H24.9999C25.3305 12.8334 25.6076 12.9452 25.8312 13.1688C26.0548 13.3924 26.1666 13.6695 26.1666 14C26.1666 14.3306 26.0548 14.6077 25.8312 14.8313C25.6076 15.0549 25.3305 15.1667 24.9999 15.1667ZM19.8666 19.6C20.061 19.3278 20.3138 19.1723 20.6249 19.1334C20.936 19.0945 21.2277 19.1723 21.4999 19.3667L23.3666 20.7667C23.6388 20.9612 23.7944 21.2139 23.8333 21.525C23.8721 21.8362 23.7944 22.1278 23.5999 22.4C23.4055 22.6723 23.1527 22.8278 22.8416 22.8667C22.5305 22.9056 22.2388 22.8278 21.9666 22.6334L20.0999 21.2334C19.8277 21.0389 19.6721 20.7862 19.6333 20.475C19.5944 20.1639 19.6721 19.8723 19.8666 19.6ZM23.3666 7.23338L21.4999 8.63338C21.2277 8.82782 20.936 8.9056 20.6249 8.86671C20.3138 8.82782 20.061 8.67227 19.8666 8.40005C19.6721 8.12782 19.5944 7.83616 19.6333 7.52505C19.6721 7.21393 19.8277 6.96116 20.0999 6.76671L21.9666 5.36671C22.2388 5.17227 22.5305 5.09449 22.8416 5.13338C23.1527 5.17227 23.4055 5.32782 23.5999 5.60005C23.7944 5.87227 23.8721 6.16393 23.8333 6.47505C23.7944 6.78616 23.6388 7.03894 23.3666 7.23338ZM6.33325 17.5H5.16659C4.52492 17.5 3.97561 17.2716 3.51867 16.8146C3.06172 16.3577 2.83325 15.8084 2.83325 15.1667V12.8334C2.83325 12.1917 3.06172 11.6424 3.51867 11.1855C3.97561 10.7285 4.52492 10.5 5.16659 10.5H9.83325L13.8874 8.05005C14.2763 7.81671 14.6701 7.81671 15.0687 8.05005C15.4673 8.28338 15.6666 8.62366 15.6666 9.07088V18.9292C15.6666 19.3764 15.4673 19.7167 15.0687 19.95C14.6701 20.1834 14.2763 20.1834 13.8874 19.95L9.83325 17.5H8.66659V21C8.66659 21.3306 8.55478 21.6077 8.33117 21.8313C8.10756 22.0549 7.83047 22.1667 7.49992 22.1667C7.16936 22.1667 6.89228 22.0549 6.66867 21.8313C6.44506 21.6077 6.33325 21.3306 6.33325 21V17.5ZM16.8333 17.9084V10.0917C17.3583 10.5584 17.7812 11.1271 18.102 11.798C18.4228 12.4688 18.5833 13.2028 18.5833 14C18.5833 14.7973 18.4228 15.5313 18.102 16.2021C17.7812 16.873 17.3583 17.4417 16.8333 17.9084Z" fill="black"/>
</g>
</svg>
