<svg width="29" height="28" viewBox="0 0 29 28" fill="none" xmlns="http://www.w3.org/2000/svg">
<mask id="mask0_1474_6638" style="mask-type:alpha" maskUnits="userSpaceOnUse" x="0" y="0" width="29" height="28">
<rect x="0.5" width="28" height="28" fill="#D9D9D9"/>
</mask>
<g mask="url(#mask0_1474_6638)">
<path d="M20.9751 10.7041L25.0876 6.56246C25.3209 6.32913 25.598 6.21246 25.9188 6.21246C26.2397 6.21246 26.5168 6.32913 26.7501 6.56246C26.9834 6.79579 27.1001 7.07288 27.1001 7.39371C27.1001 7.71454 26.9834 7.99163 26.7501 8.22496L21.7917 13.1833C21.5584 13.4166 21.2862 13.5333 20.9751 13.5333C20.664 13.5333 20.3917 13.4166 20.1584 13.1833L17.6792 10.7041C17.4459 10.4708 17.3292 10.1937 17.3292 9.87288C17.3292 9.55204 17.4459 9.27496 17.6792 9.04163C17.9126 8.80829 18.1848 8.69163 18.4959 8.69163C18.807 8.69163 19.0792 8.80829 19.3126 9.04163L20.9751 10.7041ZM11.0001 14C9.71675 14 8.61814 13.543 7.70425 12.6291C6.79036 11.7152 6.33342 10.6166 6.33342 9.33329C6.33342 8.04996 6.79036 6.95135 7.70425 6.03746C8.61814 5.12357 9.71675 4.66663 11.0001 4.66663C12.2834 4.66663 13.382 5.12357 14.2959 6.03746C15.2098 6.95135 15.6667 8.04996 15.6667 9.33329C15.6667 10.6166 15.2098 11.7152 14.2959 12.6291C13.382 13.543 12.2834 14 11.0001 14ZM1.66675 21V20.0666C1.66675 19.4055 1.83689 18.7979 2.17716 18.2437C2.51744 17.6895 2.96953 17.2666 3.53341 16.975C4.73897 16.3722 5.96397 15.9201 7.20842 15.6187C8.45286 15.3173 9.71675 15.1666 11.0001 15.1666C12.2834 15.1666 13.5473 15.3173 14.7917 15.6187C16.0362 15.9201 17.2612 16.3722 18.4667 16.975C19.0306 17.2666 19.4827 17.6895 19.823 18.2437C20.1633 18.7979 20.3334 19.4055 20.3334 20.0666V21C20.3334 21.6416 20.1049 22.1909 19.648 22.6479C19.1911 23.1048 18.6417 23.3333 18.0001 23.3333H4.00008C3.35841 23.3333 2.80911 23.1048 2.35216 22.6479C1.89522 22.1909 1.66675 21.6416 1.66675 21Z" fill="black"/>
</g>
</svg>
