<svg width="29" height="28" viewBox="0 0 29 28" fill="none" xmlns="http://www.w3.org/2000/svg">
<path d="M13.5376 22.7209L5.42925 14.6126C5.33203 14.5153 5.26397 14.4181 5.22508 14.3209C5.18619 14.2237 5.16675 14.1167 5.16675 14.0001C5.16675 13.8834 5.18619 13.7764 5.22508 13.6792C5.26397 13.582 5.33203 13.4848 5.42925 13.3876L13.5667 5.25006C13.7223 5.0945 13.9167 5.01672 14.1501 5.01672C14.3834 5.01672 14.5876 5.10422 14.7626 5.27922C14.9376 5.45422 15.0251 5.65839 15.0251 5.89172C15.0251 6.12506 14.9376 6.32922 14.7626 6.50422L8.14175 13.1251H22.6084C22.8612 13.1251 23.0702 13.2077 23.2355 13.373C23.4008 13.5383 23.4834 13.7473 23.4834 14.0001C23.4834 14.2528 23.4008 14.4619 23.2355 14.6271C23.0702 14.7924 22.8612 14.8751 22.6084 14.8751H8.14175L14.7917 21.5251C14.9473 21.6806 15.0251 21.8751 15.0251 22.1084C15.0251 22.3417 14.9376 22.5459 14.7626 22.7209C14.5876 22.8959 14.3834 22.9834 14.1501 22.9834C13.9167 22.9834 13.7126 22.8959 13.5376 22.7209Z" fill="black"/>
</svg>
