<svg width="29" height="28" viewBox="0 0 29 28" fill="none" xmlns="http://www.w3.org/2000/svg">
<path d="M5.16667 25.6666C4.83611 25.6666 4.55903 25.5548 4.33542 25.3312C4.11181 25.1076 4 24.8305 4 24.5V18.1125C4 17.6264 4.17014 17.2132 4.51042 16.8729C4.85069 16.5326 5.26389 16.3625 5.75 16.3625H23.25C23.7361 16.3625 24.1493 16.5326 24.4896 16.8729C24.8299 17.2132 25 17.6264 25 18.1125V24.5C25 24.8305 24.8882 25.1076 24.6646 25.3312C24.441 25.5548 24.1639 25.6666 23.8333 25.6666H5.16667ZM6.5375 14.6125V11.0541C6.5375 10.568 6.70764 10.1548 7.04792 9.81456C7.38819 9.47428 7.80139 9.30414 8.2875 9.30414H13.625V7.43748C13.2361 7.16525 12.9396 6.86873 12.7354 6.54789C12.5312 6.22706 12.4292 5.84303 12.4292 5.39581C12.4292 5.10414 12.4826 4.82706 12.5896 4.56456C12.6965 4.30206 12.8472 4.07359 13.0417 3.87914L14.1792 2.68331C14.1986 2.66386 14.3056 2.61525 14.5 2.53748C14.5389 2.53748 14.6458 2.58609 14.8208 2.68331L15.9583 3.87914C16.1528 4.07359 16.3083 4.30206 16.425 4.56456C16.5417 4.82706 16.6 5.10414 16.6 5.39581C16.6 5.84303 16.4931 6.22706 16.2792 6.54789C16.0653 6.86873 15.7639 7.16525 15.375 7.43748V9.30414H20.7125C21.1986 9.30414 21.6118 9.47428 21.9521 9.81456C22.2924 10.1548 22.4625 10.568 22.4625 11.0541V14.6125H6.5375Z" fill="black"/>
</svg>
