<svg width="29" height="28" viewBox="0 0 29 28" fill="none" xmlns="http://www.w3.org/2000/svg">
<path d="M21.5874 10.1792L20.4791 11.1709C20.2652 11.3653 19.993 11.4771 19.6624 11.5063C19.3319 11.5354 19.0305 11.4528 18.7583 11.2584C18.486 11.0639 18.3256 10.8014 18.277 10.4709C18.2284 10.1403 18.243 9.84864 18.3208 9.59587L18.8166 7.9042L17.5624 7.2042C17.2902 7.04864 17.1152 6.82989 17.0374 6.54795C16.9596 6.26601 16.9694 5.96948 17.0666 5.65837C17.1638 5.34725 17.3291 5.11392 17.5624 4.95837C17.7958 4.80281 18.0777 4.72503 18.4083 4.72503H19.8374L20.2749 3.41253C20.3721 3.12087 20.5326 2.86323 20.7562 2.63962C20.9798 2.416 21.2569 2.3042 21.5874 2.3042C21.918 2.3042 22.1951 2.416 22.4187 2.63962C22.6423 2.86323 22.8027 3.12087 22.8999 3.41253L23.3374 4.72503H24.7666C25.0583 4.72503 25.3305 4.80767 25.5833 4.97295C25.836 5.13823 26.011 5.3667 26.1083 5.65837C26.2055 5.93059 26.2152 6.21739 26.1374 6.51878C26.0596 6.82017 25.8749 7.04864 25.5833 7.2042L24.3291 7.9042L24.8249 9.59587C24.9221 9.86809 24.9464 10.1646 24.8978 10.4854C24.8492 10.8063 24.6888 11.0639 24.4166 11.2584C24.1444 11.4334 23.843 11.5111 23.5124 11.4917C23.1819 11.4723 22.9096 11.3653 22.6958 11.1709L21.5874 10.1792ZM21.5874 8.4292C21.918 8.4292 22.1951 8.31739 22.4187 8.09378C22.6423 7.87017 22.7541 7.59309 22.7541 7.26253C22.7541 6.93198 22.6423 6.65489 22.4187 6.43128C22.1951 6.20767 21.918 6.09587 21.5874 6.09587C21.2569 6.09587 20.9798 6.20767 20.7562 6.43128C20.5326 6.65489 20.4208 6.93198 20.4208 7.26253C20.4208 7.59309 20.5326 7.87017 20.7562 8.09378C20.9798 8.31739 21.2569 8.4292 21.5874 8.4292ZM15.9291 21.2625C16.3569 22.3125 16.2062 23.3091 15.477 24.2521C14.7478 25.1952 13.7902 25.6667 12.6041 25.6667C11.9819 25.6667 11.418 25.516 10.9124 25.2146C10.4069 24.9132 10.0083 24.4514 9.71659 23.8292C8.41381 23.9653 7.2277 23.5035 6.15825 22.4438C5.08881 21.3841 4.59297 20.2028 4.67075 18.9C4.08742 18.5889 3.63534 18.1174 3.3145 17.4854C2.99367 16.8535 2.83325 16.2556 2.83325 15.6917C2.83325 14.3889 3.2902 13.4216 4.20409 12.7896C5.11797 12.1577 6.21659 12.1236 7.49992 12.6875L9.24992 13.3875C9.58047 12.6681 10.0617 12.1091 10.6937 11.7104C11.3256 11.3118 12.0208 11.0931 12.7791 11.0542V9.24587C12.7791 9.05142 12.8471 8.88614 12.9833 8.75003C13.1194 8.61392 13.2944 8.54587 13.5083 8.54587C13.7027 8.54587 13.868 8.61392 14.0041 8.75003C14.1402 8.88614 14.2083 9.05142 14.2083 9.24587V11.1709C15.0055 11.3264 15.7055 11.7445 16.3083 12.425C16.911 13.1056 17.2805 13.757 17.4166 14.3792H19.3124C19.5263 14.3792 19.7013 14.4473 19.8374 14.5834C19.9735 14.7195 20.0416 14.8945 20.0416 15.1084C20.0416 15.3223 19.9735 15.4973 19.8374 15.6334C19.7013 15.7695 19.5263 15.8375 19.3124 15.8375H17.5333C17.4749 16.5959 17.2513 17.291 16.8624 17.9229C16.4735 18.5549 15.9194 19.0361 15.1999 19.3667L15.9291 21.2625ZM7.03325 17.6459C7.81103 17.6459 8.63256 17.4368 9.49784 17.0188C10.3631 16.6007 10.9416 16.2945 11.2333 16.1L7.09159 14.4084C6.60547 14.1945 6.06589 14.2188 5.47284 14.4813C4.87978 14.7438 4.58325 15.1278 4.58325 15.6334C4.58325 16.1389 4.90895 16.6007 5.56034 17.0188C6.21172 17.4368 6.7027 17.6459 7.03325 17.6459ZM12.6041 23.9167C13.2069 23.9167 13.6881 23.7174 14.0478 23.3188C14.4076 22.9202 14.4805 22.4486 14.2666 21.9042L12.5166 17.3834C12.1666 17.9473 11.8166 18.5452 11.4666 19.1771C11.1166 19.8091 10.9416 20.6111 10.9416 21.5834C10.9416 21.9723 11.0826 22.4584 11.3645 23.0417C11.6464 23.625 12.0596 23.9167 12.6041 23.9167ZM14.4999 17.7334C15.0055 17.4417 15.3458 17.0917 15.5208 16.6834C15.6958 16.275 15.7833 15.8375 15.7833 15.3709C15.7833 14.6903 15.5353 14.1021 15.0395 13.6063C14.5437 13.1104 13.9555 12.8625 13.2749 12.8625C12.8083 12.8625 12.3562 12.9695 11.9187 13.1834C11.4812 13.3973 11.1555 13.7473 10.9416 14.2334L13.4791 15.225L14.4999 17.7334Z" fill="black"/>
</svg>
