<svg width="29" height="28" viewBox="0 0 29 28" fill="none" xmlns="http://www.w3.org/2000/svg">
<path d="M9.51242 18.9875C9.68742 19.1625 9.89159 19.25 10.1249 19.25C10.3583 19.25 10.5624 19.1625 10.7374 18.9875L14.4999 15.225L18.2916 19.0167C18.4471 19.1723 18.6464 19.2452 18.8895 19.2355C19.1326 19.2257 19.3319 19.1431 19.4874 18.9875C19.6624 18.8125 19.7499 18.6084 19.7499 18.375C19.7499 18.1417 19.6624 17.9375 19.4874 17.7625L15.7249 14L19.5166 10.2084C19.6721 10.0528 19.7451 9.85351 19.7353 9.61046C19.7256 9.3674 19.643 9.1681 19.4874 9.01254C19.3124 8.83754 19.1083 8.75004 18.8749 8.75004C18.6416 8.75004 18.4374 8.83754 18.2624 9.01254L14.4999 12.775L10.7083 8.98337C10.5527 8.82782 10.3534 8.7549 10.1103 8.76462C9.86728 8.77435 9.66797 8.85699 9.51242 9.01254C9.33742 9.18754 9.24992 9.39171 9.24992 9.62504C9.24992 9.85837 9.33742 10.0625 9.51242 10.2375L13.2749 14L9.48325 17.7917C9.3277 17.9473 9.25478 18.1466 9.2645 18.3896C9.27422 18.6327 9.35686 18.832 9.51242 18.9875ZM14.4999 25.6667C12.8471 25.6667 11.311 25.3702 9.89159 24.7771C8.47214 24.1841 7.23742 23.3625 6.18742 22.3125C5.13742 21.2625 4.31589 20.0278 3.72284 18.6084C3.12978 17.1889 2.83325 15.6528 2.83325 14C2.83325 12.3667 3.12978 10.8403 3.72284 9.42087C4.31589 8.00143 5.13742 6.76671 6.18742 5.71671C7.23742 4.66671 8.47214 3.84032 9.89159 3.23754C11.311 2.63476 12.8471 2.33337 14.4999 2.33337C16.1333 2.33337 17.6596 2.63476 19.0791 3.23754C20.4985 3.84032 21.7333 4.66671 22.7833 5.71671C23.8333 6.76671 24.6596 8.00143 25.2624 9.42087C25.8652 10.8403 26.1666 12.3667 26.1666 14C26.1666 15.6528 25.8652 17.1889 25.2624 18.6084C24.6596 20.0278 23.8333 21.2625 22.7833 22.3125C21.7333 23.3625 20.4985 24.1841 19.0791 24.7771C17.6596 25.3702 16.1333 25.6667 14.4999 25.6667Z" fill="black"/>
</svg>
