<svg width="29" height="28" viewBox="0 0 29 28" fill="none" xmlns="http://www.w3.org/2000/svg">
<path d="M11.525 20.9709C11.35 20.9709 11.1799 20.9368 11.0146 20.8688C10.8493 20.8007 10.6986 20.6986 10.5625 20.5625L5.28333 15.2834C5.01111 15.0111 4.875 14.6806 4.875 14.2917C4.875 13.9028 5.01111 13.5723 5.28333 13.3C5.55556 13.0278 5.88125 12.8917 6.26042 12.8917C6.63958 12.8917 6.975 13.0278 7.26667 13.3L11.525 17.5584L21.7333 7.3792C22.0056 7.10698 22.3313 6.966 22.7104 6.95628C23.0896 6.94656 23.4153 7.08753 23.6875 7.3792C23.9597 7.65142 24.0958 7.98198 24.0958 8.37086C24.0958 8.75975 23.9597 9.09031 23.6875 9.36253L12.4875 20.5625C12.3514 20.6986 12.2007 20.8007 12.0354 20.8688C11.8701 20.9368 11.7 20.9709 11.525 20.9709Z" fill="black"/>
</svg>
