<svg width="29" height="28" viewBox="0 0 29 28" fill="none" xmlns="http://www.w3.org/2000/svg">
<path d="M12.7791 16.6542L9.92075 13.7959C9.74575 13.6209 9.53186 13.5334 9.27909 13.5334C9.02631 13.5334 8.81242 13.6209 8.63742 13.7959C8.44297 13.9903 8.34575 14.2188 8.34575 14.4813C8.34575 14.7438 8.43325 14.9625 8.60825 15.1375L12.1666 18.6959C12.3221 18.8514 12.5263 18.9292 12.7791 18.9292C13.0319 18.9292 13.236 18.8514 13.3916 18.6959L20.3916 11.6959C20.5666 11.5209 20.6541 11.307 20.6541 11.0542C20.6541 10.8014 20.5569 10.5778 20.3624 10.3834C20.1874 10.2084 19.9687 10.1209 19.7062 10.1209C19.4437 10.1209 19.2152 10.2181 19.0208 10.4125L12.7791 16.6542ZM14.4999 25.6667C12.8471 25.6667 11.311 25.3702 9.89159 24.7771C8.47214 24.1841 7.23742 23.3625 6.18742 22.3125C5.13742 21.2625 4.31589 20.0278 3.72284 18.6084C3.12978 17.1889 2.83325 15.6528 2.83325 14C2.83325 12.3667 3.12978 10.8403 3.72284 9.42087C4.31589 8.00143 5.13742 6.76671 6.18742 5.71671C7.23742 4.66671 8.47214 3.84032 9.89159 3.23754C11.311 2.63476 12.8471 2.33337 14.4999 2.33337C16.1333 2.33337 17.6596 2.63476 19.0791 3.23754C20.4985 3.84032 21.7333 4.66671 22.7833 5.71671C23.8333 6.76671 24.6596 8.00143 25.2624 9.42087C25.8652 10.8403 26.1666 12.3667 26.1666 14C26.1666 15.6528 25.8652 17.1889 25.2624 18.6084C24.6596 20.0278 23.8333 21.2625 22.7833 22.3125C21.7333 23.3625 20.4985 24.1841 19.0791 24.7771C17.6596 25.3702 16.1333 25.6667 14.4999 25.6667Z" fill="black"/>
</svg>
