<svg width="29" height="28" viewBox="0 0 29 28" fill="none" xmlns="http://www.w3.org/2000/svg">
<path d="M14.4999 25.6667C12.9055 25.6667 11.3985 25.3605 9.97909 24.748C8.55964 24.1355 7.32006 23.2993 6.26034 22.2396C5.20061 21.1799 4.3645 19.9403 3.752 18.5209C3.1395 17.1014 2.83325 15.5945 2.83325 14C2.83325 12.3862 3.1395 10.8695 3.752 9.45004C4.3645 8.0306 5.20061 6.79587 6.26034 5.74587C7.32006 4.69587 8.55964 3.86462 9.97909 3.25212C11.3985 2.63962 12.9055 2.33337 14.4999 2.33337C16.1138 2.33337 17.6305 2.63962 19.0499 3.25212C20.4694 3.86462 21.7041 4.69587 22.7541 5.74587C23.8041 6.79587 24.6353 8.0306 25.2478 9.45004C25.8603 10.8695 26.1666 12.3862 26.1666 14C26.1666 15.5945 25.8603 17.1014 25.2478 18.5209C24.6353 19.9403 23.8041 21.1799 22.7541 22.2396C21.7041 23.2993 20.4694 24.1355 19.0499 24.748C17.6305 25.3605 16.1138 25.6667 14.4999 25.6667Z" fill="black"/>
</svg>
