<svg width="29" height="28" viewBox="0 0 29 28" fill="none" xmlns="http://www.w3.org/2000/svg">
<path d="M14.4999 15.9251L8.72493 21.7001C8.45271 21.9723 8.13188 22.1084 7.76243 22.1084C7.39299 22.1084 7.07216 21.9723 6.79993 21.7001C6.52771 21.4278 6.3916 21.107 6.3916 20.7376C6.3916 20.3681 6.52771 20.0473 6.79993 19.7751L12.5749 14.0001L6.79993 8.22506C6.52771 7.95283 6.3916 7.632 6.3916 7.26256C6.3916 6.89311 6.52771 6.57228 6.79993 6.30006C7.07216 6.02783 7.39299 5.89172 7.76243 5.89172C8.13188 5.89172 8.45271 6.02783 8.72493 6.30006L14.4999 12.0751L20.2749 6.30006C20.5472 6.02783 20.868 5.89172 21.2374 5.89172C21.6069 5.89172 21.9277 6.02783 22.1999 6.30006C22.4722 6.57228 22.6083 6.89311 22.6083 7.26256C22.6083 7.632 22.4722 7.95283 22.1999 8.22506L16.4249 14.0001L22.1999 19.7751C22.4722 20.0473 22.6083 20.3681 22.6083 20.7376C22.6083 21.107 22.4722 21.4278 22.1999 21.7001C21.9277 21.9723 21.6069 22.1084 21.2374 22.1084C20.868 22.1084 20.5472 21.9723 20.2749 21.7001L14.4999 15.9251Z" fill="black"/>
</svg>
