<svg width="29" height="28" viewBox="0 0 29 28" fill="none" xmlns="http://www.w3.org/2000/svg">
<mask id="mask0_1672_42126" style="mask-type:alpha" maskUnits="userSpaceOnUse" x="0" y="0" width="29" height="28">
<rect x="0.5" width="28" height="28" fill="#D9D9D9"/>
</mask>
<g mask="url(#mask0_1672_42126)">
<path d="M16.8333 10.5C16.5028 10.5 16.2257 10.3882 16.0021 10.1646C15.7785 9.94097 15.6667 9.66389 15.6667 9.33333V4.66667C15.6667 4.33611 15.7785 4.05903 16.0021 3.83542C16.2257 3.61181 16.5028 3.5 16.8333 3.5H23.8333C24.1639 3.5 24.441 3.61181 24.6646 3.83542C24.8882 4.05903 25 4.33611 25 4.66667V9.33333C25 9.66389 24.8882 9.94097 24.6646 10.1646C24.441 10.3882 24.1639 10.5 23.8333 10.5H16.8333ZM5.16667 15.1667C4.83611 15.1667 4.55903 15.0549 4.33542 14.8313C4.11181 14.6076 4 14.3306 4 14V4.66667C4 4.33611 4.11181 4.05903 4.33542 3.83542C4.55903 3.61181 4.83611 3.5 5.16667 3.5H12.1667C12.4972 3.5 12.7743 3.61181 12.9979 3.83542C13.2215 4.05903 13.3333 4.33611 13.3333 4.66667V14C13.3333 14.3306 13.2215 14.6076 12.9979 14.8313C12.7743 15.0549 12.4972 15.1667 12.1667 15.1667H5.16667ZM16.8333 24.5C16.5028 24.5 16.2257 24.3882 16.0021 24.1646C15.7785 23.941 15.6667 23.6639 15.6667 23.3333V14C15.6667 13.6694 15.7785 13.3924 16.0021 13.1687C16.2257 12.9451 16.5028 12.8333 16.8333 12.8333H23.8333C24.1639 12.8333 24.441 12.9451 24.6646 13.1687C24.8882 13.3924 25 13.6694 25 14V23.3333C25 23.6639 24.8882 23.941 24.6646 24.1646C24.441 24.3882 24.1639 24.5 23.8333 24.5H16.8333ZM5.16667 24.5C4.83611 24.5 4.55903 24.3882 4.33542 24.1646C4.11181 23.941 4 23.6639 4 23.3333V18.6667C4 18.3361 4.11181 18.059 4.33542 17.8354C4.55903 17.6118 4.83611 17.5 5.16667 17.5H12.1667C12.4972 17.5 12.7743 17.6118 12.9979 17.8354C13.2215 18.059 13.3333 18.3361 13.3333 18.6667V23.3333C13.3333 23.6639 13.2215 23.941 12.9979 24.1646C12.7743 24.3882 12.4972 24.5 12.1667 24.5H5.16667Z" fill="black"/>
</g>
</svg>
