<svg width="29" height="28" viewBox="0 0 29 28" fill="none" xmlns="http://www.w3.org/2000/svg">
<mask id="mask0_1265_6489" style="mask-type:alpha" maskUnits="userSpaceOnUse" x="0" y="0" width="29" height="28">
<rect x="0.5" width="28" height="28" fill="#D9D9D9"/>
</mask>
<g mask="url(#mask0_1265_6489)">
<path d="M8.66675 24.5C8.02508 24.5 7.47578 24.2715 7.01883 23.8146C6.56189 23.3576 6.33341 22.8083 6.33341 22.1667V7C6.00286 7 5.72578 6.88819 5.50216 6.66458C5.27855 6.44097 5.16675 6.16389 5.16675 5.83333C5.16675 5.50278 5.27855 5.22569 5.50216 5.00208C5.72578 4.77847 6.00286 4.66667 6.33341 4.66667H11.0001C11.0001 4.33611 11.1119 4.05903 11.3355 3.83542C11.5591 3.61181 11.8362 3.5 12.1667 3.5H16.8334C17.164 3.5 17.4411 3.61181 17.6647 3.83542C17.8883 4.05903 18.0001 4.33611 18.0001 4.66667H22.6667C22.9973 4.66667 23.2744 4.77847 23.498 5.00208C23.7216 5.22569 23.8334 5.50278 23.8334 5.83333C23.8334 6.16389 23.7216 6.44097 23.498 6.66458C23.2744 6.88819 22.9973 7 22.6667 7V22.1667C22.6667 22.8083 22.4383 23.3576 21.9813 23.8146C21.5244 24.2715 20.9751 24.5 20.3334 24.5H8.66675ZM12.1667 19.8333C12.4973 19.8333 12.7744 19.7215 12.998 19.4979C13.2216 19.2743 13.3334 18.9972 13.3334 18.6667V10.5C13.3334 10.1694 13.2216 9.89236 12.998 9.66875C12.7744 9.44514 12.4973 9.33333 12.1667 9.33333C11.8362 9.33333 11.5591 9.44514 11.3355 9.66875C11.1119 9.89236 11.0001 10.1694 11.0001 10.5V18.6667C11.0001 18.9972 11.1119 19.2743 11.3355 19.4979C11.5591 19.7215 11.8362 19.8333 12.1667 19.8333ZM16.8334 19.8333C17.164 19.8333 17.4411 19.7215 17.6647 19.4979C17.8883 19.2743 18.0001 18.9972 18.0001 18.6667V10.5C18.0001 10.1694 17.8883 9.89236 17.6647 9.66875C17.4411 9.44514 17.164 9.33333 16.8334 9.33333C16.5029 9.33333 16.2258 9.44514 16.0022 9.66875C15.7786 9.89236 15.6667 10.1694 15.6667 10.5V18.6667C15.6667 18.9972 15.7786 19.2743 16.0022 19.4979C16.2258 19.7215 16.5029 19.8333 16.8334 19.8333Z" fill="black"/>
</g>
</svg>
