<svg width="29" height="28" viewBox="0 0 29 28" fill="none" xmlns="http://www.w3.org/2000/svg">
<path d="M14.5 26.075C12.8278 26.075 11.2577 25.7591 9.78963 25.1271C8.32158 24.4952 7.0431 23.6299 5.95422 22.5313C4.86533 21.4327 4.00491 20.1493 3.37297 18.6813C2.74102 17.2132 2.42505 15.6431 2.42505 13.9709C2.42505 12.3181 2.74102 10.7577 3.37297 9.28962C4.00491 7.82157 4.86533 6.5431 5.95422 5.45421C7.0431 4.36532 8.32158 3.50004 9.78963 2.85837C11.2577 2.21671 12.8278 1.89587 14.5 1.89587C16.1723 1.89587 17.7424 2.21671 19.2105 2.85837C20.6785 3.50004 21.957 4.36532 23.0459 5.45421C24.1348 6.5431 25 7.82157 25.6417 9.28962C26.2834 10.7577 26.6042 12.3181 26.6042 13.9709C26.6042 15.6431 26.2882 17.2181 25.6563 18.6959C25.0244 20.1737 24.1591 21.457 23.0605 22.5459C21.9619 23.6348 20.6785 24.4952 19.2105 25.1271C17.7424 25.7591 16.1723 26.075 14.5 26.075ZM14.5 23.7709C17.2223 23.7709 19.5313 22.823 21.4271 20.9271C23.323 19.0313 24.2709 16.7125 24.2709 13.9709C24.2709 12.8625 24.0862 11.7882 23.7167 10.748C23.3473 9.70768 22.8223 8.76948 22.1417 7.93337L8.43338 21.6125C9.26949 22.332 10.2125 22.8716 11.2625 23.2313C12.3125 23.591 13.3917 23.7709 14.5 23.7709ZM6.88755 20.0375L20.5375 6.35837C19.682 5.65837 18.7389 5.12851 17.7084 4.76879C16.6778 4.40907 15.6084 4.22921 14.5 4.22921C11.7778 4.22921 9.4688 5.17226 7.57297 7.05837C5.67713 8.94449 4.72922 11.2487 4.72922 13.9709C4.72922 15.0792 4.92366 16.1535 5.31255 17.1938C5.70144 18.2341 6.22644 19.182 6.88755 20.0375Z" fill="black"/>
</svg>
