<svg width="29" height="28" viewBox="0 0 29 28" fill="none" xmlns="http://www.w3.org/2000/svg">
<mask id="mask0_1111_2009" style="mask-type:alpha" maskUnits="userSpaceOnUse" x="0" y="0" width="29" height="28">
<rect x="0.5" width="28" height="28" fill="#D9D9D9"/>
</mask>
<g mask="url(#mask0_1111_2009)">
<path d="M12.9542 15.6599V7.00006C12.9542 6.57053 13.1045 6.20556 13.4051 5.90514C13.7055 5.60453 14.0705 5.45422 14.5 5.45422C14.9296 5.45422 15.2945 5.60453 15.5949 5.90514C15.8956 6.20556 16.0459 6.57053 16.0459 7.00006V15.6599L18.7864 12.9197C19.0771 12.6288 19.4372 12.4834 19.8667 12.4834C20.2962 12.4834 20.6563 12.6288 20.947 12.9197C21.2379 13.2104 21.3834 13.5705 21.3834 14.0001C21.3834 14.4296 21.2379 14.7897 20.947 15.0804L15.597 20.4307C15.2867 20.7411 14.921 20.8962 14.5 20.8962C14.0791 20.8962 13.7134 20.7411 13.4031 20.4307L8.05303 15.0804C7.76214 14.7897 7.6167 14.4296 7.6167 14.0001C7.6167 13.5705 7.76214 13.2104 8.05303 12.9197C8.34373 12.6288 8.70384 12.4834 9.13337 12.4834C9.56289 12.4834 9.92301 12.6288 10.2137 12.9197L12.9542 15.6599Z" fill="black"/>
</g>
</svg>
