<svg width="29" height="28" viewBox="0 0 29 28" fill="none" xmlns="http://www.w3.org/2000/svg">
<mask id="mask0_1213_1001" style="mask-type:alpha" maskUnits="userSpaceOnUse" x="0" y="0" width="29" height="28">
<rect x="0.5" width="28" height="28" fill="#D9D9D9"/>
</mask>
<g mask="url(#mask0_1213_1001)">
<path d="M5.16667 24.5C4.83611 24.5 4.55903 24.3882 4.33542 24.1646C4.11181 23.941 4 23.6639 4 23.3333V20.5042C4 20.1931 4.05833 19.8965 4.175 19.6146C4.29167 19.3326 4.45694 19.0847 4.67083 18.8708L19.4 4.17083C19.6333 3.95694 19.891 3.79167 20.1729 3.675C20.4549 3.55833 20.7514 3.5 21.0625 3.5C21.3736 3.5 21.675 3.55833 21.9667 3.675C22.2583 3.79167 22.5111 3.96667 22.725 4.2L24.3292 5.83333C24.5625 6.04722 24.7326 6.3 24.8396 6.59167C24.9465 6.88333 25 7.175 25 7.46667C25 7.77778 24.9465 8.07431 24.8396 8.35625C24.7326 8.63819 24.5625 8.89583 24.3292 9.12917L9.62917 23.8292C9.41528 24.0431 9.16736 24.2083 8.88542 24.325C8.60347 24.4417 8.30694 24.5 7.99583 24.5H5.16667ZM21.0333 9.1L22.6667 7.46667L21.0333 5.83333L19.4 7.46667L21.0333 9.1Z" fill="black"/>
</g>
</svg>
