<svg width="29" height="28" viewBox="0 0 29 28" fill="none" xmlns="http://www.w3.org/2000/svg">
<path d="M14.4999 25.6667C12.886 25.6667 11.3694 25.3605 9.94992 24.748C8.53048 24.1355 7.29575 23.3042 6.24575 22.2542C5.19575 21.2042 4.3645 19.9695 3.752 18.55C3.1395 17.1306 2.83325 15.6139 2.83325 14C2.83325 12.3862 3.1395 10.8695 3.752 9.45004C4.3645 8.0306 5.19575 6.79587 6.24575 5.74587C7.29575 4.69587 8.53048 3.86462 9.94992 3.25212C11.3694 2.63962 12.886 2.33337 14.4999 2.33337C16.1138 2.33337 17.6305 2.63962 19.0499 3.25212C20.4694 3.86462 21.7041 4.69587 22.7541 5.74587C23.8041 6.79587 24.6353 8.0306 25.2478 9.45004C25.8603 10.8695 26.1666 12.3862 26.1666 14V15.5459C26.1666 16.6348 25.7826 17.5535 25.0145 18.3021C24.2464 19.0507 23.3083 19.425 22.1999 19.425C21.4999 19.425 20.8388 19.2549 20.2166 18.9146C19.5944 18.5743 19.118 18.0931 18.7874 17.4709C18.2819 18.132 17.6499 18.623 16.8916 18.9438C16.1333 19.2646 15.336 19.425 14.4999 19.425C12.9833 19.425 11.6951 18.9 10.6353 17.85C9.57561 16.8 9.04575 15.5167 9.04575 14C9.04575 12.4834 9.57561 11.1903 10.6353 10.1209C11.6951 9.05143 12.9833 8.51671 14.4999 8.51671C16.0166 8.51671 17.3048 9.05143 18.3645 10.1209C19.4242 11.1903 19.9541 12.4834 19.9541 14V15.5459C19.9541 16.1487 20.1728 16.6542 20.6103 17.0625C21.0478 17.4709 21.5777 17.675 22.1999 17.675C22.8027 17.675 23.3228 17.4709 23.7603 17.0625C24.1978 16.6542 24.4166 16.1487 24.4166 15.5459V14C24.4166 11.2389 23.4541 8.89587 21.5291 6.97087C19.6041 5.04587 17.261 4.08337 14.4999 4.08337C11.7388 4.08337 9.39575 5.04587 7.47075 6.97087C5.54575 8.89587 4.58325 11.2389 4.58325 14C4.58325 16.7612 5.54575 19.1042 7.47075 21.0292C9.39575 22.9542 11.7388 23.9167 14.4999 23.9167H19.8666C20.1194 23.9167 20.3284 23.9993 20.4937 24.1646C20.6589 24.3299 20.7416 24.5389 20.7416 24.7917C20.7416 25.0445 20.6589 25.2535 20.4937 25.4188C20.3284 25.5841 20.1194 25.6667 19.8666 25.6667H14.4999ZM14.4999 17.675C15.5305 17.675 16.4055 17.3202 17.1249 16.6105C17.8444 15.9007 18.2041 15.0306 18.2041 14C18.2041 12.95 17.8444 12.0653 17.1249 11.3459C16.4055 10.6264 15.5305 10.2667 14.4999 10.2667C13.4694 10.2667 12.5944 10.6264 11.8749 11.3459C11.1555 12.0653 10.7958 12.95 10.7958 14C10.7958 15.0306 11.1555 15.9007 11.8749 16.6105C12.5944 17.3202 13.4694 17.675 14.4999 17.675Z" fill="black"/>
</svg>
