<svg width="29" height="28" viewBox="0 0 29 28" fill="none" xmlns="http://www.w3.org/2000/svg">
<mask id="mask0_1823_49501" style="mask-type:alpha" maskUnits="userSpaceOnUse" x="0" y="0" width="29" height="28">
<rect x="0.5" width="28" height="28" fill="#D9D9D9"/>
</mask>
<g mask="url(#mask0_1823_49501)">
<path d="M14.5 24.5C14.1694 24.5 13.8924 24.3882 13.6687 24.1646C13.4451 23.941 13.3333 23.6639 13.3333 23.3333V18.6667C13.3333 18.3361 13.4451 18.059 13.6687 17.8354C13.8924 17.6118 14.1694 17.5 14.5 17.5C14.8306 17.5 15.1076 17.6118 15.3313 17.8354C15.5549 18.059 15.6667 18.3361 15.6667 18.6667V19.8333H23.8333C24.1639 19.8333 24.441 19.9451 24.6646 20.1688C24.8882 20.3924 25 20.6694 25 21C25 21.3306 24.8882 21.6076 24.6646 21.8312C24.441 22.0549 24.1639 22.1667 23.8333 22.1667H15.6667V23.3333C15.6667 23.6639 15.5549 23.941 15.3313 24.1646C15.1076 24.3882 14.8306 24.5 14.5 24.5ZM5.16667 22.1667C4.83611 22.1667 4.55903 22.0549 4.33542 21.8312C4.11181 21.6076 4 21.3306 4 21C4 20.6694 4.11181 20.3924 4.33542 20.1688C4.55903 19.9451 4.83611 19.8333 5.16667 19.8333H9.83333C10.1639 19.8333 10.441 19.9451 10.6646 20.1688C10.8882 20.3924 11 20.6694 11 21C11 21.3306 10.8882 21.6076 10.6646 21.8312C10.441 22.0549 10.1639 22.1667 9.83333 22.1667H5.16667ZM9.83333 17.5C9.50278 17.5 9.22569 17.3882 9.00208 17.1646C8.77847 16.941 8.66667 16.6639 8.66667 16.3333V15.1667H5.16667C4.83611 15.1667 4.55903 15.0549 4.33542 14.8313C4.11181 14.6076 4 14.3306 4 14C4 13.6694 4.11181 13.3924 4.33542 13.1687C4.55903 12.9451 4.83611 12.8333 5.16667 12.8333H8.66667V11.6667C8.66667 11.3361 8.77847 11.059 9.00208 10.8354C9.22569 10.6118 9.50278 10.5 9.83333 10.5C10.1639 10.5 10.441 10.6118 10.6646 10.8354C10.8882 11.059 11 11.3361 11 11.6667V16.3333C11 16.6639 10.8882 16.941 10.6646 17.1646C10.441 17.3882 10.1639 17.5 9.83333 17.5ZM14.5 15.1667C14.1694 15.1667 13.8924 15.0549 13.6687 14.8313C13.4451 14.6076 13.3333 14.3306 13.3333 14C13.3333 13.6694 13.4451 13.3924 13.6687 13.1687C13.8924 12.9451 14.1694 12.8333 14.5 12.8333H23.8333C24.1639 12.8333 24.441 12.9451 24.6646 13.1687C24.8882 13.3924 25 13.6694 25 14C25 14.3306 24.8882 14.6076 24.6646 14.8313C24.441 15.0549 24.1639 15.1667 23.8333 15.1667H14.5ZM19.1667 10.5C18.8361 10.5 18.559 10.3882 18.3354 10.1646C18.1118 9.94097 18 9.66389 18 9.33333V4.66667C18 4.33611 18.1118 4.05903 18.3354 3.83542C18.559 3.61181 18.8361 3.5 19.1667 3.5C19.4972 3.5 19.7743 3.61181 19.9979 3.83542C20.2215 4.05903 20.3333 4.33611 20.3333 4.66667V5.83333H23.8333C24.1639 5.83333 24.441 5.94514 24.6646 6.16875C24.8882 6.39236 25 6.66944 25 7C25 7.33056 24.8882 7.60764 24.6646 7.83125C24.441 8.05486 24.1639 8.16667 23.8333 8.16667H20.3333V9.33333C20.3333 9.66389 20.2215 9.94097 19.9979 10.1646C19.7743 10.3882 19.4972 10.5 19.1667 10.5ZM5.16667 8.16667C4.83611 8.16667 4.55903 8.05486 4.33542 7.83125C4.11181 7.60764 4 7.33056 4 7C4 6.66944 4.11181 6.39236 4.33542 6.16875C4.55903 5.94514 4.83611 5.83333 5.16667 5.83333H14.5C14.8306 5.83333 15.1076 5.94514 15.3313 6.16875C15.5549 6.39236 15.6667 6.66944 15.6667 7C15.6667 7.33056 15.5549 7.60764 15.3313 7.83125C15.1076 8.05486 14.8306 8.16667 14.5 8.16667H5.16667Z" fill="black"/>
</g>
</svg>
