<svg width="29" height="28" viewBox="0 0 29 28" fill="none" xmlns="http://www.w3.org/2000/svg">
<path d="M23.075 23.8292L16.0458 16.8C15.4625 17.3055 14.7819 17.6993 14.0042 17.9812C13.2264 18.2632 12.4 18.4042 11.525 18.4042C9.425 18.4042 7.64583 17.675 6.1875 16.2167C4.72917 14.7583 4 12.9986 4 10.9375C4 8.87638 4.72917 7.11666 6.1875 5.65833C7.64583 4.19999 9.41528 3.47083 11.4958 3.47083C13.5569 3.47083 15.3118 4.19999 16.7604 5.65833C18.209 7.11666 18.9333 8.87638 18.9333 10.9375C18.9333 11.7736 18.7972 12.5805 18.525 13.3583C18.2528 14.1361 17.8444 14.8653 17.3 15.5458L24.3875 22.575C24.5625 22.7305 24.65 22.9299 24.65 23.1729C24.65 23.416 24.5528 23.6347 24.3583 23.8292C24.1833 24.0042 23.9694 24.0917 23.7167 24.0917C23.4639 24.0917 23.25 24.0042 23.075 23.8292ZM11.4958 16.6542C13.0708 16.6542 14.4125 16.0951 15.5208 14.9771C16.6292 13.859 17.1833 12.5125 17.1833 10.9375C17.1833 9.36249 16.6292 8.01596 15.5208 6.89791C14.4125 5.77985 13.0708 5.22083 11.4958 5.22083C9.90139 5.22083 8.54514 5.77985 7.42708 6.89791C6.30903 8.01596 5.75 9.36249 5.75 10.9375C5.75 12.5125 6.30903 13.859 7.42708 14.9771C8.54514 16.0951 9.90139 16.6542 11.4958 16.6542Z" fill="black"/>
</svg>
