<svg width="29" height="28" viewBox="0 0 29 28" fill="none" xmlns="http://www.w3.org/2000/svg">
<mask id="mask0_1540_15610" style="mask-type:alpha" maskUnits="userSpaceOnUse" x="0" y="0" width="29" height="28">
<rect x="0.5" width="28" height="28" fill="#D9D9D9"/>
</mask>
<g mask="url(#mask0_1540_15610)">
<path d="M19.3712 15.1667H6.33366C6.0031 15.1667 5.72602 15.0549 5.50241 14.8313C5.2788 14.6076 5.16699 14.3306 5.16699 14C5.16699 13.6694 5.2788 13.3924 5.50241 13.1688C5.72602 12.9451 6.0031 12.8333 6.33366 12.8333H19.3712L13.6545 7.11667C13.4212 6.88334 13.3094 6.61112 13.3191 6.30001C13.3288 5.98889 13.4503 5.71667 13.6837 5.48334C13.917 5.26945 14.1892 5.15764 14.5003 5.14792C14.8114 5.1382 15.0837 5.25001 15.317 5.48334L23.017 13.1833C23.1337 13.3 23.2163 13.4264 23.2649 13.5625C23.3135 13.6986 23.3378 13.8444 23.3378 14C23.3378 14.1556 23.3135 14.3014 23.2649 14.4375C23.2163 14.5736 23.1337 14.7 23.017 14.8167L15.317 22.5167C15.1031 22.7306 14.8357 22.8375 14.5149 22.8375C14.1941 22.8375 13.917 22.7306 13.6837 22.5167C13.4503 22.2833 13.3337 22.0063 13.3337 21.6854C13.3337 21.3646 13.4503 21.0875 13.6837 20.8542L19.3712 15.1667Z" fill="black"/>
</g>
</svg>
