<svg width="29" height="28" viewBox="0 0 29 28" fill="none" xmlns="http://www.w3.org/2000/svg">
<path d="M7.55843 25.6667C7.30565 25.6667 7.09662 25.5841 6.93135 25.4188C6.76607 25.2535 6.68343 25.0445 6.68343 24.7917V16.9167H6.1001C5.84732 16.9167 5.63829 16.8341 5.47301 16.6688C5.30774 16.5035 5.2251 16.2945 5.2251 16.0417V10.2667C5.2251 9.70282 5.43413 9.21185 5.85218 8.79379C6.27024 8.37574 6.76121 8.16671 7.3251 8.16671H10.3584C10.9223 8.16671 11.4133 8.37574 11.8313 8.79379C12.2494 9.21185 12.4584 9.70282 12.4584 10.2667V16.0417C12.4584 16.2945 12.3758 16.5035 12.2105 16.6688C12.0452 16.8341 11.8362 16.9167 11.5834 16.9167H11.0001V24.7917C11.0001 25.0445 10.9175 25.2535 10.7522 25.4188C10.5869 25.5841 10.3779 25.6667 10.1251 25.6667H7.55843ZM19.7501 25.6667C19.4973 25.6667 19.2883 25.5841 19.123 25.4188C18.9577 25.2535 18.8751 25.0445 18.8751 24.7917V18.6667H16.9793C16.707 18.6667 16.4834 18.55 16.3084 18.3167C16.1334 18.0834 16.0848 17.8306 16.1626 17.5584L18.3501 9.59587C18.4862 9.12921 18.7438 8.77435 19.123 8.53129C19.5022 8.28824 19.9445 8.16671 20.4501 8.16671C20.9557 8.16671 21.398 8.28824 21.7772 8.53129C22.1563 8.77435 22.414 9.12921 22.5501 9.59587L24.7376 17.5584C24.8154 17.8306 24.7668 18.0834 24.5918 18.3167C24.4168 18.55 24.1932 18.6667 23.9209 18.6667H22.0251V24.7917C22.0251 25.0445 21.9425 25.2535 21.7772 25.4188C21.6119 25.5841 21.4029 25.6667 21.1501 25.6667H19.7501ZM8.84176 6.59171C8.25843 6.59171 7.75774 6.38268 7.33968 5.96462C6.92163 5.54657 6.7126 5.04587 6.7126 4.46254C6.7126 3.87921 6.92163 3.37851 7.33968 2.96046C7.75774 2.5424 8.25843 2.33337 8.84176 2.33337C9.4251 2.33337 9.92579 2.5424 10.3438 2.96046C10.7619 3.37851 10.9709 3.87921 10.9709 4.46254C10.9709 5.04587 10.7619 5.54657 10.3438 5.96462C9.92579 6.38268 9.4251 6.59171 8.84176 6.59171ZM20.4501 6.59171C19.8668 6.59171 19.3661 6.38268 18.948 5.96462C18.53 5.54657 18.3209 5.04587 18.3209 4.46254C18.3209 3.87921 18.53 3.37851 18.948 2.96046C19.3661 2.5424 19.8668 2.33337 20.4501 2.33337C21.0334 2.33337 21.5341 2.5424 21.9522 2.96046C22.3702 3.37851 22.5793 3.87921 22.5793 4.46254C22.5793 5.04587 22.3702 5.54657 21.9522 5.96462C21.5341 6.38268 21.0334 6.59171 20.4501 6.59171Z" fill="black"/>
</svg>
