<svg width="29" height="28" viewBox="0 0 29 28" fill="none" xmlns="http://www.w3.org/2000/svg">
<mask id="mask0_1089_2897" style="mask-type:alpha" maskUnits="userSpaceOnUse" x="0" y="0" width="29" height="28">
<rect x="0.5" width="28" height="28" fill="#D9D9D9"/>
</mask>
<g mask="url(#mask0_1089_2897)">
<path d="M1.78216 21.2637C1.35263 21.2637 0.987564 21.1135 0.686953 20.8131C0.386536 20.5125 0.236328 20.1474 0.236328 19.7179V19.1626C0.236328 18.2386 0.691523 17.4921 1.60191 16.9231C2.51249 16.3542 3.70074 16.0697 5.16666 16.0697C5.33155 16.0697 5.4839 16.0718 5.6237 16.0758C5.7637 16.0801 5.90769 16.0907 6.05566 16.1076C5.75038 16.5599 5.52424 17.0364 5.37724 17.5371C5.23005 18.0376 5.15645 18.56 5.15645 19.1042V21.2637H1.78216ZM8.78216 21.2637C8.35263 21.2637 7.98756 21.1135 7.68695 20.8131C7.38654 20.5125 7.23633 20.1474 7.23633 19.7179V19.1042C7.23633 18.4489 7.40919 17.8445 7.75491 17.2909C8.10063 16.7372 8.60113 16.2548 9.25641 15.844C9.91149 15.4331 10.6855 15.1249 11.5784 14.9194C12.4711 14.7141 13.4447 14.6114 14.4994 14.6114C15.5743 14.6114 16.5554 14.7141 17.4426 14.9194C18.3299 15.1249 19.1011 15.4331 19.7564 15.844C20.4115 16.2548 20.9099 16.7372 21.2515 17.2909C21.5929 17.8445 21.7637 18.4489 21.7637 19.1042V19.7179C21.7637 20.1474 21.6135 20.5125 21.313 20.8131C21.0124 21.1135 20.6474 21.2637 20.2178 21.2637H8.78216ZM23.8435 21.2637V19.1042C23.8435 18.5396 23.7721 18.0076 23.6292 17.5082C23.4862 17.0089 23.272 16.542 22.9863 16.1076C23.1343 16.0907 23.2767 16.0801 23.4136 16.0758C23.5505 16.0718 23.6904 16.0697 23.8333 16.0697C25.3125 16.0697 26.504 16.3514 27.408 16.9147C28.3118 17.478 28.7637 18.2273 28.7637 19.1626V19.7179C28.7637 20.1474 28.6135 20.5125 28.313 20.8131C28.0124 21.1135 27.6474 21.2637 27.2178 21.2637H23.8435ZM5.16812 14.969C4.48154 14.969 3.89324 14.7247 3.40324 14.236C2.91344 13.7472 2.66854 13.1597 2.66854 12.4735C2.66854 11.7665 2.91286 11.1729 3.40149 10.6928C3.89013 10.2126 4.47755 9.97243 5.16374 9.97243C5.87074 9.97243 6.46438 10.2117 6.94466 10.6902C7.42474 11.1688 7.66479 11.7617 7.66479 12.4691C7.66479 13.1559 7.42552 13.7442 6.94699 14.234C6.46847 14.724 5.87551 14.969 5.16812 14.969ZM23.8348 14.969C23.1482 14.969 22.5599 14.7247 22.0699 14.236C21.5801 13.7472 21.3352 13.1597 21.3352 12.4735C21.3352 11.7665 21.5795 11.1729 22.0682 10.6928C22.5568 10.2126 23.1442 9.97243 23.8304 9.97243C24.5374 9.97243 25.1311 10.2117 25.6113 10.6902C26.0914 11.1688 26.3315 11.7617 26.3315 12.4691C26.3315 13.1559 26.0922 13.7442 25.6137 14.234C25.1351 14.724 24.5422 14.969 23.8348 14.969ZM14.5 13.7527C13.4545 13.7527 12.5658 13.3868 11.8339 12.6549C11.1022 11.9232 10.7363 11.0346 10.7363 9.98906C10.7363 8.93147 11.1022 8.03975 11.8339 7.31389C12.5658 6.58803 13.4545 6.2251 14.5 6.2251C15.5576 6.2251 16.4493 6.58803 17.1752 7.31389C17.9008 8.03975 18.2637 8.93147 18.2637 9.98906C18.2637 11.0346 17.9008 11.9232 17.1752 12.6549C16.4493 13.3868 15.5576 13.7527 14.5 13.7527Z" fill="black"/>
</g>
</svg>
