<svg width="29" height="28" viewBox="0 0 29 28" fill="none" xmlns="http://www.w3.org/2000/svg">
<mask id="mask0_1111_3102" style="mask-type:alpha" maskUnits="userSpaceOnUse" x="0" y="0" width="29" height="28">
<rect x="0.5" width="28" height="28" fill="#D9D9D9"/>
</mask>
<g mask="url(#mask0_1111_3102)">
<path d="M22.5031 25.6655L18.7989 22.003C18.1075 22.2389 17.4008 22.4103 16.6788 22.5172C15.9568 22.6242 15.2306 22.6776 14.5001 22.6776C11.8286 22.6776 9.38073 21.9667 7.15648 20.5447C4.93223 19.1227 3.19108 17.2315 1.93302 14.8712C1.80275 14.6412 1.71058 14.4064 1.65652 14.1668C1.60247 13.9271 1.57544 13.677 1.57544 13.4166C1.57544 13.1563 1.60247 12.9062 1.65652 12.6665C1.71058 12.4269 1.80275 12.1921 1.93302 11.9621C2.32775 11.2477 2.75718 10.5528 3.22131 9.87726C3.68545 9.20176 4.21638 8.58207 4.81411 8.01818L2.55806 5.7496C2.31131 5.50265 2.18794 5.20505 2.18794 4.8568C2.18794 4.50855 2.31559 4.20678 2.5709 3.95147C2.81784 3.70453 3.1203 3.58105 3.47827 3.58105C3.83625 3.58105 4.1387 3.70453 4.38565 3.95147L24.3012 23.8671C24.5482 24.114 24.6738 24.4116 24.6781 24.7598C24.6821 25.1083 24.5565 25.4102 24.3012 25.6655C24.0545 25.9122 23.7548 26.0356 23.4023 26.0356C23.0498 26.0356 22.7501 25.9122 22.5031 25.6655ZM14.5001 18.6666C14.6589 18.6666 14.8109 18.6596 14.9559 18.6456C15.101 18.6318 15.2488 18.6012 15.3993 18.5538L9.32998 12.5174C9.29362 12.6679 9.27116 12.8157 9.26261 12.9608C9.25424 13.1058 9.25006 13.2578 9.25006 13.4166C9.25006 14.875 9.76048 16.1146 10.7813 17.1354C11.8021 18.1562 13.0417 18.6666 14.5001 18.6666ZM14.5001 4.15564C17.1715 4.15564 19.6243 4.87148 21.8582 6.30318C24.0922 7.73487 25.8382 9.63644 27.0963 12.0079C27.2155 12.2294 27.3049 12.4572 27.3646 12.6913C27.4241 12.9254 27.4539 13.1672 27.4539 13.4166C27.4539 13.6661 27.429 13.9106 27.3792 14.1502C27.3292 14.3899 27.2446 14.6205 27.1254 14.842C26.811 15.4516 26.4637 16.036 26.0836 16.5952C25.7037 17.1544 25.2812 17.683 24.8163 18.181C24.4782 18.552 24.0666 18.7306 23.5817 18.7168C23.0969 18.7028 22.6744 18.5157 22.3141 18.1556L19.9644 15.8057C19.7844 15.6256 19.6694 15.4158 19.6194 15.1763C19.5696 14.9365 19.5739 14.6919 19.6322 14.4424C19.677 14.2667 19.7078 14.0978 19.7247 13.9358C19.7416 13.774 19.7501 13.601 19.7501 13.4166C19.7501 11.9583 19.2396 10.7187 18.2188 9.69789C17.198 8.67705 15.9584 8.16664 14.5001 8.16664C14.3157 8.16664 14.1427 8.17782 13.9809 8.20018C13.8189 8.22254 13.6501 8.25618 13.4743 8.3011C13.2248 8.34835 12.9781 8.34708 12.7343 8.2973C12.4903 8.24733 12.2782 8.13232 12.0982 7.95226L11.3667 7.22076C10.8872 6.74126 10.7326 6.18155 10.9029 5.54164C11.0735 4.90172 11.4787 4.50817 12.1186 4.36097C12.5168 4.2968 12.9116 4.24654 13.3031 4.21018C13.6945 4.17382 14.0935 4.15564 14.5001 4.15564ZM16.5076 11.3572C16.6225 11.489 16.7199 11.6343 16.7999 11.7929C16.8798 11.9514 16.9336 12.1189 16.9614 12.2955C16.9809 12.3851 16.9445 12.4508 16.8524 12.4926C16.7602 12.5346 16.6777 12.5193 16.605 12.4466L15.3675 11.2087C15.2948 11.1362 15.2814 11.0538 15.3275 10.9617C15.3736 10.8695 15.4469 10.8289 15.5474 10.8398C15.7411 10.8678 15.9166 10.9259 16.0739 11.0142C16.231 11.1025 16.3756 11.2168 16.5076 11.3572Z" fill="black"/>
</g>
</svg>
