<svg width="29" height="28" viewBox="0 0 29 28" fill="none" xmlns="http://www.w3.org/2000/svg">
<mask id="mask0_1851_45944" style="mask-type:alpha" maskUnits="userSpaceOnUse" x="0" y="0" width="29" height="28">
<rect width="28" height="28" transform="matrix(-1 0 0 1 28.5 0)" fill="#D9D9D9"/>
</mask>
<g mask="url(#mask0_1851_45944)">
<path d="M14.5 24.5C16.95 24.5 19.1181 23.7562 21.0042 22.2687C22.8903 20.7812 24.1153 18.8806 24.6792 16.5667C24.7569 16.275 24.6986 16.0076 24.5042 15.7646C24.3097 15.5215 24.0472 15.3806 23.7167 15.3417C23.4056 15.3028 23.1236 15.3611 22.8708 15.5167C22.6181 15.6722 22.4431 15.9056 22.3458 16.2167C21.8792 17.9667 20.9167 19.3958 19.4583 20.5042C18 21.6125 16.3472 22.1667 14.5 22.1667C12.225 22.1667 10.2951 21.3743 8.71042 19.7896C7.12569 18.2049 6.33333 16.275 6.33333 14C6.33333 11.725 7.12569 9.79514 8.71042 8.21042C10.2951 6.62569 12.225 5.83333 14.5 5.83333C15.8417 5.83333 17.0958 6.14444 18.2625 6.76667C19.4292 7.38889 20.4111 8.24444 21.2083 9.33333H19.1667C18.8361 9.33333 18.559 9.44514 18.3354 9.66875C18.1118 9.89236 18 10.1694 18 10.5C18 10.8306 18.1118 11.1076 18.3354 11.3312C18.559 11.5549 18.8361 11.6667 19.1667 11.6667H23.8333C24.1639 11.6667 24.441 11.5549 24.6646 11.3312C24.8882 11.1076 25 10.8306 25 10.5V5.83333C25 5.50278 24.8882 5.22569 24.6646 5.00208C24.441 4.77847 24.1639 4.66667 23.8333 4.66667C23.5028 4.66667 23.2257 4.77847 23.0021 5.00208C22.7785 5.22569 22.6667 5.50278 22.6667 5.83333V7.40833C21.675 6.16389 20.4646 5.20139 19.0354 4.52083C17.6062 3.84028 16.0944 3.5 14.5 3.5C13.0417 3.5 11.6757 3.77708 10.4021 4.33125C9.12847 4.88542 8.02014 5.63403 7.07708 6.57708C6.13403 7.52014 5.38542 8.62847 4.83125 9.90208C4.27708 11.1757 4 12.5417 4 14C4 15.4583 4.27708 16.8243 4.83125 18.0979C5.38542 19.3715 6.13403 20.4799 7.07708 21.4229C8.02014 22.366 9.12847 23.1146 10.4021 23.6687C11.6757 24.2229 13.0417 24.5 14.5 24.5ZM13.3333 13.5333L10.4167 16.45C10.2028 16.6639 10.0958 16.9361 10.0958 17.2667C10.0958 17.5972 10.2028 17.8694 10.4167 18.0833C10.6306 18.2972 10.9028 18.4042 11.2333 18.4042C11.5639 18.4042 11.8361 18.2972 12.05 18.0833L15.3167 14.8167C15.4333 14.7 15.5208 14.5687 15.5792 14.4229C15.6375 14.2771 15.6667 14.1264 15.6667 13.9708V9.33333C15.6667 9.00278 15.5549 8.72569 15.3313 8.50208C15.1076 8.27847 14.8306 8.16667 14.5 8.16667C14.1694 8.16667 13.8924 8.27847 13.6687 8.50208C13.4451 8.72569 13.3333 9.00278 13.3333 9.33333V13.5333Z" fill="black"/>
</g>
</svg>
