<svg width="29" height="28" viewBox="0 0 29 28" fill="none" xmlns="http://www.w3.org/2000/svg">
<g clip-path="url(#clip0_246_824)">
<mask id="mask0_246_824" style="mask-type:alpha" maskUnits="userSpaceOnUse" x="0" y="0" width="28" height="28">
<rect width="28" height="28" fill="#D9D9D9"/>
</mask>
<g mask="url(#mask0_246_824)">
<path d="M4.66675 22.1667V11.6667C4.66675 11.2973 4.74939 10.9473 4.91466 10.6167C5.07994 10.2862 5.30841 10.0139 5.60008 9.80004L12.6001 4.55004C13.0084 4.23893 13.4751 4.08337 14.0001 4.08337C14.5251 4.08337 14.9917 4.23893 15.4001 4.55004L22.4001 9.80004C22.6917 10.0139 22.9202 10.2862 23.0855 10.6167C23.2508 10.9473 23.3334 11.2973 23.3334 11.6667V22.1667C23.3334 22.8084 23.1049 23.3577 22.648 23.8146C22.1911 24.2716 21.6417 24.5 21.0001 24.5H17.5001C17.1695 24.5 16.8924 24.3882 16.6688 24.1646C16.4452 23.941 16.3334 23.6639 16.3334 23.3334V17.5C16.3334 17.1695 16.2216 16.8924 15.998 16.6688C15.7744 16.4452 15.4973 16.3334 15.1667 16.3334H12.8334C12.5029 16.3334 12.2258 16.4452 12.0022 16.6688C11.7786 16.8924 11.6667 17.1695 11.6667 17.5V23.3334C11.6667 23.6639 11.5549 23.941 11.3313 24.1646C11.1077 24.3882 10.8306 24.5 10.5001 24.5H7.00008C6.35841 24.5 5.80911 24.2716 5.35216 23.8146C4.89522 23.3577 4.66675 22.8084 4.66675 22.1667Z" fill="black"/>
</g>
</g>
<defs>
<clipPath id="clip0_246_824">
<rect width="28" height="28" fill="white" transform="translate(0.5)"/>
</clipPath>
</defs>
</svg>
