<svg width="29" height="28" viewBox="0 0 29 28" fill="none" xmlns="http://www.w3.org/2000/svg">
<path d="M14.5874 19.8334C14.8402 19.8334 15.0492 19.7507 15.2145 19.5855C15.3798 19.4202 15.4624 19.2112 15.4624 18.9584V13.6792C15.4624 13.4459 15.3749 13.2466 15.1999 13.0813C15.0249 12.916 14.8208 12.8334 14.5874 12.8334C14.3346 12.8334 14.1256 12.916 13.9603 13.0813C13.7951 13.2466 13.7124 13.4556 13.7124 13.7084V18.9875C13.7124 19.2209 13.7999 19.4202 13.9749 19.5855C14.1499 19.7507 14.3541 19.8334 14.5874 19.8334ZM14.4999 10.675C14.7721 10.675 15.0006 10.5875 15.1853 10.4125C15.3701 10.2375 15.4624 10.0139 15.4624 9.74171C15.4624 9.46949 15.3701 9.23615 15.1853 9.04171C15.0006 8.84726 14.7721 8.75004 14.4999 8.75004C14.2277 8.75004 13.9992 8.84726 13.8145 9.04171C13.6298 9.23615 13.5374 9.46949 13.5374 9.74171C13.5374 10.0139 13.6298 10.2375 13.8145 10.4125C13.9992 10.5875 14.2277 10.675 14.4999 10.675ZM14.4999 25.6667C12.8471 25.6667 11.311 25.3702 9.89159 24.7771C8.47214 24.1841 7.23742 23.3625 6.18742 22.3125C5.13742 21.2625 4.31589 20.0278 3.72284 18.6084C3.12978 17.1889 2.83325 15.6528 2.83325 14C2.83325 12.3667 3.12978 10.8403 3.72284 9.42087C4.31589 8.00143 5.13742 6.76671 6.18742 5.71671C7.23742 4.66671 8.47214 3.84032 9.89159 3.23754C11.311 2.63476 12.8471 2.33337 14.4999 2.33337C16.1333 2.33337 17.6596 2.63476 19.0791 3.23754C20.4985 3.84032 21.7333 4.66671 22.7833 5.71671C23.8333 6.76671 24.6596 8.00143 25.2624 9.42087C25.8652 10.8403 26.1666 12.3667 26.1666 14C26.1666 15.6528 25.8652 17.1889 25.2624 18.6084C24.6596 20.0278 23.8333 21.2625 22.7833 22.3125C21.7333 23.3625 20.4985 24.1841 19.0791 24.7771C17.6596 25.3702 16.1333 25.6667 14.4999 25.6667Z" fill="black"/>
</svg>
