<svg width="29" height="28" viewBox="0 0 29 28" fill="none" xmlns="http://www.w3.org/2000/svg">
<path d="M18.8458 15.7792L17.5625 14.4959C18.0681 13.1153 17.8056 11.9681 16.775 11.0542C15.7445 10.1403 14.6264 9.90697 13.4208 10.3542L12.1375 9.07086C12.4681 8.85697 12.8375 8.70141 13.2458 8.60419C13.6542 8.50697 14.0722 8.45836 14.5 8.45836C15.8806 8.45836 17.0521 8.93961 18.0146 9.90211C18.9771 10.8646 19.4583 12.0361 19.4583 13.4167C19.4583 13.8445 19.4049 14.2674 19.2979 14.6854C19.191 15.1035 19.0403 15.4681 18.8458 15.7792ZM22.6084 19.5417L21.4417 18.375C22.3945 17.675 23.2257 16.8924 23.9354 16.0271C24.6452 15.1618 25.1653 14.2917 25.4958 13.4167C24.5236 11.2584 23.0653 9.55211 21.1208 8.29794C19.1764 7.04377 17.0667 6.41669 14.7917 6.41669C13.975 6.41669 13.1389 6.49447 12.2833 6.65002C11.4278 6.80558 10.757 6.9903 10.2708 7.20419L8.92918 5.83336C9.60974 5.52225 10.4799 5.25002 11.5396 5.01669C12.5993 4.78336 13.6347 4.66669 14.6458 4.66669C17.2708 4.66669 19.6917 5.38614 21.9083 6.82502C24.125 8.26391 25.8167 10.1986 26.9834 12.6292C27.0417 12.7264 27.0806 12.8431 27.1 12.9792C27.1195 13.1153 27.1292 13.2611 27.1292 13.4167C27.1292 13.5722 27.1195 13.7229 27.1 13.8688C27.0806 14.0146 27.0417 14.1361 26.9834 14.2334C26.4778 15.3028 25.8556 16.2847 25.1167 17.1792C24.3778 18.0736 23.5417 18.8611 22.6084 19.5417ZM23.6583 25.4917L19.4 21.3209C18.7195 21.5931 17.9514 21.8021 17.0958 21.9479C16.2403 22.0938 15.375 22.1667 14.5 22.1667C11.8167 22.1667 9.35696 21.4472 7.12085 20.0084C4.88474 18.5695 3.18335 16.6347 2.01668 14.2042C1.95835 14.0875 1.91946 13.966 1.90002 13.8396C1.88057 13.7132 1.87085 13.5722 1.87085 13.4167C1.87085 13.2611 1.88543 13.1104 1.9146 12.9646C1.94377 12.8188 1.97779 12.6972 2.01668 12.6C2.42502 11.725 2.94516 10.8743 3.5771 10.0479C4.20904 9.22155 4.95279 8.43891 5.80835 7.70002L2.74585 4.63752C2.57085 4.46252 2.48335 4.25836 2.48335 4.02502C2.48335 3.79169 2.57085 3.58752 2.74585 3.41252C2.92085 3.23752 3.12988 3.15002 3.37293 3.15002C3.61599 3.15002 3.82502 3.23752 4.00002 3.41252L24.8833 24.2959C25.0389 24.4514 25.1167 24.641 25.1167 24.8646C25.1167 25.0882 25.0389 25.2875 24.8833 25.4625C24.7278 25.657 24.5285 25.7542 24.2854 25.7542C24.0424 25.7542 23.8334 25.6667 23.6583 25.4917ZM7.00418 8.92502C6.28474 9.45002 5.5896 10.1403 4.91877 10.9959C4.24793 11.8514 3.76668 12.6584 3.47502 13.4167C4.46668 15.575 5.95904 17.2813 7.9521 18.5354C9.94515 19.7896 12.2056 20.4167 14.7333 20.4167C15.375 20.4167 16.007 20.3778 16.6292 20.3C17.2514 20.2222 17.7181 20.1056 18.0292 19.95L16.1625 18.0834C15.9486 18.1806 15.6861 18.2535 15.375 18.3021C15.0639 18.3507 14.7722 18.375 14.5 18.375C13.1389 18.375 11.9722 17.8986 11 16.9459C10.0278 15.9931 9.54168 14.8167 9.54168 13.4167C9.54168 13.125 9.56599 12.8334 9.6146 12.5417C9.66321 12.25 9.73613 11.9875 9.83335 11.7542L7.00418 8.92502Z" fill="black"/>
</svg>
