<svg width="29" height="28" viewBox="0 0 29 28" fill="none" xmlns="http://www.w3.org/2000/svg">
<mask id="mask0_1247_7485" style="mask-type:alpha" maskUnits="userSpaceOnUse" x="0" y="0" width="29" height="28">
<rect x="0.5" width="28" height="28" fill="#D9D9D9"/>
</mask>
<g mask="url(#mask0_1247_7485)">
<path d="M8.66675 21C6.7223 21 5.06953 20.3194 3.70841 18.9583C2.3473 17.5972 1.66675 15.9444 1.66675 14C1.66675 12.0556 2.3473 10.4028 3.70841 9.04167C5.06953 7.68056 6.7223 7 8.66675 7C10.2417 7 11.6174 7.44236 12.7938 8.32708C13.9702 9.21181 14.7917 10.325 15.2584 11.6667H25.0001C25.6417 11.6667 26.1911 11.8951 26.648 12.3521C27.1049 12.809 27.3334 13.3583 27.3334 14C27.3334 14.7 27.0904 15.2639 26.6042 15.6917C26.1181 16.1194 25.5834 16.3333 25.0001 16.3333V18.6667C25.0001 19.3083 24.7716 19.8576 24.3147 20.3146C23.8577 20.7715 23.3084 21 22.6667 21C22.0251 21 21.4758 20.7715 21.0188 20.3146C20.5619 19.8576 20.3334 19.3083 20.3334 18.6667V16.3333H15.2584C14.7917 17.675 13.9702 18.7882 12.7938 19.6729C11.6174 20.5576 10.2417 21 8.66675 21ZM8.66675 16.3333C9.30841 16.3333 9.85772 16.1049 10.3147 15.6479C10.7716 15.191 11.0001 14.6417 11.0001 14C11.0001 13.3583 10.7716 12.809 10.3147 12.3521C9.85772 11.8951 9.30841 11.6667 8.66675 11.6667C8.02508 11.6667 7.47578 11.8951 7.01883 12.3521C6.56189 12.809 6.33341 13.3583 6.33341 14C6.33341 14.6417 6.56189 15.191 7.01883 15.6479C7.47578 16.1049 8.02508 16.3333 8.66675 16.3333Z" fill="black"/>
</g>
</svg>
