<svg width="29" height="28" viewBox="0 0 29 28" fill="none" xmlns="http://www.w3.org/2000/svg">
<mask id="mask0_1275_794" style="mask-type:alpha" maskUnits="userSpaceOnUse" x="0" y="0" width="29" height="28">
<rect x="0.5" width="28" height="28" fill="#D9D9D9"/>
</mask>
<g mask="url(#mask0_1275_794)">
<path d="M14.4999 25.6667C12.9055 25.6667 11.3985 25.3605 9.97909 24.748C8.55964 24.1355 7.32006 23.2993 6.26034 22.2396C5.20061 21.1799 4.3645 19.9403 3.752 18.5209C3.1395 17.1014 2.83325 15.5945 2.83325 14C2.83325 12.3862 3.1395 10.8743 3.752 9.46462C4.3645 8.0549 5.20061 6.82018 6.26034 5.76046C7.32006 4.70074 8.55964 3.86462 9.97909 3.25212C11.3985 2.63962 12.9055 2.33337 14.4999 2.33337C16.1138 2.33337 17.6256 2.63962 19.0353 3.25212C20.4451 3.86462 21.6798 4.70074 22.7395 5.76046C23.7992 6.82018 24.6353 8.0549 25.2478 9.46462C25.8603 10.8743 26.1666 12.3862 26.1666 14C26.1666 15.5945 25.8603 17.1014 25.2478 18.5209C24.6353 19.9403 23.7992 21.1799 22.7395 22.2396C21.6798 23.2993 20.4451 24.1355 19.0353 24.748C17.6256 25.3605 16.1138 25.6667 14.4999 25.6667ZM14.4999 23.275C15.0055 22.575 15.443 21.8459 15.8124 21.0875C16.1819 20.3292 16.4833 19.5223 16.7166 18.6667H12.2833C12.5166 19.5223 12.818 20.3292 13.1874 21.0875C13.5569 21.8459 13.9944 22.575 14.4999 23.275ZM11.4666 22.8084C11.1166 22.1667 10.8103 21.5007 10.5478 20.8105C10.2853 20.1202 10.0666 19.4056 9.89159 18.6667H6.44992C7.01381 19.6389 7.71867 20.4848 8.5645 21.2042C9.41034 21.9237 10.3777 22.4584 11.4666 22.8084ZM17.5333 22.8084C18.6221 22.4584 19.5895 21.9237 20.4353 21.2042C21.2812 20.4848 21.986 19.6389 22.5499 18.6667H19.1083C18.9333 19.4056 18.7145 20.1202 18.452 20.8105C18.1895 21.5007 17.8833 22.1667 17.5333 22.8084ZM5.45825 16.3334H9.42492C9.36659 15.9445 9.32284 15.5605 9.29367 15.1813C9.2645 14.8021 9.24992 14.4084 9.24992 14C9.24992 13.5917 9.2645 13.198 9.29367 12.8188C9.32284 12.4396 9.36659 12.0556 9.42492 11.6667H5.45825C5.36103 12.0556 5.28811 12.4396 5.2395 12.8188C5.19089 13.198 5.16659 13.5917 5.16659 14C5.16659 14.4084 5.19089 14.8021 5.2395 15.1813C5.28811 15.5605 5.36103 15.9445 5.45825 16.3334ZM11.7583 16.3334H17.2416C17.2999 15.9445 17.3437 15.5605 17.3728 15.1813C17.402 14.8021 17.4166 14.4084 17.4166 14C17.4166 13.5917 17.402 13.198 17.3728 12.8188C17.3437 12.4396 17.2999 12.0556 17.2416 11.6667H11.7583C11.6999 12.0556 11.6562 12.4396 11.627 12.8188C11.5978 13.198 11.5833 13.5917 11.5833 14C11.5833 14.4084 11.5978 14.8021 11.627 15.1813C11.6562 15.5605 11.6999 15.9445 11.7583 16.3334ZM19.5749 16.3334H23.5416C23.6388 15.9445 23.7117 15.5605 23.7603 15.1813C23.8089 14.8021 23.8333 14.4084 23.8333 14C23.8333 13.5917 23.8089 13.198 23.7603 12.8188C23.7117 12.4396 23.6388 12.0556 23.5416 11.6667H19.5749C19.6333 12.0556 19.677 12.4396 19.7062 12.8188C19.7353 13.198 19.7499 13.5917 19.7499 14C19.7499 14.4084 19.7353 14.8021 19.7062 15.1813C19.677 15.5605 19.6333 15.9445 19.5749 16.3334ZM19.1083 9.33337H22.5499C21.986 8.36115 21.2812 7.51532 20.4353 6.79587C19.5895 6.07643 18.6221 5.54171 17.5333 5.19171C17.8833 5.83337 18.1895 6.49935 18.452 7.18962C18.7145 7.8799 18.9333 8.59449 19.1083 9.33337ZM12.2833 9.33337H16.7166C16.4833 8.47782 16.1819 7.67087 15.8124 6.91254C15.443 6.15421 15.0055 5.42504 14.4999 4.72504C13.9944 5.42504 13.5569 6.15421 13.1874 6.91254C12.818 7.67087 12.5166 8.47782 12.2833 9.33337ZM6.44992 9.33337H9.89159C10.0666 8.59449 10.2853 7.8799 10.5478 7.18962C10.8103 6.49935 11.1166 5.83337 11.4666 5.19171C10.3777 5.54171 9.41034 6.07643 8.5645 6.79587C7.71867 7.51532 7.01381 8.36115 6.44992 9.33337Z" fill="black"/>
</g>
</svg>
