<svg width="29" height="28" viewBox="0 0 29 28" fill="none" xmlns="http://www.w3.org/2000/svg">
<mask id="mask0_1089_3672" style="mask-type:alpha" maskUnits="userSpaceOnUse" x="0" y="0" width="29" height="28">
<rect x="0.5" width="28" height="28" fill="#D9D9D9"/>
</mask>
<g mask="url(#mask0_1089_3672)">
<path d="M15.0338 10.6838V17.3163C15.0338 17.6653 15.1917 17.9077 15.5075 18.0434C15.8232 18.1791 16.1059 18.1223 16.3553 17.8728L19.1311 15.097C19.4415 14.7867 19.5966 14.421 19.5966 14C19.5966 13.5791 19.4415 13.2134 19.1311 12.9031L16.3553 10.1273C16.1059 9.87781 15.8232 9.82094 15.5075 9.95666C15.1917 10.0924 15.0338 10.3348 15.0338 10.6838ZM6.53112 25.0606C5.66973 25.0606 4.93911 24.7607 4.33924 24.1608C3.73938 23.561 3.43945 22.8303 3.43945 21.969V6.03112C3.43945 5.16973 3.73938 4.43911 4.33924 3.83924C4.93911 3.23938 5.66973 2.93945 6.53112 2.93945H22.469C23.3303 2.93945 24.061 3.23938 24.6608 3.83924C25.2607 4.43911 25.5606 5.16973 25.5606 6.03112V21.969C25.5606 22.8303 25.2607 23.561 24.6608 24.1608C24.061 24.7607 23.3303 25.0606 22.469 25.0606H6.53112ZM12.7932 21.969H22.469V6.03112H12.7932V21.969Z" fill="black"/>
</g>
</svg>
