<svg width="29" height="28" viewBox="0 0 29 28" fill="none" xmlns="http://www.w3.org/2000/svg">
<mask id="mask0_1216_4328" style="mask-type:alpha" maskUnits="userSpaceOnUse" x="0" y="0" width="29" height="28">
<rect x="0.5" width="28" height="28" fill="#D9D9D9"/>
</mask>
<g mask="url(#mask0_1216_4328)">
<path d="M7.50008 25.6666C6.85841 25.6666 6.30911 25.4382 5.85216 24.9812C5.39522 24.5243 5.16675 23.975 5.16675 23.3333V11.6666C5.16675 11.025 5.39522 10.4757 5.85216 10.0187C6.30911 9.56176 6.85841 9.33329 7.50008 9.33329H8.66675V6.99996C8.66675 5.38607 9.2355 4.01038 10.373 2.87288C11.5105 1.73538 12.8862 1.16663 14.5001 1.16663C16.114 1.16663 17.4897 1.73538 18.6272 2.87288C19.7647 4.01038 20.3334 5.38607 20.3334 6.99996V9.33329H21.5001C22.1417 9.33329 22.6911 9.56176 23.148 10.0187C23.6049 10.4757 23.8334 11.025 23.8334 11.6666V23.3333C23.8334 23.975 23.6049 24.5243 23.148 24.9812C22.6911 25.4382 22.1417 25.6666 21.5001 25.6666H7.50008ZM14.5001 19.8333C15.1417 19.8333 15.6911 19.6048 16.148 19.1479C16.6049 18.6909 16.8334 18.1416 16.8334 17.5C16.8334 16.8583 16.6049 16.309 16.148 15.852C15.6911 15.3951 15.1417 15.1666 14.5001 15.1666C13.8584 15.1666 13.3091 15.3951 12.8522 15.852C12.3952 16.309 12.1667 16.8583 12.1667 17.5C12.1667 18.1416 12.3952 18.6909 12.8522 19.1479C13.3091 19.6048 13.8584 19.8333 14.5001 19.8333ZM11.0001 9.33329H18.0001V6.99996C18.0001 6.02774 17.6598 5.20135 16.9792 4.52079C16.2987 3.84024 15.4723 3.49996 14.5001 3.49996C13.5279 3.49996 12.7015 3.84024 12.0209 4.52079C11.3404 5.20135 11.0001 6.02774 11.0001 6.99996V9.33329Z" fill="black"/>
</g>
</svg>
