<svg width="29" height="28" viewBox="0 0 29 28" fill="none" xmlns="http://www.w3.org/2000/svg">
<mask id="mask0_1275_781" style="mask-type:alpha" maskUnits="userSpaceOnUse" x="0" y="0" width="29" height="28">
<rect x="0.5" width="28" height="28" fill="#D9D9D9"/>
</mask>
<g mask="url(#mask0_1275_781)">
<path d="M5.16659 23.3333C4.52492 23.3333 3.97561 23.1048 3.51867 22.6479C3.06172 22.1909 2.83325 21.6416 2.83325 21V6.99996C2.83325 6.35829 3.06172 5.80899 3.51867 5.35204C3.97561 4.8951 4.52492 4.66663 5.16659 4.66663H23.8333C24.4749 4.66663 25.0242 4.8951 25.4812 5.35204C25.9381 5.80899 26.1666 6.35829 26.1666 6.99996V21C26.1666 21.6416 25.9381 22.1909 25.4812 22.6479C25.0242 23.1048 24.4749 23.3333 23.8333 23.3333H5.16659ZM14.4999 14.9625C14.5971 14.9625 14.6992 14.9479 14.8062 14.9187C14.9131 14.8895 15.0152 14.8458 15.1124 14.7875L23.3666 9.62496C23.5221 9.52774 23.6388 9.40621 23.7166 9.26038C23.7944 9.11454 23.8333 8.95413 23.8333 8.77913C23.8333 8.39024 23.668 8.09857 23.3374 7.90413C23.0069 7.70968 22.6666 7.7194 22.3166 7.93329L14.4999 12.8333L6.68325 7.93329C6.33325 7.7194 5.99297 7.71454 5.66242 7.91871C5.33186 8.12288 5.16659 8.40968 5.16659 8.77913C5.16659 8.97357 5.20547 9.14371 5.28325 9.28954C5.36103 9.43538 5.4777 9.54718 5.63325 9.62496L13.8874 14.7875C13.9846 14.8458 14.0867 14.8895 14.1937 14.9187C14.3006 14.9479 14.4027 14.9625 14.4999 14.9625Z" fill="black"/>
</g>
</svg>
