<svg width="29" height="28" viewBox="0 0 29 28" fill="none" xmlns="http://www.w3.org/2000/svg">
<mask id="mask0_1474_6617" style="mask-type:alpha" maskUnits="userSpaceOnUse" x="0" y="0" width="29" height="28">
<rect x="0.5" width="28" height="28" fill="#D9D9D9"/>
</mask>
<g mask="url(#mask0_1474_6617)">
<path d="M5.16667 24.5C4.83611 24.5 4.55903 24.3882 4.33542 24.1646C4.11181 23.941 4 23.6639 4 23.3333V22.1667C4 21.8361 4.11181 21.559 4.33542 21.3354C4.55903 21.1118 4.83611 21 5.16667 21C5.49722 21 5.77431 21.1118 5.99792 21.3354C6.22153 21.559 6.33333 21.8361 6.33333 22.1667V23.3333C6.33333 23.6639 6.22153 23.941 5.99792 24.1646C5.77431 24.3882 5.49722 24.5 5.16667 24.5ZM9.83333 24.5C9.50278 24.5 9.22569 24.3882 9.00208 24.1646C8.77847 23.941 8.66667 23.6639 8.66667 23.3333V16.9167C8.66667 16.5861 8.77847 16.309 9.00208 16.0854C9.22569 15.8618 9.50278 15.75 9.83333 15.75C10.1639 15.75 10.441 15.8618 10.6646 16.0854C10.8882 16.309 11 16.5861 11 16.9167V23.3333C11 23.6639 10.8882 23.941 10.6646 24.1646C10.441 24.3882 10.1639 24.5 9.83333 24.5ZM14.5 24.5C14.1694 24.5 13.8924 24.3882 13.6687 24.1646C13.4451 23.941 13.3333 23.6639 13.3333 23.3333V19.25C13.3333 18.9195 13.4451 18.6424 13.6687 18.4188C13.8924 18.1951 14.1694 18.0833 14.5 18.0833C14.8306 18.0833 15.1076 18.1951 15.3313 18.4188C15.5549 18.6424 15.6667 18.9195 15.6667 19.25V23.3333C15.6667 23.6639 15.5549 23.941 15.3313 24.1646C15.1076 24.3882 14.8306 24.5 14.5 24.5ZM19.1667 24.5C18.8361 24.5 18.559 24.3882 18.3354 24.1646C18.1118 23.941 18 23.6639 18 23.3333V17.5C18 17.1695 18.1118 16.8924 18.3354 16.6688C18.559 16.4451 18.8361 16.3333 19.1667 16.3333C19.4972 16.3333 19.7743 16.4451 19.9979 16.6688C20.2215 16.8924 20.3333 17.1695 20.3333 17.5V23.3333C20.3333 23.6639 20.2215 23.941 19.9979 24.1646C19.7743 24.3882 19.4972 24.5 19.1667 24.5ZM23.8333 24.5C23.5028 24.5 23.2257 24.3882 23.0021 24.1646C22.7785 23.941 22.6667 23.6639 22.6667 23.3333V12.8333C22.6667 12.5028 22.7785 12.2257 23.0021 12.0021C23.2257 11.7785 23.5028 11.6667 23.8333 11.6667C24.1639 11.6667 24.441 11.7785 24.6646 12.0021C24.8882 12.2257 25 12.5028 25 12.8333V23.3333C25 23.6639 24.8882 23.941 24.6646 24.1646C24.441 24.3882 24.1639 24.5 23.8333 24.5ZM16.8333 13.9708C16.5222 13.9708 16.2257 13.9125 15.9437 13.7958C15.6618 13.6792 15.4042 13.5139 15.1708 13.3L12.1667 10.2958L5.98333 16.4792C5.75 16.7125 5.47292 16.8243 5.15208 16.8146C4.83125 16.8049 4.55417 16.6833 4.32083 16.45C4.10694 16.2167 4.00486 15.9396 4.01458 15.6188C4.02431 15.2979 4.13611 15.0306 4.35 14.8167L10.5042 8.66251C10.7375 8.42917 10.9951 8.25903 11.2771 8.15209C11.559 8.04514 11.8556 7.99167 12.1667 7.99167C12.4778 7.99167 12.7792 8.04514 13.0708 8.15209C13.3625 8.25903 13.6153 8.42917 13.8292 8.66251L16.8333 11.6667L23.0167 5.48334C23.25 5.25001 23.5271 5.1382 23.8479 5.14792C24.1688 5.15764 24.4458 5.27917 24.6792 5.51251C24.8931 5.74584 24.9951 6.02292 24.9854 6.34376C24.9757 6.66459 24.8639 6.93195 24.65 7.14584L18.4958 13.3C18.2819 13.5139 18.0292 13.6792 17.7375 13.7958C17.4458 13.9125 17.1444 13.9708 16.8333 13.9708Z" fill="black"/>
</g>
</svg>
