<svg width="29" height="28" viewBox="0 0 29 28" fill="none" xmlns="http://www.w3.org/2000/svg">
<mask id="mask0_1474_6598" style="mask-type:alpha" maskUnits="userSpaceOnUse" x="0" y="0" width="29" height="28">
<rect x="0.5" width="28" height="28" fill="#D9D9D9"/>
</mask>
<g mask="url(#mask0_1474_6598)">
<path d="M12.983 14.8458L11.9913 13.3583C11.8941 13.2028 11.758 13.0764 11.583 12.9792C11.408 12.8819 11.2233 12.8333 11.0288 12.8333H4.11634C3.90245 12.8333 3.70801 12.7701 3.53301 12.6437C3.35801 12.5174 3.23162 12.3472 3.15384 12.1333C3.03717 11.7639 2.95454 11.3993 2.90592 11.0396C2.85731 10.6799 2.83301 10.3056 2.83301 9.91667C2.83301 8.08889 3.44551 6.5625 4.67051 5.3375C5.89551 4.1125 7.4219 3.5 9.24967 3.5C10.2608 3.5 11.2233 3.71389 12.1372 4.14167C13.0511 4.56944 13.8386 5.17222 14.4997 5.95C15.1608 5.17222 15.9483 4.56944 16.8622 4.14167C17.7761 3.71389 18.7386 3.5 19.7497 3.5C21.5775 3.5 23.1038 4.1125 24.3288 5.3375C25.5538 6.5625 26.1663 8.08889 26.1663 9.91667C26.1663 10.3056 26.142 10.6799 26.0934 11.0396C26.0448 11.3993 25.9622 11.7639 25.8455 12.1333C25.7872 12.3472 25.6656 12.5174 25.4809 12.6437C25.2962 12.7701 25.0969 12.8333 24.883 12.8333H18.6705L16.658 9.85833C16.5413 9.68333 16.3906 9.55208 16.2059 9.46458C16.0212 9.37708 15.8219 9.33333 15.608 9.33333C15.3552 9.33333 15.1365 9.40625 14.9518 9.55208C14.767 9.69792 14.6358 9.8875 14.558 10.1208L12.983 14.8458ZM14.4997 24.1208C14.2275 24.1208 13.9552 24.0722 13.683 23.975C13.4108 23.8778 13.1677 23.7222 12.9538 23.5083C11.1261 21.875 9.58023 20.441 8.31634 19.2062C7.05245 17.9715 6.03162 16.8583 5.25384 15.8667C5.13717 15.7111 5.12259 15.5556 5.21009 15.4C5.29759 15.2444 5.42884 15.1667 5.60384 15.1667H10.3288L12.3413 18.1417C12.458 18.3167 12.6087 18.4479 12.7934 18.5354C12.9781 18.6229 13.1775 18.6667 13.3913 18.6667C13.6441 18.6667 13.8629 18.5937 14.0476 18.4479C14.2323 18.3021 14.3636 18.1125 14.4413 17.8792L16.0163 13.125L17.0372 14.6417C17.1344 14.7972 17.2705 14.9236 17.4455 15.0208C17.6205 15.1181 17.8052 15.1667 17.9997 15.1667H23.3955C23.5705 15.1667 23.7018 15.2444 23.7893 15.4C23.8768 15.5556 23.8622 15.7111 23.7455 15.8667C22.9677 16.8583 21.9469 17.9715 20.683 19.2062C19.4191 20.441 17.8733 21.875 16.0455 23.5083C15.8316 23.7222 15.5886 23.8778 15.3163 23.975C15.0441 24.0722 14.7719 24.1208 14.4997 24.1208Z" fill="black"/>
</g>
</svg>
