<svg width="29" height="28" viewBox="0 0 29 28" fill="none" xmlns="http://www.w3.org/2000/svg">
<path d="M4.875 21C4.62222 21 4.41319 20.9174 4.24792 20.7521C4.08264 20.5868 4 20.3778 4 20.125C4 19.8722 4.08264 19.6632 4.24792 19.4979C4.41319 19.3326 4.62222 19.25 4.875 19.25H24.125C24.3778 19.25 24.5868 19.3326 24.7521 19.4979C24.9174 19.6632 25 19.8722 25 20.125C25 20.3778 24.9174 20.5868 24.7521 20.7521C24.5868 20.9174 24.3778 21 24.125 21H4.875ZM4.875 14.875C4.62222 14.875 4.41319 14.7924 4.24792 14.6271C4.08264 14.4618 4 14.2528 4 14C4 13.7472 4.08264 13.5382 4.24792 13.3729C4.41319 13.2076 4.62222 13.125 4.875 13.125H24.125C24.3778 13.125 24.5868 13.2076 24.7521 13.3729C24.9174 13.5382 25 13.7472 25 14C25 14.2528 24.9174 14.4618 24.7521 14.6271C24.5868 14.7924 24.3778 14.875 24.125 14.875H4.875ZM4.875 8.75C4.62222 8.75 4.41319 8.66736 4.24792 8.50208C4.08264 8.33681 4 8.12778 4 7.875C4 7.62222 4.08264 7.41319 4.24792 7.24792C4.41319 7.08264 4.62222 7 4.875 7H24.125C24.3778 7 24.5868 7.08264 24.7521 7.24792C24.9174 7.41319 25 7.62222 25 7.875C25 8.12778 24.9174 8.33681 24.7521 8.50208C24.5868 8.66736 24.3778 8.75 24.125 8.75H4.875Z" fill="black"/>
</svg>
