<svg width="29" height="28" viewBox="0 0 29 28" fill="none" xmlns="http://www.w3.org/2000/svg">
<mask id="mask0_1472_6344" style="mask-type:alpha" maskUnits="userSpaceOnUse" x="0" y="0" width="29" height="28">
<rect x="0.5" width="28" height="28" fill="#D9D9D9"/>
</mask>
<g mask="url(#mask0_1472_6344)">
<path d="M4 12.25V7.00004C4 6.66949 4.11181 6.3924 4.33542 6.16879C4.55903 5.94518 4.83611 5.83337 5.16667 5.83337H9.04583C9.37639 5.83337 9.65347 5.94518 9.87708 6.16879C10.1007 6.3924 10.2125 6.66949 10.2125 7.00004V12.25C10.2125 12.5806 10.1007 12.8577 9.87708 13.0813C9.65347 13.3049 9.37639 13.4167 9.04583 13.4167H5.16667C4.83611 13.4167 4.55903 13.3049 4.33542 13.0813C4.11181 12.8577 4 12.5806 4 12.25ZM12.5458 13.4167C12.2153 13.4167 11.9382 13.3049 11.7146 13.0813C11.491 12.8577 11.3792 12.5806 11.3792 12.25V7.00004C11.3792 6.66949 11.491 6.3924 11.7146 6.16879C11.9382 5.94518 12.2153 5.83337 12.5458 5.83337H16.4542C16.7847 5.83337 17.0618 5.94518 17.2854 6.16879C17.509 6.3924 17.6208 6.66949 17.6208 7.00004V12.25C17.6208 12.5806 17.509 12.8577 17.2854 13.0813C17.0618 13.3049 16.7847 13.4167 16.4542 13.4167H12.5458ZM19.9542 13.4167C19.6236 13.4167 19.3465 13.3049 19.1229 13.0813C18.8993 12.8577 18.7875 12.5806 18.7875 12.25V7.00004C18.7875 6.66949 18.8993 6.3924 19.1229 6.16879C19.3465 5.94518 19.6236 5.83337 19.9542 5.83337H23.8333C24.1639 5.83337 24.441 5.94518 24.6646 6.16879C24.8882 6.3924 25 6.66949 25 7.00004V12.25C25 12.5806 24.8882 12.8577 24.6646 13.0813C24.441 13.3049 24.1639 13.4167 23.8333 13.4167H19.9542ZM9.04583 22.1667H5.16667C4.83611 22.1667 4.55903 22.0549 4.33542 21.8313C4.11181 21.6077 4 21.3306 4 21V15.75C4 15.4195 4.11181 15.1424 4.33542 14.9188C4.55903 14.6952 4.83611 14.5834 5.16667 14.5834H9.04583C9.37639 14.5834 9.65347 14.6952 9.87708 14.9188C10.1007 15.1424 10.2125 15.4195 10.2125 15.75V21C10.2125 21.3306 10.1007 21.6077 9.87708 21.8313C9.65347 22.0549 9.37639 22.1667 9.04583 22.1667ZM12.5458 22.1667C12.2153 22.1667 11.9382 22.0549 11.7146 21.8313C11.491 21.6077 11.3792 21.3306 11.3792 21V15.75C11.3792 15.4195 11.491 15.1424 11.7146 14.9188C11.9382 14.6952 12.2153 14.5834 12.5458 14.5834H16.4542C16.7847 14.5834 17.0618 14.6952 17.2854 14.9188C17.509 15.1424 17.6208 15.4195 17.6208 15.75V21C17.6208 21.3306 17.509 21.6077 17.2854 21.8313C17.0618 22.0549 16.7847 22.1667 16.4542 22.1667H12.5458ZM19.9542 22.1667C19.6236 22.1667 19.3465 22.0549 19.1229 21.8313C18.8993 21.6077 18.7875 21.3306 18.7875 21V15.75C18.7875 15.4195 18.8993 15.1424 19.1229 14.9188C19.3465 14.6952 19.6236 14.5834 19.9542 14.5834H23.8333C24.1639 14.5834 24.441 14.6952 24.6646 14.9188C24.8882 15.1424 25 15.4195 25 15.75V21C25 21.3306 24.8882 21.6077 24.6646 21.8313C24.441 22.0549 24.1639 22.1667 23.8333 22.1667H19.9542Z" fill="black"/>
</g>
</svg>
