<svg width="29" height="28" viewBox="0 0 29 28" fill="none" xmlns="http://www.w3.org/2000/svg">
<mask id="mask0_1111_1999" style="mask-type:alpha" maskUnits="userSpaceOnUse" x="0" y="0" width="29" height="28">
<rect x="0.5" width="28" height="28" fill="#D9D9D9"/>
</mask>
<g mask="url(#mask0_1111_1999)">
<path d="M6.99611 16.5806C6.28386 16.5806 5.67447 16.328 5.16795 15.8226C4.66161 15.3172 4.40845 14.7097 4.40845 14C4.40845 13.2813 4.66113 12.6715 5.16649 12.1706C5.67185 11.6698 6.27939 11.4193 6.98911 11.4193C7.70331 11.4193 8.31464 11.6698 8.82311 12.1706C9.33178 12.6715 9.58611 13.2786 9.58611 13.9918C9.58611 14.7048 9.33256 15.3146 8.82545 15.8211C8.31814 16.3275 7.70836 16.5806 6.99611 16.5806ZM14.5083 16.5806C13.7953 16.5806 13.1855 16.328 12.6789 15.8226C12.1726 15.3172 11.9194 14.7097 11.9194 14C11.9194 13.2813 12.1721 12.6715 12.6775 12.1706C13.1829 11.6698 13.7904 11.4193 14.5001 11.4193C15.2188 11.4193 15.8286 11.6698 16.3294 12.1706C16.8303 12.6715 17.0808 13.2786 17.0808 13.9918C17.0808 14.7048 16.8303 15.3146 16.3294 15.8211C15.8286 16.3275 15.2215 16.5806 14.5083 16.5806ZM22.0158 16.5806C21.3004 16.5806 20.6879 16.328 20.1783 15.8226C19.6688 15.3172 19.4141 14.7097 19.4141 14C19.4141 13.2813 19.6688 12.6715 20.1783 12.1706C20.6879 11.6698 21.3004 11.4193 22.0158 11.4193C22.7313 11.4193 23.3396 11.6698 23.8404 12.1706C24.3413 12.6715 24.5918 13.2786 24.5918 13.9918C24.5918 14.7048 24.3413 15.3146 23.8404 15.8211C23.3396 16.3275 22.7313 16.5806 22.0158 16.5806Z" fill="black"/>
</g>
</svg>
