<svg width="29" height="28" viewBox="0 0 29 28" fill="none" xmlns="http://www.w3.org/2000/svg">
<mask id="mask0_1474_6645" style="mask-type:alpha" maskUnits="userSpaceOnUse" x="0" y="0" width="29" height="28">
<rect x="0.5" width="28" height="28" fill="#D9D9D9"/>
</mask>
<g mask="url(#mask0_1474_6645)">
<path d="M6.33333 24.5C5.69167 24.5 5.14236 24.2715 4.68542 23.8146C4.22847 23.3576 4 22.8083 4 22.1667V5.83333C4 5.19167 4.22847 4.64236 4.68542 4.18542C5.14236 3.72847 5.69167 3.5 6.33333 3.5H17.0375C17.3486 3.5 17.6451 3.55833 17.9271 3.675C18.209 3.79167 18.4569 3.95694 18.6708 4.17083L24.3292 9.82917C24.5431 10.0431 24.7083 10.291 24.825 10.5729C24.9417 10.8549 25 11.1514 25 11.4625V22.1667C25 22.8083 24.7715 23.3576 24.3146 23.8146C23.8576 24.2715 23.3083 24.5 22.6667 24.5H6.33333ZM9.83333 19.8333H19.1667C19.4972 19.8333 19.7743 19.7215 19.9979 19.4979C20.2215 19.2743 20.3333 18.9972 20.3333 18.6667C20.3333 18.3361 20.2215 18.059 19.9979 17.8354C19.7743 17.6118 19.4972 17.5 19.1667 17.5H9.83333C9.50278 17.5 9.22569 17.6118 9.00208 17.8354C8.77847 18.059 8.66667 18.3361 8.66667 18.6667C8.66667 18.9972 8.77847 19.2743 9.00208 19.4979C9.22569 19.7215 9.50278 19.8333 9.83333 19.8333ZM9.83333 15.1667H19.1667C19.4972 15.1667 19.7743 15.0549 19.9979 14.8313C20.2215 14.6076 20.3333 14.3306 20.3333 14C20.3333 13.6694 20.2215 13.3924 19.9979 13.1687C19.7743 12.9451 19.4972 12.8333 19.1667 12.8333H9.83333C9.50278 12.8333 9.22569 12.9451 9.00208 13.1687C8.77847 13.3924 8.66667 13.6694 8.66667 14C8.66667 14.3306 8.77847 14.6076 9.00208 14.8313C9.22569 15.0549 9.50278 15.1667 9.83333 15.1667ZM9.83333 10.5H15.6667C15.9972 10.5 16.2743 10.3882 16.4979 10.1646C16.7215 9.94097 16.8333 9.66389 16.8333 9.33333C16.8333 9.00278 16.7215 8.72569 16.4979 8.50208C16.2743 8.27847 15.9972 8.16667 15.6667 8.16667H9.83333C9.50278 8.16667 9.22569 8.27847 9.00208 8.50208C8.77847 8.72569 8.66667 9.00278 8.66667 9.33333C8.66667 9.66389 8.77847 9.94097 9.00208 10.1646C9.22569 10.3882 9.50278 10.5 9.83333 10.5Z" fill="black"/>
</g>
</svg>
