<svg width="29" height="28" viewBox="0 0 29 28" fill="none" xmlns="http://www.w3.org/2000/svg">
<path d="M6.04175 22.1667C5.78897 22.1667 5.57994 22.0841 5.41466 21.9188C5.24939 21.7535 5.16675 21.5445 5.16675 21.2917C5.16675 21.0389 5.24939 20.8299 5.41466 20.6646C5.57994 20.4993 5.78897 20.4167 6.04175 20.4167H7.61675V11.4917C7.61675 9.89726 8.098 8.45351 9.0605 7.16046C10.023 5.8674 11.2917 5.0556 12.8667 4.72504V3.87921C12.8667 3.43199 13.0272 3.06254 13.348 2.77087C13.6688 2.47921 14.0529 2.33337 14.5001 2.33337C14.9473 2.33337 15.3313 2.47921 15.6522 2.77087C15.973 3.06254 16.1334 3.43199 16.1334 3.87921V4.72504C17.7084 5.0556 18.982 5.8674 19.9542 7.16046C20.9265 8.45351 21.4126 9.89726 21.4126 11.4917V20.4167H22.9584C23.2112 20.4167 23.4202 20.4993 23.5855 20.6646C23.7508 20.8299 23.8334 21.0389 23.8334 21.2917C23.8334 21.5445 23.7508 21.7535 23.5855 21.9188C23.4202 22.0841 23.2112 22.1667 22.9584 22.1667H6.04175ZM14.5001 25.6667C13.8779 25.6667 13.3334 25.4382 12.8667 24.9813C12.4001 24.5243 12.1667 23.975 12.1667 23.3334H16.8334C16.8334 23.975 16.6049 24.5243 16.148 24.9813C15.6911 25.4382 15.1417 25.6667 14.5001 25.6667Z" fill="black"/>
</svg>
