<svg width="29" height="28" viewBox="0 0 29 28" fill="none" xmlns="http://www.w3.org/2000/svg">
<mask id="mask0_1275_809" style="mask-type:alpha" maskUnits="userSpaceOnUse" x="0" y="0" width="29" height="28">
<rect x="0.5" width="28" height="28" fill="#D9D9D9"/>
</mask>
<g mask="url(#mask0_1275_809)">
<path fill-rule="evenodd" clip-rule="evenodd" d="M5.50216 21.8313C5.72578 22.0549 6.00286 22.1667 6.33341 22.1667H22.6667C22.9973 22.1667 23.2744 22.0549 23.498 21.8313C23.7216 21.6077 23.8334 21.3306 23.8334 21C23.8334 20.6695 23.7216 20.3924 23.498 20.1688C23.2744 19.9452 22.9973 19.8334 22.6667 19.8334H21.5001V11.6667C21.5001 10.0528 21.014 8.61879 20.0417 7.36462C19.0695 6.11046 17.8056 5.28893 16.2501 4.90004V4.08337C16.2501 3.59726 16.0799 3.18407 15.7397 2.84379C15.3994 2.50351 14.9862 2.33337 14.5001 2.33337C14.014 2.33337 13.6008 2.50351 13.2605 2.84379C12.9202 3.18407 12.7501 3.59726 12.7501 4.08337V4.90004C11.1945 5.28893 9.93064 6.11046 8.95841 7.36462C7.98619 8.61879 7.50008 10.0528 7.50008 11.6667V19.8334H6.33341C6.00286 19.8334 5.72578 19.9452 5.50216 20.1688C5.27855 20.3924 5.16675 20.6695 5.16675 21C5.16675 21.3306 5.27855 21.6077 5.50216 21.8313ZM12.8522 24.9813C13.3091 25.4382 13.8584 25.6667 14.5001 25.6667C15.1417 25.6667 15.6911 25.4382 16.148 24.9813C16.6049 24.5243 16.8334 23.975 16.8334 23.3334H12.1667C12.1667 23.975 12.3952 24.5243 12.8522 24.9813ZM12.2396 19.3739C12.9493 19.6802 13.7028 19.8333 14.5 19.8333C15.307 19.8333 16.0629 19.6802 16.7677 19.3739C17.4726 19.0677 18.09 18.6496 18.6198 18.1198C19.1497 17.5899 19.5677 16.9701 19.874 16.2604C20.1802 15.5507 20.3334 14.7972 20.3334 14C20.3334 13.193 20.1802 12.4371 19.874 11.7323C19.5677 11.0274 19.1497 10.4101 18.6198 9.8802C18.09 9.35034 17.4726 8.93228 16.7677 8.62603C16.0629 8.31978 15.307 8.16666 14.5 8.16666C13.7028 8.16666 12.9493 8.31978 12.2396 8.62603C11.5299 8.93228 10.9101 9.35034 10.3802 9.8802C9.85037 10.4101 9.43231 11.0274 9.12606 11.7323C8.81981 12.4371 8.66669 13.193 8.66669 14C8.66669 14.7972 8.81981 15.5507 9.12606 16.2604C9.43231 16.9701 9.85037 17.5899 10.3802 18.1198C10.9101 18.6496 11.5299 19.0677 12.2396 19.3739ZM15.1563 17.5437C14.9716 17.9229 14.7528 18.2875 14.5 18.6375C14.2472 18.2875 14.0285 17.9229 13.8438 17.5437C13.6591 17.1646 13.5084 16.7611 13.3917 16.3333H15.6084C15.4917 16.7611 15.341 17.1646 15.1563 17.5437ZM12.524 17.4052C12.6552 17.7503 12.8084 18.0833 12.9834 18.4042C12.4389 18.2292 11.9552 17.9618 11.5323 17.6021C11.1094 17.2424 10.757 16.8194 10.475 16.3333H12.1959C12.2834 16.7028 12.3927 17.0601 12.524 17.4052ZM17.4677 17.6021C17.0448 17.9618 16.5611 18.2292 16.0167 18.4042C16.1917 18.0833 16.3448 17.7503 16.4761 17.4052C16.6073 17.0601 16.7167 16.7028 16.8042 16.3333H18.525C18.2431 16.8194 17.8906 17.2424 17.4677 17.6021ZM11.9625 15.1667H9.97919C9.93058 14.9722 9.89412 14.7802 9.86981 14.5906C9.84551 14.401 9.83336 14.2042 9.83336 14C9.83336 13.7958 9.84551 13.5989 9.86981 13.4094C9.89412 13.2198 9.93058 13.0278 9.97919 12.8333H11.9625C11.9334 13.0278 11.9115 13.2198 11.8969 13.4094C11.8823 13.5989 11.875 13.7958 11.875 14C11.875 14.2042 11.8823 14.401 11.8969 14.5906C11.9115 14.7802 11.9334 14.9722 11.9625 15.1667ZM15.8709 15.1667H13.1292C13.1 14.9722 13.0781 14.7802 13.0636 14.5906C13.049 14.401 13.0417 14.2042 13.0417 14C13.0417 13.7958 13.049 13.5989 13.0636 13.4094C13.0781 13.2198 13.1 13.0278 13.1292 12.8333H15.8709C15.9 13.0278 15.9219 13.2198 15.9365 13.4094C15.9511 13.5989 15.9584 13.7958 15.9584 14C15.9584 14.2042 15.9511 14.401 15.9365 14.5906C15.9219 14.7802 15.9 14.9722 15.8709 15.1667ZM19.0209 15.1667H17.0375C17.0667 14.9722 17.0886 14.7802 17.1031 14.5906C17.1177 14.401 17.125 14.2042 17.125 14C17.125 13.7958 17.1177 13.5989 17.1031 13.4094C17.0886 13.2198 17.0667 13.0278 17.0375 12.8333H19.0209C19.0695 13.0278 19.1059 13.2198 19.1302 13.4094C19.1545 13.5989 19.1667 13.7958 19.1667 14C19.1667 14.2042 19.1545 14.401 19.1302 14.5906C19.1059 14.7802 19.0695 14.9722 19.0209 15.1667ZM18.525 11.6667H16.8042C16.7167 11.2972 16.6073 10.9399 16.4761 10.5948C16.3448 10.2496 16.1917 9.91666 16.0167 9.59582C16.5611 9.77082 17.0448 10.0382 17.4677 10.3979C17.8906 10.7576 18.2431 11.1805 18.525 11.6667ZM15.6084 11.6667H13.3917C13.5084 11.2389 13.6591 10.8354 13.8438 10.4562C14.0285 10.0771 14.2472 9.71249 14.5 9.36249C14.7528 9.71249 14.9716 10.0771 15.1563 10.4562C15.341 10.8354 15.4917 11.2389 15.6084 11.6667ZM12.1959 11.6667H10.475C10.757 11.1805 11.1094 10.7576 11.5323 10.3979C11.9552 10.0382 12.4389 9.77082 12.9834 9.59582C12.8084 9.91666 12.6552 10.2496 12.524 10.5948C12.3927 10.9399 12.2834 11.2972 12.1959 11.6667Z" fill="black"/>
</g>
</svg>
