<svg width="29" height="28" viewBox="0 0 29 28" fill="none" xmlns="http://www.w3.org/2000/svg">
<mask id="mask0_1474_6624" style="mask-type:alpha" maskUnits="userSpaceOnUse" x="0" y="0" width="29" height="28">
<rect x="0.5" width="28" height="28" fill="#D9D9D9"/>
</mask>
<g mask="url(#mask0_1474_6624)">
<path d="M14.4997 25.6665C12.8858 25.6665 11.3691 25.3602 9.94968 24.7477C8.53023 24.1352 7.29551 23.304 6.24551 22.254C5.19551 21.204 4.36426 19.9692 3.75176 18.5498C3.13926 17.1304 2.83301 15.6137 2.83301 13.9998C2.83301 12.3859 3.13926 10.8692 3.75176 9.4498C4.36426 8.03035 5.19551 6.79563 6.24551 5.74563C7.29551 4.69563 8.53023 3.86438 9.94968 3.25188C11.3691 2.63938 12.8858 2.33313 14.4997 2.33313C16.1136 2.33313 17.6302 2.63938 19.0497 3.25188C20.4691 3.86438 21.7038 4.69563 22.7538 5.74563C23.8038 6.79563 24.6351 8.03035 25.2476 9.4498C25.8601 10.8692 26.1663 12.3859 26.1663 13.9998C26.1663 15.6137 25.8601 17.1304 25.2476 18.5498C24.6351 19.9692 23.8038 21.204 22.7538 22.254C21.7038 23.304 20.4691 24.1352 19.0497 24.7477C17.6302 25.3602 16.1136 25.6665 14.4997 25.6665ZM14.4997 23.3331C17.1052 23.3331 19.3122 22.429 21.1205 20.6206C22.9288 18.8123 23.833 16.6054 23.833 13.9998C23.833 11.3942 22.9288 9.1873 21.1205 7.37896C19.3122 5.57063 17.1052 4.66646 14.4997 4.66646C11.8941 4.66646 9.68718 5.57063 7.87884 7.37896C6.07051 9.1873 5.16634 11.3942 5.16634 13.9998C5.16634 16.6054 6.07051 18.8123 7.87884 20.6206C9.68718 22.429 11.8941 23.3331 14.4997 23.3331ZM14.4997 20.9998C12.5552 20.9998 10.9025 20.3192 9.54134 18.9581C8.18023 17.597 7.49967 15.9442 7.49967 13.9998C7.49967 12.0554 8.18023 10.4026 9.54134 9.04146C10.9025 7.68035 12.5552 6.9998 14.4997 6.9998C16.4441 6.9998 18.0969 7.68035 19.458 9.04146C20.8191 10.4026 21.4997 12.0554 21.4997 13.9998C21.4997 15.9442 20.8191 17.597 19.458 18.9581C18.0969 20.3192 16.4441 20.9998 14.4997 20.9998ZM14.4997 18.6665C15.783 18.6665 16.8816 18.2095 17.7955 17.2956C18.7094 16.3817 19.1663 15.2831 19.1663 13.9998C19.1663 12.7165 18.7094 11.6179 17.7955 10.704C16.8816 9.79007 15.783 9.33313 14.4997 9.33313C13.2163 9.33313 12.1177 9.79007 11.2038 10.704C10.29 11.6179 9.83301 12.7165 9.83301 13.9998C9.83301 15.2831 10.29 16.3817 11.2038 17.2956C12.1177 18.2095 13.2163 18.6665 14.4997 18.6665ZM14.4997 16.3331C13.858 16.3331 13.3087 16.1047 12.8518 15.6477C12.3948 15.1908 12.1663 14.6415 12.1663 13.9998C12.1663 13.3581 12.3948 12.8088 12.8518 12.3519C13.3087 11.8949 13.858 11.6665 14.4997 11.6665C15.1413 11.6665 15.6906 11.8949 16.1476 12.3519C16.6045 12.8088 16.833 13.3581 16.833 13.9998C16.833 14.6415 16.6045 15.1908 16.1476 15.6477C15.6906 16.1047 15.1413 16.3331 14.4997 16.3331Z" fill="black"/>
</g>
</svg>
