<svg width="29" height="28" viewBox="0 0 29 28" fill="none" xmlns="http://www.w3.org/2000/svg">
<mask id="mask0_1187_423" style="mask-type:alpha" maskUnits="userSpaceOnUse" x="0" y="0" width="29" height="28">
<rect x="0.5" width="28" height="28" fill="#D9D9D9"/>
</mask>
<g mask="url(#mask0_1187_423)">
<path d="M6.53112 25.0606C5.66973 25.0606 4.93911 24.7607 4.33924 24.1608C3.73938 23.561 3.43945 22.8303 3.43945 21.9689V6.03112C3.43945 5.16973 3.73938 4.43911 4.33924 3.83924C4.93911 3.23938 5.66973 2.93945 6.53112 2.93945H12.9542C13.3837 2.93945 13.7487 3.08976 14.0491 3.39037C14.3497 3.69098 14.5 4.05595 14.5 4.48529C14.5 4.91481 14.3497 5.27988 14.0491 5.58049C13.7487 5.88091 13.3837 6.03112 12.9542 6.03112H6.53112V21.9689H22.4689V15.5459C22.4689 15.1163 22.6192 14.7514 22.9196 14.451C23.2202 14.1503 23.5853 14 24.0148 14C24.4441 14 24.8091 14.1503 25.1097 14.451C25.4103 14.7514 25.5606 15.1163 25.5606 15.5459V21.9689C25.5606 22.8303 25.2607 23.561 24.6608 24.1608C24.061 24.7607 23.3303 25.0606 22.4689 25.0606H6.53112ZM22.4689 8.17574L13.3917 17.2527C13.1008 17.5436 12.7461 17.6863 12.3277 17.6809C11.9093 17.6752 11.5546 17.5271 11.2637 17.2364C10.973 16.9455 10.8277 16.588 10.8277 16.1639C10.8277 15.74 10.973 15.3826 11.2637 15.0917L20.3243 6.03112H18.3792C17.9497 6.03112 17.5847 5.88091 17.2843 5.58049C16.9837 5.27988 16.8334 4.91481 16.8334 4.48529C16.8334 4.05595 16.9837 3.69098 17.2843 3.39037C17.5847 3.08976 17.9497 2.93945 18.3792 2.93945H24.0148C24.4441 2.93945 24.8091 3.08976 25.1097 3.39037C25.4103 3.69098 25.5606 4.05595 25.5606 4.48529V10.1209C25.5606 10.5504 25.4103 10.9154 25.1097 11.2158C24.8091 11.5164 24.4441 11.6667 24.0148 11.6667C23.5853 11.6667 23.2202 11.5164 22.9196 11.2158C22.6192 10.9154 22.4689 10.5504 22.4689 10.1209V8.17574Z" fill="black"/>
</g>
</svg>
