<svg width="29" height="28" viewBox="0 0 29 28" fill="none" xmlns="http://www.w3.org/2000/svg">
<mask id="mask0_1680_44992" style="mask-type:alpha" maskUnits="userSpaceOnUse" x="0" y="0" width="29" height="28">
<rect x="0.5" width="28" height="28" fill="#D9D9D9"/>
</mask>
<g mask="url(#mask0_1680_44992)">
<path d="M4 24.2666V3.03332C4 2.89721 4.05833 2.80484 4.175 2.75623C4.29167 2.70762 4.39861 2.73193 4.49583 2.82915L5.34167 3.67498C5.45833 3.79165 5.59444 3.84998 5.75 3.84998C5.90556 3.84998 6.04167 3.79165 6.15833 3.67498L7.09167 2.74165C7.20833 2.62498 7.34444 2.56665 7.5 2.56665C7.65556 2.56665 7.79167 2.62498 7.90833 2.74165L8.84167 3.67498C8.95833 3.79165 9.09444 3.84998 9.25 3.84998C9.40556 3.84998 9.54167 3.79165 9.65833 3.67498L10.5917 2.74165C10.7083 2.62498 10.8444 2.56665 11 2.56665C11.1556 2.56665 11.2917 2.62498 11.4083 2.74165L12.3417 3.67498C12.4583 3.79165 12.5944 3.84998 12.75 3.84998C12.9056 3.84998 13.0417 3.79165 13.1583 3.67498L14.0917 2.74165C14.2083 2.62498 14.3444 2.56665 14.5 2.56665C14.6556 2.56665 14.7917 2.62498 14.9083 2.74165L15.8417 3.67498C15.9583 3.79165 16.0944 3.84998 16.25 3.84998C16.4056 3.84998 16.5417 3.79165 16.6583 3.67498L17.5917 2.74165C17.7083 2.62498 17.8444 2.56665 18 2.56665C18.1556 2.56665 18.2917 2.62498 18.4083 2.74165L19.3417 3.67498C19.4583 3.79165 19.5944 3.84998 19.75 3.84998C19.9056 3.84998 20.0417 3.79165 20.1583 3.67498L21.0917 2.74165C21.2083 2.62498 21.3444 2.56665 21.5 2.56665C21.6556 2.56665 21.7917 2.62498 21.9083 2.74165L22.8417 3.67498C22.9583 3.79165 23.0944 3.84998 23.25 3.84998C23.4056 3.84998 23.5417 3.79165 23.6583 3.67498L24.5042 2.82915C24.6014 2.73193 24.7083 2.70762 24.825 2.75623C24.9417 2.80484 25 2.89721 25 3.03332V24.2666C25 24.5389 24.8833 24.7236 24.65 24.8208C24.4167 24.918 24.2028 24.8694 24.0083 24.675L23.6583 24.325C23.5417 24.2083 23.4056 24.15 23.25 24.15C23.0944 24.15 22.9583 24.2083 22.8417 24.325L21.9083 25.2583C21.7917 25.375 21.6556 25.4333 21.5 25.4333C21.3444 25.4333 21.2083 25.375 21.0917 25.2583L20.1583 24.325C20.0417 24.2083 19.9056 24.15 19.75 24.15C19.5944 24.15 19.4583 24.2083 19.3417 24.325L18.4083 25.2583C18.2917 25.375 18.1556 25.4333 18 25.4333C17.8444 25.4333 17.7083 25.375 17.5917 25.2583L16.6583 24.325C16.5417 24.2083 16.4056 24.15 16.25 24.15C16.0944 24.15 15.9583 24.2083 15.8417 24.325L14.9083 25.2583C14.7917 25.375 14.6556 25.4333 14.5 25.4333C14.3444 25.4333 14.2083 25.375 14.0917 25.2583L13.1583 24.325C13.0417 24.2083 12.9056 24.15 12.75 24.15C12.5944 24.15 12.4583 24.2083 12.3417 24.325L11.4083 25.2583C11.2917 25.375 11.1556 25.4333 11 25.4333C10.8444 25.4333 10.7083 25.375 10.5917 25.2583L9.65833 24.325C9.54167 24.2083 9.40556 24.15 9.25 24.15C9.09444 24.15 8.95833 24.2083 8.84167 24.325L7.90833 25.2583C7.79167 25.375 7.65556 25.4333 7.5 25.4333C7.34444 25.4333 7.20833 25.375 7.09167 25.2583L6.15833 24.325C6.04167 24.2083 5.90556 24.15 5.75 24.15C5.59444 24.15 5.45833 24.2083 5.34167 24.325L4.99167 24.675C4.79722 24.8694 4.58333 24.918 4.35 24.8208C4.11667 24.7236 4 24.5389 4 24.2666ZM8.66667 19.8333H20.3333C20.6639 19.8333 20.941 19.7215 21.1646 19.4979C21.3882 19.2743 21.5 18.9972 21.5 18.6667C21.5 18.3361 21.3882 18.059 21.1646 17.8354C20.941 17.6118 20.6639 17.5 20.3333 17.5H8.66667C8.33611 17.5 8.05903 17.6118 7.83542 17.8354C7.61181 18.059 7.5 18.3361 7.5 18.6667C7.5 18.9972 7.61181 19.2743 7.83542 19.4979C8.05903 19.7215 8.33611 19.8333 8.66667 19.8333ZM8.66667 15.1666H20.3333C20.6639 15.1666 20.941 15.0548 21.1646 14.8312C21.3882 14.6076 21.5 14.3305 21.5 14C21.5 13.6694 21.3882 13.3923 21.1646 13.1687C20.941 12.9451 20.6639 12.8333 20.3333 12.8333H8.66667C8.33611 12.8333 8.05903 12.9451 7.83542 13.1687C7.61181 13.3923 7.5 13.6694 7.5 14C7.5 14.3305 7.61181 14.6076 7.83542 14.8312C8.05903 15.0548 8.33611 15.1666 8.66667 15.1666ZM8.66667 10.5H20.3333C20.6639 10.5 20.941 10.3882 21.1646 10.1646C21.3882 9.94096 21.5 9.66387 21.5 9.33332C21.5 9.00276 21.3882 8.72568 21.1646 8.50207C20.941 8.27846 20.6639 8.16665 20.3333 8.16665H8.66667C8.33611 8.16665 8.05903 8.27846 7.83542 8.50207C7.61181 8.72568 7.5 9.00276 7.5 9.33332C7.5 9.66387 7.61181 9.94096 7.83542 10.1646C8.05903 10.3882 8.33611 10.5 8.66667 10.5Z" fill="black"/>
</g>
</svg>
