<svg width="29" height="28" viewBox="0 0 29 28" fill="none" xmlns="http://www.w3.org/2000/svg">
<mask id="mask0_1686_50871" style="mask-type:alpha" maskUnits="userSpaceOnUse" x="0" y="0" width="29" height="28">
<rect x="0.5" width="28" height="28" fill="#D9D9D9"/>
</mask>
<g mask="url(#mask0_1686_50871)">
<path d="M14.4999 25.6667C12.886 25.6667 11.3694 25.3605 9.94992 24.748C8.53047 24.1355 7.29575 23.3042 6.24575 22.2542C5.19575 21.2042 4.3645 19.9695 3.752 18.55C3.1395 17.1306 2.83325 15.6139 2.83325 14C2.83325 12.3862 3.1395 10.8695 3.752 9.45004C4.3645 8.0306 5.19575 6.79587 6.24575 5.74587C7.29575 4.69587 8.53047 3.86462 9.94992 3.25212C11.3694 2.63962 12.886 2.33337 14.4999 2.33337C16.1138 2.33337 17.6305 2.63962 19.0499 3.25212C20.4694 3.86462 21.7041 4.69587 22.7541 5.74587C23.8041 6.79587 24.6353 8.0306 25.2478 9.45004C25.8603 10.8695 26.1666 12.3862 26.1666 14C26.1666 15.6139 25.8603 17.1306 25.2478 18.55C24.6353 19.9695 23.8041 21.2042 22.7541 22.2542C21.7041 23.3042 20.4694 24.1355 19.0499 24.748C17.6305 25.3605 16.1138 25.6667 14.4999 25.6667ZM14.4708 22.1667C14.743 22.1667 14.9812 22.0646 15.1853 21.8605C15.3895 21.6563 15.4916 21.4181 15.4916 21.1459V20.7084C16.4638 20.5334 17.2999 20.1542 17.9999 19.5709C18.6999 18.9875 19.0499 18.1223 19.0499 16.975C19.0499 16.1584 18.8166 15.4098 18.3499 14.7292C17.8833 14.0487 16.9499 13.4556 15.5499 12.95C14.3833 12.5612 13.5763 12.2209 13.1291 11.9292C12.6819 11.6375 12.4583 11.2389 12.4583 10.7334C12.4583 10.2278 12.6381 9.82921 12.9978 9.53754C13.3576 9.24587 13.8777 9.10004 14.5583 9.10004C14.9471 9.10004 15.2874 9.1681 15.5791 9.30421C15.8708 9.44032 16.1138 9.62504 16.3083 9.85838C16.5027 10.0917 16.7214 10.2521 16.9645 10.3396C17.2076 10.4271 17.436 10.4223 17.6499 10.325C17.9416 10.2084 18.1409 10.0091 18.2478 9.72712C18.3548 9.44518 18.3305 9.18754 18.1749 8.95421C17.8638 8.50699 17.4798 8.12782 17.0228 7.81671C16.5659 7.5056 16.0749 7.3306 15.5499 7.29171V6.85421C15.5499 6.58199 15.4478 6.34379 15.2437 6.13962C15.0395 5.93546 14.8013 5.83337 14.5291 5.83337C14.2569 5.83337 14.0187 5.93546 13.8145 6.13962C13.6103 6.34379 13.5083 6.58199 13.5083 6.85421V7.29171C12.536 7.5056 11.7777 7.93337 11.2333 8.57504C10.6888 9.21671 10.4166 9.93615 10.4166 10.7334C10.4166 11.6473 10.6839 12.3862 11.2187 12.95C11.7534 13.5139 12.5944 14 13.7416 14.4084C14.9666 14.8556 15.8173 15.2542 16.2937 15.6042C16.7701 15.9542 17.0083 16.4112 17.0083 16.975C17.0083 17.6167 16.7798 18.0882 16.3228 18.3896C15.8659 18.691 15.3166 18.8417 14.6749 18.8417C14.1694 18.8417 13.7124 18.7202 13.3041 18.4771C12.8958 18.2341 12.5555 17.8695 12.2833 17.3834C12.1277 17.1112 11.9235 16.9264 11.6708 16.8292C11.418 16.732 11.1652 16.732 10.9124 16.8292C10.6402 16.9264 10.4409 17.1112 10.3145 17.3834C10.1881 17.6556 10.1833 17.9181 10.2999 18.1709C10.611 18.832 11.0291 19.3716 11.5541 19.7896C12.0791 20.2077 12.711 20.4945 13.4499 20.65V21.1459C13.4499 21.4181 13.552 21.6563 13.7562 21.8605C13.9603 22.0646 14.1985 22.1667 14.4708 22.1667Z" fill="black"/>
</g>
</svg>
