<svg width="29" height="28" viewBox="0 0 29 28" fill="none" xmlns="http://www.w3.org/2000/svg">
<mask id="mask0_1680_40002" style="mask-type:alpha" maskUnits="userSpaceOnUse" x="0" y="0" width="29" height="28">
<rect x="0.5" width="28" height="28" fill="#D9D9D9"/>
</mask>
<g mask="url(#mask0_1680_40002)">
<path d="M14.4999 19.8334V8.16671C12.886 8.16671 11.5103 8.73546 10.3728 9.87296C9.23534 11.0105 8.66659 12.3862 8.66659 14C8.66659 15.6139 9.23534 16.9896 10.3728 18.1271C11.5103 19.2646 12.886 19.8334 14.4999 19.8334ZM14.4999 25.6667C12.886 25.6667 11.3694 25.3605 9.94992 24.748C8.53047 24.1355 7.29575 23.3042 6.24575 22.2542C5.19575 21.2042 4.3645 19.9695 3.752 18.55C3.1395 17.1306 2.83325 15.6139 2.83325 14C2.83325 12.3862 3.1395 10.8695 3.752 9.45004C4.3645 8.0306 5.19575 6.79587 6.24575 5.74587C7.29575 4.69587 8.53047 3.86462 9.94992 3.25212C11.3694 2.63962 12.886 2.33337 14.4999 2.33337C16.1138 2.33337 17.6305 2.63962 19.0499 3.25212C20.4694 3.86462 21.7041 4.69587 22.7541 5.74587C23.8041 6.79587 24.6353 8.0306 25.2478 9.45004C25.8603 10.8695 26.1666 12.3862 26.1666 14C26.1666 15.6139 25.8603 17.1306 25.2478 18.55C24.6353 19.9695 23.8041 21.2042 22.7541 22.2542C21.7041 23.3042 20.4694 24.1355 19.0499 24.748C17.6305 25.3605 16.1138 25.6667 14.4999 25.6667Z" fill="black"/>
</g>
</svg>
