<svg width="29" height="28" viewBox="0 0 29 28" fill="none" xmlns="http://www.w3.org/2000/svg">
    <path
        d="M3.70841 22.1666C3.45564 22.1666 3.24661 22.0791 3.08133 21.9041C2.91605 21.7291 2.83341 21.5152 2.83341 21.2625C2.83341 21.0097 2.92091 20.8007 3.09591 20.6354C3.27091 20.4701 3.4848 20.3875 3.73758 20.3875H25.2917C25.5445 20.3875 25.7536 20.4701 25.9188 20.6354C26.0841 20.8007 26.1667 21.0097 26.1667 21.2625C26.1667 21.5152 26.0792 21.7291 25.9042 21.9041C25.7292 22.0791 25.5154 22.1666 25.2626 22.1666H3.70841ZM3.38758 14.4375C3.23203 14.3402 3.12508 14.2041 3.06675 14.0291C3.00841 13.8541 3.02786 13.6888 3.12508 13.5333L3.94175 12.1333H2.30841C2.13341 12.1333 1.98272 12.0701 1.85633 11.9437C1.72994 11.8173 1.66675 11.6569 1.66675 11.4625C1.66675 11.2875 1.72994 11.1368 1.85633 11.0104C1.98272 10.884 2.14314 10.8208 2.33758 10.8208H3.94175L3.12508 9.42079C3.02786 9.26524 3.00355 9.09996 3.05216 8.92496C3.10078 8.74996 3.20286 8.61385 3.35841 8.51663C3.51397 8.4194 3.67925 8.39996 3.85425 8.45829C4.02925 8.51663 4.16536 8.62357 4.26258 8.77913L5.05008 10.15L5.83758 8.77913C5.9348 8.58468 6.07091 8.46801 6.24591 8.42913C6.42091 8.39024 6.58619 8.4194 6.74175 8.51663C6.8973 8.61385 6.99939 8.74996 7.048 8.92496C7.09661 9.09996 7.0723 9.26524 6.97508 9.42079L6.15841 10.8208H7.79175C7.96675 10.8208 8.11744 10.884 8.24383 11.0104C8.37022 11.1368 8.43341 11.2875 8.43341 11.4625C8.43341 11.6569 8.37022 11.8173 8.24383 11.9437C8.11744 12.0701 7.96675 12.1333 7.79175 12.1333H6.15841L6.97508 13.5333C7.0723 13.6888 7.09661 13.859 7.048 14.0437C6.99939 14.2284 6.8973 14.3597 6.74175 14.4375C6.58619 14.5347 6.42091 14.5541 6.24591 14.4958C6.07091 14.4375 5.9348 14.3305 5.83758 14.175L5.05008 12.8041L4.26258 14.175C4.16536 14.3694 4.03411 14.4861 3.86883 14.525C3.70355 14.5638 3.54314 14.5347 3.38758 14.4375ZM12.8084 14.4083C12.6529 14.3111 12.5508 14.1701 12.5022 13.9854C12.4536 13.8007 12.4779 13.6305 12.5751 13.475L13.3917 12.075H11.7584C11.5834 12.075 11.4327 12.0118 11.3063 11.8854C11.1799 11.759 11.1167 11.5986 11.1167 11.4041C11.1167 11.2291 11.1799 11.0784 11.3063 10.952C11.4327 10.8257 11.5931 10.7625 11.7876 10.7625H13.3917L12.5751 9.36246C12.4779 9.2069 12.4536 9.04163 12.5022 8.86663C12.5508 8.69163 12.6529 8.55551 12.8084 8.45829C12.964 8.36107 13.1292 8.34163 13.3042 8.39996C13.4792 8.45829 13.6154 8.56524 13.7126 8.72079L14.5001 10.0916L15.2876 8.72079C15.3848 8.52635 15.5161 8.40968 15.6813 8.37079C15.8466 8.3319 16.007 8.36107 16.1626 8.45829C16.3181 8.55551 16.4251 8.69163 16.4834 8.86663C16.5417 9.04163 16.5223 9.2069 16.4251 9.36246L15.6084 10.7625H17.2417C17.4167 10.7625 17.5674 10.8257 17.6938 10.952C17.8202 11.0784 17.8834 11.2291 17.8834 11.4041C17.8834 11.5986 17.8202 11.759 17.6938 11.8854C17.5674 12.0118 17.4167 12.075 17.2417 12.075H15.6084L16.4251 13.475C16.5223 13.6305 16.5466 13.8055 16.498 14C16.4494 14.1944 16.3473 14.3305 16.1917 14.4083C16.0362 14.5055 15.8661 14.5298 15.6813 14.4812C15.4966 14.4326 15.3556 14.3208 15.2584 14.1458L14.5001 12.8041L13.7417 14.1458C13.6445 14.3013 13.5036 14.4083 13.3188 14.4666C13.1341 14.525 12.964 14.5055 12.8084 14.4083ZM22.2584 14.4083C22.1029 14.3111 22.0008 14.1701 21.9522 13.9854C21.9036 13.8007 21.9279 13.6305 22.0251 13.475L22.8417 12.075H21.2084C21.0334 12.075 20.8827 12.0118 20.7563 11.8854C20.6299 11.759 20.5667 11.5986 20.5667 11.4041C20.5667 11.2291 20.6299 11.0784 20.7563 10.952C20.8827 10.8257 21.0431 10.7625 21.2376 10.7625H22.8417L22.0251 9.36246C21.9279 9.2069 21.9036 9.04163 21.9522 8.86663C22.0008 8.69163 22.1029 8.55551 22.2584 8.45829C22.414 8.36107 22.5792 8.34163 22.7542 8.39996C22.9292 8.45829 23.0654 8.56524 23.1626 8.72079L23.9501 10.0916L24.7376 8.72079C24.8348 8.52635 24.9612 8.40968 25.1167 8.37079C25.2723 8.3319 25.4376 8.36107 25.6126 8.45829C25.7681 8.55551 25.8751 8.69163 25.9334 8.86663C25.9917 9.04163 25.9723 9.2069 25.8751 9.36246L25.0584 10.7625H26.6917C26.8667 10.7625 27.0174 10.8257 27.1438 10.952C27.2702 11.0784 27.3334 11.2291 27.3334 11.4041C27.3334 11.5986 27.2702 11.759 27.1438 11.8854C27.0174 12.0118 26.8667 12.075 26.6917 12.075H25.0584L25.8751 13.475C25.9723 13.6305 25.9966 13.8055 25.948 14C25.8994 14.1944 25.7973 14.3305 25.6417 14.4083C25.4862 14.5055 25.3161 14.5298 25.1313 14.4812C24.9466 14.4326 24.8056 14.3208 24.7084 14.1458L23.9501 12.8041L23.1917 14.1458C23.0945 14.3013 22.9536 14.4083 22.7688 14.4666C22.5841 14.525 22.414 14.5055 22.2584 14.4083Z"
        fill="black" />
</svg>