<svg width="29" height="28" viewBox="0 0 29 28" fill="none" xmlns="http://www.w3.org/2000/svg">
<path d="M20.3333 18.375C19.3611 18.375 18.5347 18.0347 17.8542 17.3542C17.1736 16.6736 16.8333 15.8472 16.8333 14.875C16.8333 13.9028 17.1736 13.0764 17.8542 12.3958C18.5347 11.7153 19.3611 11.375 20.3333 11.375C21.3056 11.375 22.1319 11.7153 22.8125 12.3958C23.4931 13.0764 23.8333 13.9028 23.8333 14.875C23.8333 15.8472 23.4931 16.6736 22.8125 17.3542C22.1319 18.0347 21.3056 18.375 20.3333 18.375ZM11.5833 23.1583V24.5H5.75C5.26389 24.5 4.85069 24.3299 4.51042 23.9896C4.17014 23.6493 4 23.2361 4 22.75V5.25C4 4.76389 4.17014 4.35069 4.51042 4.01042C4.85069 3.67014 5.26389 3.5 5.75 3.5H23.25C23.7361 3.5 24.1493 3.67014 24.4896 4.01042C24.8299 4.35069 25 4.76389 25 5.25V12.4542C24.5528 11.5792 23.9111 10.8889 23.075 10.3833C22.2389 9.87778 21.325 9.625 20.3333 9.625V8.16667H9.54167C9.28889 8.16667 9.07986 8.24931 8.91458 8.41458C8.74931 8.57986 8.66667 8.78889 8.66667 9.04167C8.66667 9.29444 8.74931 9.50347 8.91458 9.66875C9.07986 9.83403 9.28889 9.91667 9.54167 9.91667H18.6125C17.8736 10.1889 17.2174 10.6069 16.6438 11.1708C16.0701 11.7347 15.6472 12.3861 15.375 13.125H9.54167C9.28889 13.125 9.07986 13.2076 8.91458 13.3729C8.74931 13.5382 8.66667 13.7472 8.66667 14C8.66667 14.2528 8.74931 14.4618 8.91458 14.6271C9.07986 14.7924 9.28889 14.875 9.54167 14.875H15.0833C15.0833 15.4778 15.1806 16.0514 15.375 16.5958C15.5694 17.1403 15.8417 17.6361 16.1917 18.0833H9.54167C9.28889 18.0833 9.07986 18.166 8.91458 18.3312C8.74931 18.4965 8.66667 18.7056 8.66667 18.9583C8.66667 19.2111 8.74931 19.4201 8.91458 19.5854C9.07986 19.7507 9.28889 19.8333 9.54167 19.8333H13.2458C12.7208 20.2222 12.3125 20.7132 12.0208 21.3062C11.7292 21.8993 11.5833 22.5167 11.5833 23.1583ZM14.2083 26.5417C13.9556 26.5417 13.7465 26.459 13.5813 26.2937C13.416 26.1285 13.3333 25.9194 13.3333 25.6667V23.1583C13.3333 22.75 13.4306 22.366 13.625 22.0062C13.8194 21.6465 14.0917 21.3597 14.4417 21.1458C14.9861 20.8153 15.4479 20.5722 15.8271 20.4167C16.2063 20.2611 16.7069 20.1056 17.3292 19.95C17.5236 19.9111 17.7132 19.9062 17.8979 19.9354C18.0826 19.9646 18.2333 20.0569 18.35 20.2125L20.3333 22.7792L22.3167 20.2125C22.4333 20.0569 22.584 19.9646 22.7688 19.9354C22.9535 19.9062 23.1431 19.9111 23.3375 19.95C23.9597 20.1056 24.4556 20.2611 24.825 20.4167C25.1944 20.5722 25.6514 20.8153 26.1958 21.1458C26.5458 21.3597 26.8229 21.6465 27.0271 22.0062C27.2313 22.366 27.3333 22.75 27.3333 23.1583V25.6667C27.3333 25.9194 27.2507 26.1285 27.0854 26.2937C26.9201 26.459 26.7111 26.5417 26.4583 26.5417H14.2083Z" fill="black"/>
</svg>
