<svg width="29" height="28" viewBox="0 0 29 28" fill="none" xmlns="http://www.w3.org/2000/svg">
<path d="M14.5001 13.9708C13.2167 13.9708 12.1667 13.5625 11.3501 12.7458C10.5334 11.9292 10.1251 10.8792 10.1251 9.59583C10.1251 8.31249 10.5334 7.26249 11.3501 6.44583C12.1667 5.62916 13.2167 5.22083 14.5001 5.22083C15.7834 5.22083 16.8334 5.62916 17.6501 6.44583C18.4667 7.26249 18.8751 8.31249 18.8751 9.59583C18.8751 10.8792 18.4667 11.9292 17.6501 12.7458C16.8334 13.5625 15.7834 13.9708 14.5001 13.9708ZM6.91675 23.3333C6.43064 23.3333 6.01744 23.1632 5.67716 22.8229C5.33689 22.4826 5.16675 22.0694 5.16675 21.5833V20.5917C5.16675 19.8528 5.35147 19.2208 5.72091 18.6958C6.09036 18.1708 6.56675 17.7722 7.15008 17.5C8.45286 16.9167 9.70217 16.4792 10.898 16.1875C12.0938 15.8958 13.2945 15.75 14.5001 15.75C15.7056 15.75 16.9015 15.9007 18.0876 16.2021C19.2737 16.5035 20.5181 16.9361 21.8209 17.5C22.4237 17.7722 22.9098 18.1708 23.2792 18.6958C23.6487 19.2208 23.8334 19.8528 23.8334 20.5917V21.5833C23.8334 22.0694 23.6633 22.4826 23.323 22.8229C22.9827 23.1632 22.5695 23.3333 22.0834 23.3333H6.91675Z" fill="black"/>
</svg>
