<svg width="29" height="28" viewBox="0 0 29 28" fill="none" xmlns="http://www.w3.org/2000/svg">
<path d="M23.6875 24.5C21.3153 24.5 18.9576 23.9167 16.6146 22.75C14.2715 21.5833 12.1667 20.0667 10.3 18.2C8.43333 16.3333 6.91667 14.2285 5.75 11.8854C4.58333 9.54236 4 7.18472 4 4.8125C4 4.44306 4.12639 4.13194 4.37917 3.87917C4.63194 3.62639 4.94306 3.5 5.3125 3.5H9.39583C9.66806 3.5 9.90625 3.59236 10.1104 3.77708C10.3146 3.96181 10.4458 4.20972 10.5042 4.52083L11.2917 8.19583C11.3306 8.46806 11.3257 8.71597 11.2771 8.93958C11.2285 9.16319 11.1264 9.35278 10.9708 9.50833L8.05417 12.4542C9.14306 14.2625 10.3632 15.8375 11.7146 17.1792C13.066 18.5208 14.5972 19.6583 16.3083 20.5917L19.0792 17.7333C19.2736 17.5194 19.4972 17.3687 19.75 17.2812C20.0028 17.1937 20.2556 17.1792 20.5083 17.2375L23.9792 17.9958C24.2708 18.0542 24.5139 18.2 24.7083 18.4333C24.9028 18.6667 25 18.9389 25 19.25V23.1875C25 23.5569 24.8736 23.8681 24.6208 24.1208C24.3681 24.3736 24.0569 24.5 23.6875 24.5Z" fill="black"/>
</svg>
