<svg width="29" height="28" viewBox="0 0 29 28" fill="none" xmlns="http://www.w3.org/2000/svg">
<mask id="mask0_1680_39711" style="mask-type:alpha" maskUnits="userSpaceOnUse" x="0" y="0" width="29" height="28">
<rect x="0.5" width="28" height="28" fill="#D9D9D9"/>
</mask>
<g mask="url(#mask0_1680_39711)">
<path d="M6.33325 25.6667C5.69159 25.6667 5.14228 25.4382 4.68534 24.9813C4.22839 24.5243 3.99992 23.975 3.99992 23.3334V10.1792C3.64992 9.96532 3.36797 9.68824 3.15409 9.34796C2.9402 9.00768 2.83325 8.61393 2.83325 8.16671V4.66671C2.83325 4.02504 3.06172 3.47574 3.51867 3.01879C3.97561 2.56185 4.52492 2.33337 5.16659 2.33337H23.8333C24.4749 2.33337 25.0242 2.56185 25.4812 3.01879C25.9381 3.47574 26.1666 4.02504 26.1666 4.66671V8.16671C26.1666 8.61393 26.0596 9.00768 25.8458 9.34796C25.6319 9.68824 25.3499 9.96532 24.9999 10.1792V23.3334C24.9999 23.975 24.7714 24.5243 24.3145 24.9813C23.8576 25.4382 23.3083 25.6667 22.6666 25.6667H6.33325ZM5.16659 8.16671H23.8333V4.66671H5.16659V8.16671ZM12.1666 16.3334H16.8333C17.1638 16.3334 17.4409 16.2216 17.6645 15.998C17.8881 15.7743 17.9999 15.4973 17.9999 15.1667C17.9999 14.8362 17.8881 14.5591 17.6645 14.3355C17.4409 14.1118 17.1638 14 16.8333 14H12.1666C11.836 14 11.5589 14.1118 11.3353 14.3355C11.1117 14.5591 10.9999 14.8362 10.9999 15.1667C10.9999 15.4973 11.1117 15.7743 11.3353 15.998C11.5589 16.2216 11.836 16.3334 12.1666 16.3334Z" fill="black"/>
</g>
</svg>
