<svg width="29" height="28" viewBox="0 0 29 28" fill="none" xmlns="http://www.w3.org/2000/svg">
<path d="M3.70825 7.37921C3.45547 7.37921 3.24645 7.29657 3.08117 7.13129C2.91589 6.96601 2.83325 6.75699 2.83325 6.50421V3.20837C2.83325 2.9556 2.91589 2.74657 3.08117 2.58129C3.24645 2.41601 3.45547 2.33337 3.70825 2.33337H7.00409C7.25686 2.33337 7.46589 2.41601 7.63117 2.58129C7.79645 2.74657 7.87909 2.9556 7.87909 3.20837C7.87909 3.46115 7.79645 3.67018 7.63117 3.83546C7.46589 4.00074 7.25686 4.08337 7.00409 4.08337H4.58325V6.50421C4.58325 6.75699 4.50061 6.96601 4.33534 7.13129C4.17006 7.29657 3.96103 7.37921 3.70825 7.37921ZM3.70825 25.6667C3.45547 25.6667 3.24645 25.5841 3.08117 25.4188C2.91589 25.2535 2.83325 25.0445 2.83325 24.7917V21.4959C2.83325 21.2431 2.91589 21.0341 3.08117 20.8688C3.24645 20.7035 3.45547 20.6209 3.70825 20.6209C3.96103 20.6209 4.17006 20.7035 4.33534 20.8688C4.50061 21.0341 4.58325 21.2431 4.58325 21.4959V23.9167H7.00409C7.25686 23.9167 7.46589 23.9993 7.63117 24.1646C7.79645 24.3299 7.87909 24.5389 7.87909 24.7917C7.87909 25.0445 7.79645 25.2535 7.63117 25.4188C7.46589 25.5841 7.25686 25.6667 7.00409 25.6667H3.70825ZM21.9958 25.6667C21.743 25.6667 21.5339 25.5841 21.3687 25.4188C21.2034 25.2535 21.1208 25.0445 21.1208 24.7917C21.1208 24.5389 21.2034 24.3299 21.3687 24.1646C21.5339 23.9993 21.743 23.9167 21.9958 23.9167H24.4166V21.4959C24.4166 21.2431 24.4992 21.0341 24.6645 20.8688C24.8298 20.7035 25.0388 20.6209 25.2916 20.6209C25.5444 20.6209 25.7534 20.7035 25.9187 20.8688C26.0839 21.0341 26.1666 21.2431 26.1666 21.4959V24.7917C26.1666 25.0445 26.0839 25.2535 25.9187 25.4188C25.7534 25.5841 25.5444 25.6667 25.2916 25.6667H21.9958ZM25.2916 7.37921C25.0388 7.37921 24.8298 7.29657 24.6645 7.13129C24.4992 6.96601 24.4166 6.75699 24.4166 6.50421V4.08337H21.9958C21.743 4.08337 21.5339 4.00074 21.3687 3.83546C21.2034 3.67018 21.1208 3.46115 21.1208 3.20837C21.1208 2.9556 21.2034 2.74657 21.3687 2.58129C21.5339 2.41601 21.743 2.33337 21.9958 2.33337H25.2916C25.5444 2.33337 25.7534 2.41601 25.9187 2.58129C26.0839 2.74657 26.1666 2.9556 26.1666 3.20837V6.50421C26.1666 6.75699 26.0839 6.96601 25.9187 7.13129C25.7534 7.29657 25.5444 7.37921 25.2916 7.37921ZM21.1499 20.6792H22.9874V21.5167C22.9874 22.069 22.5397 22.5167 21.9874 22.5167H21.1499V20.6792ZM21.1499 17.0042H22.9874V18.8417H21.1499V17.0042ZM19.3124 18.8417H21.1499V20.6792H19.3124V18.8417ZM17.4749 20.6792H19.3124V22.5167H17.4749V20.6792ZM15.6374 18.8417H17.4749V20.6792H15.6374V18.8417ZM19.3124 15.1667H21.1499V17.0042H19.3124V15.1667ZM17.4749 17.0042H19.3124V18.8417H17.4749V17.0042ZM15.6374 16.1667C15.6374 15.6144 16.0851 15.1667 16.6374 15.1667H17.4749V17.0042H15.6374V16.1667ZM21.9874 5.48337C22.5397 5.48337 22.9874 5.93109 22.9874 6.48337V11.8334C22.9874 12.3857 22.5397 12.8334 21.9874 12.8334H16.6374C16.0851 12.8334 15.6374 12.3857 15.6374 11.8334V6.48337C15.6374 5.93109 16.0851 5.48337 16.6374 5.48337H21.9874ZM12.3333 15.1667C12.8855 15.1667 13.3333 15.6144 13.3333 16.1667V21.5167C13.3333 22.069 12.8855 22.5167 12.3333 22.5167H6.98325C6.43097 22.5167 5.98325 22.069 5.98325 21.5167V16.1667C5.98325 15.6144 6.43097 15.1667 6.98325 15.1667H12.3333ZM12.3333 5.48337C12.8855 5.48337 13.3333 5.93109 13.3333 6.48337V11.8334C13.3333 12.3857 12.8855 12.8334 12.3333 12.8334H6.98325C6.43097 12.8334 5.98325 12.3857 5.98325 11.8334V6.48337C5.98325 5.93109 6.43097 5.48337 6.98325 5.48337H12.3333Z" fill="black"/>
</svg>
