<svg width="29" height="28" viewBox="0 0 29 28" fill="none" xmlns="http://www.w3.org/2000/svg">
<path d="M20.8292 19.8333C20.3431 19.8333 19.9786 19.634 19.7355 19.2354C19.4924 18.8368 19.4779 18.4236 19.6917 17.9958L21.0917 15.1667H17.4167C16.9306 15.1667 16.5174 14.9965 16.1772 14.6562C15.8369 14.316 15.6667 13.9028 15.6667 13.4167V8.75C15.6667 8.26389 15.8369 7.85069 16.1772 7.51042C16.5174 7.17014 16.9306 7 17.4167 7H22.0834C22.5695 7 22.9827 7.17014 23.323 7.51042C23.6633 7.85069 23.8334 8.26389 23.8334 8.75V14.9917C23.8334 15.1278 23.8188 15.2639 23.7897 15.4C23.7605 15.5361 23.7167 15.6625 23.6584 15.7792L21.9667 19.1333C21.8695 19.3472 21.7188 19.5174 21.5147 19.6437C21.3105 19.7701 21.082 19.8333 20.8292 19.8333ZM10.3292 19.8333C9.84314 19.8333 9.47855 19.634 9.2355 19.2354C8.99244 18.8368 8.97786 18.4236 9.19175 17.9958L10.5917 15.1667H6.91675C6.43064 15.1667 6.01744 14.9965 5.67716 14.6562C5.33689 14.316 5.16675 13.9028 5.16675 13.4167V8.75C5.16675 8.26389 5.33689 7.85069 5.67716 7.51042C6.01744 7.17014 6.43064 7 6.91675 7H11.5834C12.0695 7 12.4827 7.17014 12.823 7.51042C13.1633 7.85069 13.3334 8.26389 13.3334 8.75V14.9917C13.3334 15.1278 13.3188 15.2639 13.2897 15.4C13.2605 15.5361 13.2167 15.6625 13.1584 15.7792L11.4667 19.1333C11.3695 19.3472 11.2188 19.5174 11.0147 19.6437C10.8105 19.7701 10.582 19.8333 10.3292 19.8333Z" fill="black"/>
</svg>
