<svg width="29" height="28" viewBox="0 0 29 28" fill="none" xmlns="http://www.w3.org/2000/svg">
<mask id="mask0_1557_4766" style="mask-type:alpha" maskUnits="userSpaceOnUse" x="0" y="0" width="29" height="28">
<rect x="0.5" width="28" height="28" fill="#D9D9D9"/>
</mask>
<g mask="url(#mask0_1557_4766)">
<path d="M14.4996 22.9255L12.3413 24.5589C12.1079 24.7339 11.8746 24.7387 11.6413 24.5734C11.4079 24.4082 11.3399 24.1894 11.4371 23.9172L12.2829 21.2339L10.1538 19.7172C9.92043 19.5616 9.85237 19.3477 9.94959 19.0755C10.0468 18.8033 10.2315 18.6672 10.5038 18.6672H13.0996L13.9163 15.9839L9.77459 13.5339C9.42459 13.32 9.15237 13.038 8.95793 12.688C8.76348 12.338 8.66626 11.9394 8.66626 11.4922V4.6672C8.66626 4.02553 8.89473 3.47622 9.35168 3.01928C9.80862 2.56233 10.3579 2.33386 10.9996 2.33386H17.9996C18.6413 2.33386 19.1906 2.56233 19.6475 3.01928C20.1045 3.47622 20.3329 4.02553 20.3329 4.6672V11.4922C20.3329 11.9394 20.2357 12.338 20.0413 12.688C19.8468 13.038 19.5746 13.32 19.2246 13.5339L15.0829 15.9839L15.8996 18.6672H18.4954C18.7676 18.6672 18.9524 18.8033 19.0496 19.0755C19.1468 19.3477 19.0788 19.5616 18.8454 19.7172L16.7163 21.2339L17.5621 23.9172C17.6593 24.1894 17.5913 24.4082 17.3579 24.5734C17.1246 24.7387 16.8913 24.7339 16.6579 24.5589L14.4996 22.9255ZM13.3329 4.6672V12.8922L14.4996 13.5922L15.6663 12.8922V4.6672H13.3329Z" fill="black"/>
</g>
</svg>
