<svg width="29" height="28" viewBox="0 0 29 28" fill="none" xmlns="http://www.w3.org/2000/svg">
<mask id="mask0_1686_50869" style="mask-type:alpha" maskUnits="userSpaceOnUse" x="0" y="0" width="29" height="28">
<rect x="0.5" width="28" height="28" fill="#D9D9D9"/>
</mask>
<g mask="url(#mask0_1686_50869)">
<path fill-rule="evenodd" clip-rule="evenodd" d="M9.94992 24.748C11.3694 25.3605 12.886 25.6667 14.4999 25.6667C16.1138 25.6667 17.6305 25.3605 19.0499 24.748C20.4694 24.1355 21.7041 23.3042 22.7541 22.2542C23.8041 21.2042 24.6353 19.9695 25.2478 18.55C25.8603 17.1306 26.1666 15.6139 26.1666 14C26.1666 12.3862 25.8603 10.8695 25.2478 9.45004C24.6353 8.0306 23.8041 6.79587 22.7541 5.74587C21.7041 4.69587 20.4694 3.86462 19.0499 3.25212C17.6305 2.63962 16.1138 2.33337 14.4999 2.33337V7.01625C14.5541 7.00619 14.6107 7.00117 14.6697 7.00117C14.9038 7.00117 15.1001 7.08036 15.2585 7.23875C15.4169 7.39714 15.4961 7.59341 15.4961 7.82755V8.73658C16.0195 8.81922 16.474 8.98794 16.8596 9.24275C17.2453 9.49755 17.5621 9.81089 17.81 10.1828C17.9339 10.3618 17.958 10.5615 17.8823 10.7819C17.8065 11.0023 17.6516 11.1607 17.4174 11.2571C17.2246 11.3397 17.0249 11.3432 16.8183 11.2674C16.6117 11.1916 16.4189 11.0574 16.2398 10.8645C16.0608 10.6717 15.8507 10.5236 15.6097 10.4203C15.3687 10.3171 15.0691 10.2654 14.711 10.2654C14.6386 10.2654 14.5682 10.2673 14.4999 10.2712V13.2152C14.8203 13.3313 15.1936 13.4499 15.62 13.571C16.5704 13.8464 17.29 14.2837 17.779 14.8828C18.2679 15.482 18.5124 16.1741 18.5124 16.9592C18.5124 17.937 18.2232 18.6808 17.6447 19.1904C17.0662 19.7 16.35 20.0168 15.4961 20.1407V21.0498C15.4961 21.2839 15.4169 21.4802 15.2585 21.6386C15.1001 21.797 14.9038 21.8762 14.6697 21.8762C14.4356 21.8762 14.2393 21.797 14.0809 21.6386C13.9225 21.4802 13.8433 21.2839 13.8433 21.0498V20.0994C13.2235 19.9617 12.6795 19.7207 12.2112 19.3763C11.7429 19.032 11.3641 18.5499 11.0749 17.9302C10.9785 17.7373 10.9751 17.5342 11.0646 17.3207C11.1541 17.1072 11.3159 16.9523 11.5501 16.8559C11.7429 16.7732 11.9426 16.7767 12.1492 16.8662C12.3558 16.9557 12.5142 17.1038 12.6244 17.3104C12.8585 17.7236 13.1547 18.0369 13.5128 18.2504C13.8709 18.4639 14.3116 18.5706 14.835 18.5706C15.3997 18.5706 15.8783 18.4432 16.2708 18.1884C16.6634 17.9336 16.8596 17.5376 16.8596 17.0005C16.8596 16.5184 16.7081 16.1362 16.4051 15.8539C16.1021 15.5715 15.3997 15.2513 14.2978 14.8932C13.1133 14.5213 12.3007 14.0771 11.86 13.5606C11.8201 13.5139 11.7821 13.4663 11.7458 13.4178H14.4999V13.4167L3.89722 13.391H2.83325V14C2.83325 15.6139 3.1395 17.1306 3.752 18.55C4.3645 19.9695 5.19575 21.2042 6.24575 22.2542C7.29575 23.3042 8.53047 24.1355 9.94992 24.748Z" fill="black"/>
</g>
</svg>
