<svg width="29" height="28" viewBox="0 0 29 28" fill="none" xmlns="http://www.w3.org/2000/svg">
<mask id="mask0_1851_45972" style="mask-type:alpha" maskUnits="userSpaceOnUse" x="0" y="0" width="29" height="28">
<rect x="0.5" width="28" height="28" fill="#D9D9D9"/>
</mask>
<g mask="url(#mask0_1851_45972)">
<path d="M13.275 18.025L17.3292 13.9709C17.5625 13.7375 17.8444 13.6209 18.175 13.6209C18.5056 13.6209 18.7875 13.7375 19.0208 13.9709C19.2542 14.2042 19.3708 14.4862 19.3708 14.8167C19.3708 15.1473 19.2542 15.4292 19.0208 15.6625L14.0917 20.5917C13.8583 20.825 13.5861 20.9417 13.275 20.9417C12.9639 20.9417 12.6917 20.825 12.4583 20.5917L9.97917 18.1125C9.74583 17.8792 9.62917 17.5973 9.62917 17.2667C9.62917 16.9362 9.74583 16.6542 9.97917 16.4209C10.2125 16.1875 10.4944 16.0709 10.825 16.0709C11.1556 16.0709 11.4375 16.1875 11.6708 16.4209L13.275 18.025ZM6.33333 25.6667C5.69167 25.6667 5.14236 25.4382 4.68542 24.9813C4.22847 24.5243 4 23.975 4 23.3334V7.00004C4 6.35837 4.22847 5.80907 4.68542 5.35212C5.14236 4.89518 5.69167 4.66671 6.33333 4.66671H7.5V3.50004C7.5 3.16949 7.61181 2.8924 7.83542 2.66879C8.05903 2.44518 8.33611 2.33337 8.66667 2.33337C8.99722 2.33337 9.27431 2.44518 9.49792 2.66879C9.72153 2.8924 9.83333 3.16949 9.83333 3.50004V4.66671H19.1667V3.50004C19.1667 3.16949 19.2785 2.8924 19.5021 2.66879C19.7257 2.44518 20.0028 2.33337 20.3333 2.33337C20.6639 2.33337 20.941 2.44518 21.1646 2.66879C21.3882 2.8924 21.5 3.16949 21.5 3.50004V4.66671H22.6667C23.3083 4.66671 23.8576 4.89518 24.3146 5.35212C24.7715 5.80907 25 6.35837 25 7.00004V23.3334C25 23.975 24.7715 24.5243 24.3146 24.9813C23.8576 25.4382 23.3083 25.6667 22.6667 25.6667H6.33333ZM6.33333 23.3334H22.6667V11.6667H6.33333V23.3334Z" fill="black"/>
</g>
</svg>
