<svg width="25" height="24" viewBox="0 0 25 24" fill="none" xmlns="http://www.w3.org/2000/svg">
<mask id="mask0_1213_2633" style="mask-type:alpha" maskUnits="userSpaceOnUse" x="0" y="0" width="25" height="24">
<rect x="0.5" width="24" height="24" fill="#D9D9D9"/>
</mask>
<g mask="url(#mask0_1213_2633)">
<path d="M5.5 21C4.95 21 4.47917 20.8042 4.0875 20.4125C3.69583 20.0208 3.5 19.55 3.5 19V5C3.5 4.45 3.69583 3.97917 4.0875 3.5875C4.47917 3.19583 4.95 3 5.5 3H16.675C16.9417 3 17.1958 3.05 17.4375 3.15C17.6792 3.25 17.8917 3.39167 18.075 3.575L20.925 6.425C21.1083 6.60833 21.25 6.82083 21.35 7.0625C21.45 7.30417 21.5 7.55833 21.5 7.825V19C21.5 19.55 21.3042 20.0208 20.9125 20.4125C20.5208 20.8042 20.05 21 19.5 21H5.5ZM12.5 18C13.3333 18 14.0417 17.7083 14.625 17.125C15.2083 16.5417 15.5 15.8333 15.5 15C15.5 14.1667 15.2083 13.4583 14.625 12.875C14.0417 12.2917 13.3333 12 12.5 12C11.6667 12 10.9583 12.2917 10.375 12.875C9.79167 13.4583 9.5 14.1667 9.5 15C9.5 15.8333 9.79167 16.5417 10.375 17.125C10.9583 17.7083 11.6667 18 12.5 18ZM7.5 10H14.5C14.7833 10 15.0208 9.90417 15.2125 9.7125C15.4042 9.52083 15.5 9.28333 15.5 9V7C15.5 6.71667 15.4042 6.47917 15.2125 6.2875C15.0208 6.09583 14.7833 6 14.5 6H7.5C7.21667 6 6.97917 6.09583 6.7875 6.2875C6.59583 6.47917 6.5 6.71667 6.5 7V9C6.5 9.28333 6.59583 9.52083 6.7875 9.7125C6.97917 9.90417 7.21667 10 7.5 10Z" fill="black"/>
</g>
</svg>
