<svg width="29" height="28" viewBox="0 0 29 28" fill="none" xmlns="http://www.w3.org/2000/svg">
<path d="M18.1749 18.9875C18.3305 19.1625 18.5346 19.25 18.7874 19.25C19.0402 19.25 19.2541 19.1528 19.4291 18.9584C19.6235 18.7834 19.7208 18.5646 19.7208 18.3021C19.7208 18.0396 19.6333 17.8209 19.4583 17.6459L15.4624 13.65V8.63337C15.4624 8.40004 15.3798 8.20074 15.2145 8.03546C15.0492 7.87018 14.8402 7.78754 14.5874 7.78754C14.3346 7.78754 14.1256 7.87018 13.9603 8.03546C13.7951 8.20074 13.7124 8.40976 13.7124 8.66254V14C13.7124 14.1167 13.7319 14.2237 13.7708 14.3209C13.8096 14.4181 13.868 14.5153 13.9458 14.6125L18.1749 18.9875ZM14.4999 25.6667C12.9055 25.6667 11.3985 25.3605 9.97909 24.748C8.55964 24.1355 7.32006 23.2993 6.26034 22.2396C5.20061 21.1799 4.3645 19.9403 3.752 18.5209C3.1395 17.1014 2.83325 15.5945 2.83325 14C2.83325 12.4056 3.1395 10.8987 3.752 9.47921C4.3645 8.05976 5.20061 6.82018 6.26034 5.76046C7.32006 4.70074 8.55964 3.86462 9.97909 3.25212C11.3985 2.63962 12.9055 2.33337 14.4999 2.33337C16.0944 2.33337 17.6013 2.63962 19.0208 3.25212C20.4402 3.86462 21.6798 4.70074 22.7395 5.76046C23.7992 6.82018 24.6353 8.05976 25.2478 9.47921C25.8603 10.8987 26.1666 12.4056 26.1666 14C26.1666 15.5945 25.8603 17.1014 25.2478 18.5209C24.6353 19.9403 23.7992 21.1799 22.7395 22.2396C21.6798 23.2993 20.4402 24.1355 19.0208 24.748C17.6013 25.3605 16.0944 25.6667 14.4999 25.6667Z" fill="black"/>
</svg>
