<svg width="29" height="28" viewBox="0 0 29 28" fill="none" xmlns="http://www.w3.org/2000/svg">
<mask id="mask0_1654_42866" style="mask-type:alpha" maskUnits="userSpaceOnUse" x="0" y="0" width="29" height="28">
<rect x="0.5" width="28" height="28" fill="#D9D9D9"/>
</mask>
<g mask="url(#mask0_1654_42866)">
<path fill-rule="evenodd" clip-rule="evenodd" d="M3.37292 22.7938C3.82986 23.2507 4.37917 23.4792 5.02083 23.4792H23.6875C24.3292 23.4792 24.8785 23.2507 25.3354 22.7938C25.7924 22.3368 26.0208 21.7875 26.0208 21.1458V17.2083C26.0208 16.9944 25.9528 16.8097 25.8167 16.6542C25.6806 16.4986 25.5056 16.4014 25.2917 16.3625C24.825 16.2069 24.441 15.925 24.1396 15.5167C23.8382 15.1083 23.6875 14.6514 23.6875 14.1458C23.6875 13.6403 23.8382 13.1833 24.1396 12.775C24.441 12.3667 24.825 12.0847 25.2917 11.9292C25.5056 11.8903 25.6806 11.7931 25.8167 11.6375C25.9528 11.4819 26.0208 11.2972 26.0208 11.0833V7.14583C26.0208 6.50417 25.7924 5.95486 25.3354 5.49792C24.8785 5.04097 24.3292 4.8125 23.6875 4.8125L5.02083 4.8125C4.37917 4.8125 3.82986 5.04097 3.37292 5.49792C2.91597 5.95486 2.6875 6.50417 2.6875 7.14583L2.6875 11.0833C2.6875 11.2972 2.75556 11.4819 2.89167 11.6375C3.02778 11.7931 3.20278 11.8903 3.41667 11.9292C3.88333 12.0847 4.26736 12.3667 4.56875 12.775C4.87014 13.1833 5.02083 13.6403 5.02083 14.1458C5.02083 14.6514 4.87014 15.1083 4.56875 15.5167C4.26736 15.925 3.88333 16.2069 3.41667 16.3625C3.20278 16.4014 3.02778 16.4986 2.89167 16.6542C2.75556 16.8097 2.6875 16.9944 2.6875 17.2083V21.1458C2.6875 21.7875 2.91597 22.3368 3.37292 22.7938ZM15.9243 9.75989L18.5711 12.4068L18.768 12.2318C18.9357 12.0641 19.0196 11.8581 19.0196 11.6138C19.0196 11.3695 18.9357 11.1635 18.768 10.9958L17.3571 9.58489C17.1894 9.41718 16.9816 9.33151 16.7336 9.32786C16.4857 9.32421 16.2779 9.40625 16.1102 9.57395L15.9243 9.75989ZM12.561 18.0724C12.8053 18.0724 13.0112 17.9885 13.179 17.8208L13.354 17.6458L10.7071 14.999L10.5321 15.174C10.3644 15.3417 10.2805 15.5477 10.2805 15.7919C10.2805 16.0362 10.3644 16.2422 10.5321 16.4099L11.943 17.8208C12.1107 17.9885 12.3167 18.0724 12.561 18.0724ZM14.4586 17.6458C14.5753 17.6458 14.6774 17.6021 14.7649 17.5146L15.3993 16.8911C15.4868 16.8036 15.5305 16.6997 15.5305 16.5794C15.5305 16.4591 15.4868 16.3552 15.3993 16.2677L14.7102 15.5786L16.5258 13.763L17.2149 14.4521C17.3024 14.5396 17.4045 14.5833 17.5211 14.5833C17.6378 14.5833 17.7399 14.5396 17.8274 14.4521L18.4618 13.8286C18.5493 13.7411 18.593 13.6372 18.593 13.5169C18.593 13.3966 18.5493 13.2927 18.4618 13.2052L15.1477 9.89114C15.0602 9.80364 14.9563 9.75989 14.836 9.75989C14.7157 9.75989 14.6118 9.80364 14.5243 9.89114L13.9008 10.5255C13.8133 10.613 13.7696 10.7151 13.7696 10.8318C13.7696 10.9484 13.8133 11.0505 13.9008 11.138L14.5899 11.8271L12.7743 13.6427L12.0852 12.9536C11.9977 12.8661 11.8938 12.8224 11.7735 12.8224C11.6532 12.8224 11.5493 12.8661 11.4618 12.9536L10.8383 13.588C10.7508 13.6755 10.7071 13.7776 10.7071 13.8943C10.7071 14.0109 10.7508 14.113 10.8383 14.2005L14.1524 17.5146C14.2399 17.6021 14.342 17.6458 14.4586 17.6458Z" fill="black"/>
</g>
</svg>
