<svg width="29" height="28" viewBox="0 0 29 28" fill="none" xmlns="http://www.w3.org/2000/svg">
<mask id="mask0_1213_1073" style="mask-type:alpha" maskUnits="userSpaceOnUse" x="0" y="0" width="29" height="28">
<rect x="0.5" width="28" height="28" fill="#D9D9D9"/>
</mask>
<g mask="url(#mask0_1213_1073)">
<path d="M13.1291 25.6667C12.6041 25.6667 12.1521 25.4917 11.7729 25.1417C11.3937 24.7917 11.1653 24.3639 11.0875 23.8584L10.825 21.9334C10.5722 21.8362 10.334 21.7195 10.1104 21.5834C9.88678 21.4473 9.66803 21.3014 9.45414 21.1459L7.64581 21.9042C7.1597 22.1181 6.67359 22.1375 6.18748 21.9625C5.70137 21.7875 5.3222 21.4764 5.04998 21.0292L3.67914 18.6375C3.40692 18.1903 3.32914 17.7139 3.44581 17.2084C3.56248 16.7028 3.82498 16.2848 4.23331 15.9542L5.77914 14.7875C5.7597 14.6514 5.74998 14.5202 5.74998 14.3938V13.6063C5.74998 13.4799 5.7597 13.3487 5.77914 13.2125L4.23331 12.0459C3.82498 11.7153 3.56248 11.2973 3.44581 10.7917C3.32914 10.2862 3.40692 9.80976 3.67914 9.36254L5.04998 6.97087C5.3222 6.52365 5.70137 6.21254 6.18748 6.03754C6.67359 5.86254 7.1597 5.88199 7.64581 6.09587L9.45414 6.85421C9.66803 6.69865 9.89164 6.55282 10.125 6.41671C10.3583 6.2806 10.5916 6.16393 10.825 6.06671L11.0875 4.14171C11.1653 3.63615 11.3937 3.20837 11.7729 2.85837C12.1521 2.50837 12.6041 2.33337 13.1291 2.33337H15.8708C16.3958 2.33337 16.8479 2.50837 17.2271 2.85837C17.6062 3.20837 17.8347 3.63615 17.9125 4.14171L18.175 6.06671C18.4278 6.16393 18.666 6.2806 18.8896 6.41671C19.1132 6.55282 19.3319 6.69865 19.5458 6.85421L21.3541 6.09587C21.8403 5.88199 22.3264 5.86254 22.8125 6.03754C23.2986 6.21254 23.6778 6.52365 23.95 6.97087L25.3208 9.36254C25.593 9.80976 25.6708 10.2862 25.5541 10.7917C25.4375 11.2973 25.175 11.7153 24.7666 12.0459L23.2208 13.2125C23.2403 13.3487 23.25 13.4799 23.25 13.6063V14.3938C23.25 14.5202 23.2305 14.6514 23.1916 14.7875L24.7375 15.9542C25.1458 16.2848 25.4083 16.7028 25.525 17.2084C25.6416 17.7139 25.5639 18.1903 25.2916 18.6375L23.8916 21.0292C23.6194 21.4764 23.2403 21.7875 22.7541 21.9625C22.268 22.1375 21.7819 22.1181 21.2958 21.9042L19.5458 21.1459C19.3319 21.3014 19.1083 21.4473 18.875 21.5834C18.6416 21.7195 18.4083 21.8362 18.175 21.9334L17.9125 23.8584C17.8347 24.3639 17.6062 24.7917 17.2271 25.1417C16.8479 25.4917 16.3958 25.6667 15.8708 25.6667H13.1291ZM14.5583 18.0834C15.6861 18.0834 16.6486 17.6848 17.4458 16.8875C18.243 16.0903 18.6416 15.1278 18.6416 14C18.6416 12.8723 18.243 11.9098 17.4458 11.1125C16.6486 10.3153 15.6861 9.91671 14.5583 9.91671C13.4111 9.91671 12.4437 10.3153 11.6562 11.1125C10.8687 11.9098 10.475 12.8723 10.475 14C10.475 15.1278 10.8687 16.0903 11.6562 16.8875C12.4437 17.6848 13.4111 18.0834 14.5583 18.0834Z" fill="#1C1B1F"/>
</g>
</svg>
