<svg width="29" height="28" viewBox="0 0 29 28" fill="none" xmlns="http://www.w3.org/2000/svg">
<path d="M8.87088 25.6375C8.28755 25.6375 7.79172 25.4334 7.38338 25.025C6.97505 24.6167 6.77088 24.1209 6.77088 23.5375C6.77088 22.9542 6.97505 22.4584 7.38338 22.05C7.79172 21.6417 8.28755 21.4375 8.87088 21.4375C9.43477 21.4375 9.92574 21.6417 10.3438 22.05C10.7619 22.4584 10.9709 22.9542 10.9709 23.5375C10.9709 24.1209 10.7667 24.6167 10.3584 25.025C9.95005 25.4334 9.45422 25.6375 8.87088 25.6375ZM20.5375 25.6375C19.9542 25.6375 19.4584 25.4334 19.0501 25.025C18.6417 24.6167 18.4375 24.1209 18.4375 23.5375C18.4375 22.9542 18.6417 22.4584 19.0501 22.05C19.4584 21.6417 19.9542 21.4375 20.5375 21.4375C21.1014 21.4375 21.5924 21.6417 22.0105 22.05C22.4285 22.4584 22.6376 22.9542 22.6376 23.5375C22.6376 24.1209 22.4334 24.6167 22.0251 25.025C21.6167 25.4334 21.1209 25.6375 20.5375 25.6375ZM8.57922 19.5709C7.76255 19.5709 7.17435 19.2987 6.81463 18.7542C6.45491 18.2098 6.45977 17.5973 6.82922 16.9167L8.69588 13.475L4.26255 4.08337H2.83338C2.60005 4.08337 2.40074 3.99587 2.23547 3.82087C2.07019 3.64587 1.98755 3.43199 1.98755 3.17921C1.98755 2.94587 2.07019 2.74657 2.23547 2.58129C2.40074 2.41601 2.60977 2.33337 2.86255 2.33337H4.84588C5.02088 2.33337 5.17644 2.37712 5.31255 2.46462C5.44866 2.55212 5.5556 2.67365 5.63338 2.82921L6.47922 4.63754H23.6584C24.2806 4.63754 24.6744 4.82712 24.8396 5.20629C25.0049 5.58546 24.9514 6.00837 24.6792 6.47504L20.7417 13.5625C20.5473 13.8931 20.275 14.1799 19.9251 14.423C19.5751 14.666 19.1959 14.7875 18.7875 14.7875H9.95005L8.31672 17.8209H21.7917C22.0251 17.8209 22.2244 17.9084 22.3896 18.0834C22.5549 18.2584 22.6376 18.4625 22.6376 18.6959C22.6376 18.9487 22.5549 19.1577 22.3896 19.323C22.2244 19.4882 22.0153 19.5709 21.7626 19.5709H8.57922Z" fill="black"/>
</svg>
