<svg width="29" height="28" viewBox="0 0 29 28" fill="none" xmlns="http://www.w3.org/2000/svg">
<mask id="mask0_1111_3101" style="mask-type:alpha" maskUnits="userSpaceOnUse" x="0" y="0" width="29" height="28">
<rect x="0.5" width="28" height="28" fill="#D9D9D9"/>
</mask>
<g mask="url(#mask0_1111_3101)">
<path d="M14.5001 18.6666C15.9584 18.6666 17.198 18.1562 18.2188 17.1354C19.2396 16.1146 19.7501 14.875 19.7501 13.4166C19.7501 11.9583 19.2396 10.7187 18.2188 9.69789C17.198 8.67706 15.9584 8.16664 14.5001 8.16664C13.0417 8.16664 11.8021 8.67706 10.7813 9.69789C9.76048 10.7187 9.25007 11.9583 9.25007 13.4166C9.25007 14.875 9.76048 16.1146 10.7813 17.1354C11.8021 18.1562 13.0417 18.6666 14.5001 18.6666ZM14.503 16.2204C13.725 16.2204 13.0627 15.9481 12.5161 15.4035C11.9696 14.8588 11.6963 14.1975 11.6963 13.4196C11.6963 12.6416 11.9686 11.9793 12.5132 11.4327C13.0579 10.8861 13.7192 10.6128 14.4971 10.6128C15.2751 10.6128 15.9374 10.8852 16.484 11.4298C17.0306 11.9744 17.3039 12.6358 17.3039 13.4137C17.3039 14.1917 17.0315 14.854 16.4869 15.4006C15.9423 15.9471 15.281 16.2204 14.503 16.2204ZM14.5001 22.6776C11.8286 22.6776 9.38559 21.9667 7.17107 20.5447C4.95654 19.1227 3.21606 17.2315 1.94965 14.8712C1.81937 14.6412 1.72438 14.4036 1.66469 14.1586C1.60519 13.9134 1.57544 13.6661 1.57544 13.4166C1.57544 13.1672 1.60519 12.9198 1.66469 12.6746C1.72438 12.4296 1.81937 12.1921 1.94965 11.9621C3.21606 9.60174 4.95654 7.71057 7.17107 6.2886C9.38559 4.86663 11.8286 4.15564 14.5001 4.15564C17.1715 4.15564 19.6145 4.86663 21.8291 6.2886C24.0436 7.71057 25.7841 9.60174 27.0505 11.9621C27.1808 12.1921 27.2757 12.4296 27.3354 12.6746C27.3949 12.9198 27.4247 13.1672 27.4247 13.4166C27.4247 13.6661 27.3949 13.9134 27.3354 14.1586C27.2757 14.4036 27.1808 14.6412 27.0505 14.8712C25.7841 17.2315 24.0436 19.1227 21.8291 20.5447C19.6145 21.9667 17.1715 22.6776 14.5001 22.6776Z" fill="black"/>
</g>
</svg>
