<svg width="29" height="28" viewBox="0 0 29 28" fill="none" xmlns="http://www.w3.org/2000/svg">
<mask id="mask0_1100_3646" style="mask-type:alpha" maskUnits="userSpaceOnUse" x="0" y="0" width="29" height="28">
<rect x="0.5" width="28" height="28" fill="#D9D9D9"/>
</mask>
<g mask="url(#mask0_1100_3646)">
<path d="M8.77199 8.82237V19.1777L13.9663 14L8.77199 8.82237ZM6.53112 25.0606C5.66973 25.0606 4.93911 24.7607 4.33924 24.1608C3.73938 23.561 3.43945 22.8303 3.43945 21.969V6.03112C3.43945 5.16973 3.73938 4.43911 4.33924 3.83924C4.93911 3.23938 5.66973 2.93945 6.53112 2.93945H22.469C23.3303 2.93945 24.061 3.23938 24.6608 3.83924C25.2607 4.43911 25.5606 5.16973 25.5606 6.03112V21.969C25.5606 22.8303 25.2607 23.561 24.6608 24.1608C24.061 24.7607 23.3303 25.0606 22.469 25.0606H6.53112ZM16.2069 21.969V6.03112H6.53112V21.969H16.2069Z" fill="black"/>
</g>
</svg>
