<svg width="29" height="28" viewBox="0 0 29 28" fill="none" xmlns="http://www.w3.org/2000/svg">
<mask id="mask0_1680_39710" style="mask-type:alpha" maskUnits="userSpaceOnUse" x="0" y="0" width="29" height="28">
<rect x="0.5" width="28" height="28" fill="#D9D9D9"/>
</mask>
<g mask="url(#mask0_1680_39710)">
<path d="M7.50008 14.0583C7.50008 14.3694 7.51953 14.6757 7.55841 14.9771C7.5973 15.2784 7.66536 15.575 7.76258 15.8666C7.8598 16.1972 7.85008 16.5132 7.73341 16.8146C7.61675 17.1159 7.41258 17.3347 7.12091 17.4708C6.8098 17.6264 6.50355 17.6409 6.20216 17.5146C5.90078 17.3882 5.70147 17.1597 5.60425 16.8291C5.44869 16.3819 5.33689 15.925 5.26883 15.4583C5.20078 14.9916 5.16675 14.525 5.16675 14.0583C5.16675 11.4528 6.07091 9.23609 7.87925 7.40831C9.68758 5.58053 11.8945 4.66664 14.5001 4.66664H14.7042L13.6542 3.61664C13.4404 3.40275 13.3334 3.13053 13.3334 2.79998C13.3334 2.46942 13.4404 2.1972 13.6542 1.98331C13.8681 1.76942 14.1404 1.66248 14.4709 1.66248C14.8015 1.66248 15.0737 1.76942 15.2876 1.98331L18.3209 5.01664C18.5542 5.24998 18.6709 5.5222 18.6709 5.83331C18.6709 6.14442 18.5542 6.41664 18.3209 6.64998L15.2876 9.68331C15.0737 9.8972 14.8015 10.0041 14.4709 10.0041C14.1404 10.0041 13.8681 9.8972 13.6542 9.68331C13.4404 9.46942 13.3334 9.1972 13.3334 8.86664C13.3334 8.53609 13.4404 8.26386 13.6542 8.04998L14.7042 6.99998H14.5001C12.5556 6.99998 10.9029 7.68539 9.54175 9.05623C8.18064 10.4271 7.50008 12.0944 7.50008 14.0583ZM21.5001 13.9416C21.5001 13.6305 21.4806 13.3243 21.4417 13.0229C21.4029 12.7215 21.3348 12.425 21.2376 12.1333C21.1404 11.8028 21.1501 11.4868 21.2667 11.1854C21.3834 10.884 21.5876 10.6653 21.8792 10.5291C22.1904 10.3736 22.4966 10.359 22.798 10.4854C23.0994 10.6118 23.2987 10.8403 23.3959 11.1708C23.5515 11.618 23.6633 12.075 23.7313 12.5416C23.7994 13.0083 23.8334 13.475 23.8334 13.9416C23.8334 16.5472 22.9292 18.7639 21.1209 20.5916C19.3126 22.4194 17.1056 23.3333 14.5001 23.3333H14.2959L15.3459 24.3833C15.5598 24.5972 15.6667 24.8694 15.6667 25.2C15.6667 25.5305 15.5598 25.8028 15.3459 26.0166C15.132 26.2305 14.8598 26.3375 14.5292 26.3375C14.1987 26.3375 13.9265 26.2305 13.7126 26.0166L10.6792 22.9833C10.4459 22.75 10.3292 22.4778 10.3292 22.1666C10.3292 21.8555 10.4459 21.5833 10.6792 21.35L13.7126 18.3166C13.9265 18.1028 14.1987 17.9958 14.5292 17.9958C14.8598 17.9958 15.132 18.1028 15.3459 18.3166C15.5598 18.5305 15.6667 18.8028 15.6667 19.1333C15.6667 19.4639 15.5598 19.7361 15.3459 19.95L14.2959 21H14.5001C16.4445 21 18.0973 20.3146 19.4584 18.9437C20.8195 17.5729 21.5001 15.9055 21.5001 13.9416Z" fill="black"/>
</g>
</svg>
