<svg width="29" height="28" viewBox="0 0 29 28" fill="none" xmlns="http://www.w3.org/2000/svg">
<path d="M14.5001 23.3333C14.1112 23.3333 13.7807 23.1972 13.5084 22.925C13.2362 22.6527 13.1001 22.3222 13.1001 21.9333C13.1001 21.5444 13.2362 21.2138 13.5084 20.9416C13.7807 20.6694 14.1112 20.5333 14.5001 20.5333C14.889 20.5333 15.2195 20.6694 15.4918 20.9416C15.764 21.2138 15.9001 21.5444 15.9001 21.9333C15.9001 22.3222 15.764 22.6527 15.4918 22.925C15.2195 23.1972 14.889 23.3333 14.5001 23.3333ZM14.5001 15.4C14.1112 15.4 13.7807 15.2638 13.5084 14.9916C13.2362 14.7194 13.1001 14.3888 13.1001 14C13.1001 13.6111 13.2362 13.2805 13.5084 13.0083C13.7807 12.7361 14.1112 12.6 14.5001 12.6C14.889 12.6 15.2195 12.7361 15.4918 13.0083C15.764 13.2805 15.9001 13.6111 15.9001 14C15.9001 14.3888 15.764 14.7194 15.4918 14.9916C15.2195 15.2638 14.889 15.4 14.5001 15.4ZM14.5001 7.46663C14.1112 7.46663 13.7807 7.33051 13.5084 7.05829C13.2362 6.78607 13.1001 6.45551 13.1001 6.06663C13.1001 5.67774 13.2362 5.34718 13.5084 5.07496C13.7807 4.80274 14.1112 4.66663 14.5001 4.66663C14.889 4.66663 15.2195 4.80274 15.4918 5.07496C15.764 5.34718 15.9001 5.67774 15.9001 6.06663C15.9001 6.45551 15.764 6.78607 15.4918 7.05829C15.2195 7.33051 14.889 7.46663 14.5001 7.46663Z" fill="black"/>
</svg>
