<svg width="29" height="28" viewBox="0 0 29 28" fill="none" xmlns="http://www.w3.org/2000/svg">
<mask id="mask0_1686_50870" style="mask-type:alpha" maskUnits="userSpaceOnUse" x="0" y="0" width="29" height="28">
<rect x="0.5" width="28" height="28" fill="#D9D9D9"/>
</mask>
<g mask="url(#mask0_1686_50870)">
<path fill-rule="evenodd" clip-rule="evenodd" d="M19.8958 8.16667H9.10417L7.61667 5.19167C7.42222 4.80278 7.43681 4.42361 7.66042 4.05417C7.88403 3.68472 8.21944 3.5 8.66667 3.5H20.3333C20.7806 3.5 21.116 3.68472 21.3396 4.05417C21.5632 4.42361 21.5778 4.80278 21.3833 5.19167L19.8958 8.16667ZM18.7 24.5H10.3C8.53056 24.5 7.03819 23.8924 5.82292 22.6771C4.60764 21.4618 4 19.9694 4 18.2C4 17.4611 4.12639 16.7417 4.37917 16.0417C4.63194 15.3417 4.99167 14.7097 5.45833 14.1458L8.49167 10.5H20.5083L23.5417 14.1458C24.0083 14.7097 24.3681 15.3417 24.6208 16.0417C24.8736 16.7417 25 17.4611 25 18.2C25 19.9694 24.3875 21.4618 23.1625 22.6771C21.9375 23.8924 20.45 24.5 18.7 24.5ZM14.0999 22.5823C14.2117 22.6941 14.3503 22.75 14.5156 22.75C14.6808 22.75 14.8194 22.6941 14.9312 22.5823C15.043 22.4705 15.0989 22.3319 15.0989 22.1667V21.525C15.7017 21.4375 16.2072 21.2139 16.6156 20.8542C17.0239 20.4944 17.2281 19.9694 17.2281 19.2792C17.2281 18.725 17.0555 18.2365 16.7104 17.8135C16.3652 17.3906 15.8572 17.0819 15.1864 16.8875C14.467 16.6833 13.9614 16.4889 13.6697 16.3042C13.3781 16.1194 13.2322 15.8667 13.2322 15.5458C13.2322 15.2639 13.344 15.0281 13.5676 14.8385C13.7913 14.649 14.117 14.5542 14.5447 14.5542C14.7975 14.5542 15.009 14.5906 15.1791 14.6635C15.3492 14.7365 15.4975 14.841 15.6239 14.9771C15.7503 15.1132 15.8864 15.208 16.0322 15.2615C16.1781 15.3149 16.319 15.3125 16.4551 15.2542C16.6204 15.1861 16.7298 15.0743 16.7833 14.9187C16.8367 14.7632 16.8197 14.6222 16.7322 14.4958C16.5572 14.2333 16.3336 14.0122 16.0614 13.8323C15.7892 13.6524 15.4683 13.5333 15.0989 13.475V12.8333C15.0989 12.6681 15.043 12.5295 14.9312 12.4177C14.8194 12.3059 14.6808 12.25 14.5156 12.25C14.3503 12.25 14.2117 12.3059 14.0999 12.4177C13.9881 12.5295 13.9322 12.6681 13.9322 12.8333V13.475C13.5045 13.5236 13.0864 13.7229 12.6781 14.0729C12.2697 14.4229 12.0656 14.9139 12.0656 15.5458C12.0656 16.0708 12.2211 16.5156 12.5322 16.8802C12.8433 17.2448 13.417 17.5583 14.2531 17.8208C15.0308 18.0736 15.5267 18.2997 15.7406 18.499C15.9545 18.6983 16.0614 18.9681 16.0614 19.3083C16.0614 19.6875 15.9229 19.967 15.6458 20.1469C15.3687 20.3267 15.0308 20.4167 14.6322 20.4167C14.2628 20.4167 13.9517 20.3413 13.6989 20.1906C13.4461 20.0399 13.2371 19.8188 13.0718 19.5271C12.994 19.3813 12.8822 19.2767 12.7364 19.2135C12.5906 19.1503 12.4496 19.1479 12.3135 19.2063C12.1482 19.2743 12.034 19.3837 11.9708 19.5344C11.9076 19.6851 11.91 19.8285 11.9781 19.9646C12.1822 20.4021 12.4496 20.7424 12.7801 20.9854C13.1107 21.2285 13.4947 21.3986 13.9322 21.4958V22.1667C13.9322 22.3319 13.9881 22.4705 14.0999 22.5823Z" fill="black"/>
</g>
</svg>
