<svg width="29" height="28" viewBox="0 0 29 28" fill="none" xmlns="http://www.w3.org/2000/svg">
<mask id="mask0_1474_6631" style="mask-type:alpha" maskUnits="userSpaceOnUse" x="0" y="0" width="29" height="28">
<rect x="0.5" width="28" height="28" fill="#D9D9D9"/>
</mask>
<g mask="url(#mask0_1474_6631)">
<path d="M14.5584 15.6041L7.64592 22.5166C7.41258 22.75 7.1355 22.8666 6.81466 22.8666C6.49383 22.8666 6.21675 22.75 5.98342 22.5166C5.75008 22.2833 5.63341 22.0062 5.63341 21.6854C5.63341 21.3645 5.75008 21.0875 5.98342 20.8541L16.3667 10.5H13.3334V11.6666C13.3334 11.9972 13.2216 12.2743 12.998 12.4979C12.7744 12.7215 12.4973 12.8333 12.1667 12.8333C11.8362 12.8333 11.5591 12.7215 11.3355 12.4979C11.1119 12.2743 11.0001 11.9972 11.0001 11.6666V9.33329C11.0001 9.00274 11.1119 8.72565 11.3355 8.50204C11.5591 8.27843 11.8362 8.16663 12.1667 8.16663H17.8251C18.1362 8.16663 18.4327 8.22496 18.7147 8.34163C18.9966 8.45829 19.2445 8.62357 19.4584 8.83746L22.9584 12.3083C23.3473 12.6972 23.7994 13.0229 24.3147 13.2854C24.8299 13.5479 25.389 13.7375 25.9918 13.8541C26.3223 13.9125 26.6091 14.0632 26.8522 14.3062C27.0952 14.5493 27.2167 14.8361 27.2167 15.1666C27.2167 15.4972 27.0806 15.7694 26.8084 15.9833C26.5362 16.1972 26.2348 16.2847 25.9042 16.2458C25.0292 16.1291 24.2223 15.8958 23.4834 15.5458C22.7445 15.1958 22.064 14.7194 21.4417 14.1166L20.2751 12.8916L17.7084 15.4583L19.2542 17.0041C19.5265 17.2763 19.6383 17.602 19.5897 17.9812C19.5411 18.3604 19.3515 18.6472 19.0209 18.8416L13.7126 21.9041C13.4404 22.0597 13.1438 22.0986 12.823 22.0208C12.5022 21.943 12.264 21.768 12.1084 21.4958C11.9529 21.2236 11.9188 20.927 12.0063 20.6062C12.0938 20.2854 12.2737 20.0472 12.5459 19.8916L16.5417 17.5875L14.5584 15.6041ZM5.16675 15.1666C4.83619 15.1666 4.55911 15.0548 4.3355 14.8312C4.11189 14.6076 4.00008 14.3305 4.00008 14C4.00008 13.6694 4.11189 13.3923 4.3355 13.1687C4.55911 12.9451 4.83619 12.8333 5.16675 12.8333H8.66675C8.9973 12.8333 9.27439 12.9451 9.498 13.1687C9.72161 13.3923 9.83342 13.6694 9.83342 14C9.83342 14.3305 9.72161 14.6076 9.498 14.8312C9.27439 15.0548 8.9973 15.1666 8.66675 15.1666H5.16675ZM2.83341 11.6666C2.50286 11.6666 2.22578 11.5548 2.00216 11.3312C1.77855 11.1076 1.66675 10.8305 1.66675 10.5C1.66675 10.1694 1.77855 9.89232 2.00216 9.66871C2.22578 9.4451 2.50286 9.33329 2.83341 9.33329H6.33342C6.66397 9.33329 6.94105 9.4451 7.16467 9.66871C7.38828 9.89232 7.50008 10.1694 7.50008 10.5C7.50008 10.8305 7.38828 11.1076 7.16467 11.3312C6.94105 11.5548 6.66397 11.6666 6.33342 11.6666H2.83341ZM23.2209 9.33329C22.5793 9.33329 22.0251 9.10482 21.5584 8.64788C21.0918 8.19093 20.8584 7.64163 20.8584 6.99996C20.8584 6.35829 21.0918 5.80899 21.5584 5.35204C22.0251 4.8951 22.5793 4.66663 23.2209 4.66663C23.8626 4.66663 24.4167 4.8951 24.8834 5.35204C25.3501 5.80899 25.5834 6.35829 25.5834 6.99996C25.5834 7.64163 25.3501 8.19093 24.8834 8.64788C24.4167 9.10482 23.8626 9.33329 23.2209 9.33329ZM5.16675 8.16663C4.83619 8.16663 4.55911 8.05482 4.3355 7.83121C4.11189 7.6076 4.00008 7.33051 4.00008 6.99996C4.00008 6.6694 4.11189 6.39232 4.3355 6.16871C4.55911 5.9451 4.83619 5.83329 5.16675 5.83329H8.66675C8.9973 5.83329 9.27439 5.9451 9.498 6.16871C9.72161 6.39232 9.83342 6.6694 9.83342 6.99996C9.83342 7.33051 9.72161 7.6076 9.498 7.83121C9.27439 8.05482 8.9973 8.16663 8.66675 8.16663H5.16675Z" fill="black"/>
</g>
</svg>
