<svg width="29" height="28" viewBox="0 0 29 28" fill="none" xmlns="http://www.w3.org/2000/svg">
<mask id="mask0_1558_19281" style="mask-type:alpha" maskUnits="userSpaceOnUse" x="0" y="0" width="29" height="28">
<rect x="0.5" width="28" height="28" fill="#D9D9D9"/>
</mask>
<g mask="url(#mask0_1558_19281)">
<path d="M20.3333 17.5C19.5166 17.5 18.8263 17.218 18.2624 16.6541C17.6985 16.0902 17.4166 15.4 17.4166 14.5833C17.4166 13.7666 17.6985 13.0763 18.2624 12.5125C18.8263 11.9486 19.5166 11.6666 20.3333 11.6666C21.1499 11.6666 21.8402 11.9486 22.4041 12.5125C22.968 13.0763 23.2499 13.7666 23.2499 14.5833C23.2499 15.4 22.968 16.0902 22.4041 16.6541C21.8402 17.218 21.1499 17.5 20.3333 17.5ZM15.6666 23.3333C15.336 23.3333 15.0589 23.2215 14.8353 22.9979C14.6117 22.7743 14.4999 22.4972 14.4999 22.1666V21.7C14.4999 21.2333 14.6214 20.8007 14.8645 20.402C15.1076 20.0034 15.4527 19.7166 15.8999 19.5416C16.5999 19.25 17.3242 19.0312 18.0728 18.8854C18.8214 18.7395 19.5749 18.6666 20.3333 18.6666C21.0916 18.6666 21.8451 18.7395 22.5937 18.8854C23.3423 19.0312 24.0666 19.25 24.7666 19.5416C25.2138 19.7166 25.5589 20.0034 25.802 20.402C26.0451 20.8007 26.1666 21.2333 26.1666 21.7V22.1666C26.1666 22.4972 26.0548 22.7743 25.8312 22.9979C25.6076 23.2215 25.3305 23.3333 24.9999 23.3333H15.6666ZM12.1666 14C10.8833 14 9.78464 13.543 8.87075 12.6291C7.95686 11.7152 7.49992 10.6166 7.49992 9.33329C7.49992 8.04996 7.95686 6.95135 8.87075 6.03746C9.78464 5.12357 10.8833 4.66663 12.1666 4.66663C13.4499 4.66663 14.5485 5.12357 15.4624 6.03746C16.3763 6.95135 16.8333 8.04996 16.8333 9.33329C16.8333 10.6166 16.3763 11.7152 15.4624 12.6291C14.5485 13.543 13.4499 14 12.1666 14ZM2.83325 20.0666C2.83325 19.4055 2.99853 18.7979 3.32909 18.2437C3.65964 17.6895 4.11659 17.2666 4.69992 16.975C5.86659 16.3916 7.077 15.9444 8.33117 15.6333C9.58534 15.3222 10.8638 15.1666 12.1666 15.1666C12.8471 15.1666 13.5277 15.225 14.2083 15.3416C14.8888 15.4583 15.5694 15.5944 16.2499 15.75L14.2666 17.7333C13.7805 18.2194 13.3089 18.7152 12.852 19.2208C12.3951 19.7263 12.1666 20.3194 12.1666 21V22.1375C12.1666 22.3708 12.2103 22.5895 12.2978 22.7937C12.3853 22.9979 12.5263 23.1777 12.7208 23.3333H5.16659C4.52492 23.3333 3.97561 23.1048 3.51867 22.6479C3.06172 22.1909 2.83325 21.6416 2.83325 21V20.0666Z" fill="black"/>
</g>
</svg>
