<svg width="29" height="28" viewBox="0 0 29 28" fill="none" xmlns="http://www.w3.org/2000/svg">
<mask id="mask0_1557_4742" style="mask-type:alpha" maskUnits="userSpaceOnUse" x="0" y="0" width="29" height="28">
<rect x="0.5" width="28" height="28" fill="#D9D9D9"/>
</mask>
<g mask="url(#mask0_1557_4742)">
<path d="M3.70827 20.7083C3.45549 20.4555 3.3291 20.1639 3.3291 19.8333C3.3291 19.5028 3.45549 19.2111 3.70827 18.9583L9.92077 12.7458C10.368 12.2986 10.9222 12.075 11.5833 12.075C12.2444 12.075 12.7985 12.2986 13.2458 12.7458L16.2499 15.75L23.7166 7.32082C23.9305 7.06804 24.2076 6.94165 24.5479 6.94165C24.8881 6.94165 25.1749 7.05832 25.4083 7.29165C25.6222 7.50554 25.734 7.76318 25.7437 8.06457C25.7534 8.36596 25.6513 8.63332 25.4374 8.86665L17.8833 17.3833C17.436 17.8889 16.8819 18.1562 16.2208 18.1854C15.5597 18.2146 14.986 17.9861 14.4999 17.5L11.5833 14.5833L5.45827 20.7083C5.20549 20.9611 4.91382 21.0875 4.58327 21.0875C4.25271 21.0875 3.96105 20.9611 3.70827 20.7083Z" fill="black"/>
</g>
</svg>
