<svg width="29" height="28" viewBox="0 0 29 28" fill="none" xmlns="http://www.w3.org/2000/svg">
<mask id="mask0_1111_1862" style="mask-type:alpha" maskUnits="userSpaceOnUse" x="0" y="0" width="29" height="28">
<rect x="0.5" width="28" height="28" fill="#D9D9D9"/>
</mask>
<g mask="url(#mask0_1111_1862)">
<path d="M14.5001 20.6056L17.0148 18.0909C17.3249 17.7806 17.6921 17.6254 18.1161 17.6254C18.54 17.6254 18.9071 17.7806 19.2175 18.0909C19.5278 18.4012 19.683 18.771 19.683 19.2004C19.683 19.6299 19.5278 19.9998 19.2175 20.3102L15.597 23.9306C15.4473 24.0802 15.277 24.193 15.086 24.2693C14.8949 24.3453 14.6996 24.3833 14.5001 24.3833C14.3006 24.3833 14.1052 24.3453 13.9141 24.2693C13.7232 24.193 13.5528 24.0802 13.4031 23.9306L9.78264 20.3102C9.47231 19.9998 9.31714 19.6299 9.31714 19.2004C9.31714 18.771 9.47231 18.4012 9.78264 18.0909C10.093 17.7916 10.4628 17.642 10.8921 17.642C11.3217 17.642 11.6916 17.7972 12.0019 18.1075L14.5001 20.6056ZM14.5001 7.46167L11.9853 9.97613C11.6752 10.2865 11.3081 10.4416 10.884 10.4416C10.4601 10.4416 10.093 10.2865 9.78264 9.97613C9.47231 9.66599 9.31714 9.29616 9.31714 8.86663C9.31714 8.43711 9.47231 8.06727 9.78264 7.75713L13.4031 4.13668C13.5528 3.98695 13.7232 3.87408 13.9141 3.79805C14.1052 3.72183 14.3006 3.68372 14.5001 3.68372C14.6996 3.68372 14.8949 3.72183 15.086 3.79805C15.277 3.87408 15.4473 3.98695 15.597 4.13668L19.2175 7.75713C19.5278 8.06727 19.683 8.43711 19.683 8.86663C19.683 9.29616 19.5278 9.66599 19.2175 9.97613C18.9071 10.2756 18.5373 10.4253 18.108 10.4253C17.6784 10.4253 17.3085 10.2701 16.9982 9.9598L14.5001 7.46167Z" fill="black"/>
</g>
</svg>
