<svg width="29" height="28" viewBox="0 0 29 28" fill="none" xmlns="http://www.w3.org/2000/svg">
<mask id="mask0_1111_1917" style="mask-type:alpha" maskUnits="userSpaceOnUse" x="0" y="0" width="29" height="28">
<rect x="0.5" width="28" height="28" fill="#D9D9D9"/>
</mask>
<g mask="url(#mask0_1111_1917)">
<path d="M12.9542 11.322L10.2137 14.0622C9.92301 14.3531 9.56289 14.4985 9.13337 14.4985C8.70384 14.4985 8.34373 14.3531 8.05303 14.0622C7.76214 13.7713 7.6167 13.4112 7.6167 12.9819C7.6167 12.5523 7.76214 12.1921 8.05303 11.9012L13.4031 6.55119C13.7134 6.24086 14.0791 6.08569 14.5 6.08569C14.921 6.08569 15.2867 6.24086 15.597 6.55119L20.947 11.9012C21.2379 12.1921 21.3834 12.5523 21.3834 12.9819C21.3834 13.4112 21.2379 13.7713 20.947 14.0622C20.6563 14.3531 20.2962 14.4985 19.8667 14.4985C19.4372 14.4985 19.0771 14.3531 18.7864 14.0622L16.0459 11.322V19.9819C16.0459 20.4112 15.8956 20.7762 15.5949 21.0768C15.2945 21.3774 14.9296 21.5277 14.5 21.5277C14.0705 21.5277 13.7055 21.3774 13.4051 21.0768C13.1045 20.7762 12.9542 20.4112 12.9542 19.9819V11.322Z" fill="black"/>
</g>
</svg>
