<svg width="29" height="28" viewBox="0 0 29 28" fill="none" xmlns="http://www.w3.org/2000/svg">
<path d="M13.2749 17.9958L18.3791 14.6708C18.6513 14.4958 18.7874 14.2527 18.7874 13.9416C18.7874 13.6305 18.6513 13.3875 18.3791 13.2125L13.2749 9.88746C13.0027 9.69302 12.711 9.67843 12.3999 9.84371C12.0888 10.009 11.9333 10.2666 11.9333 10.6166V17.2666C11.9333 17.6166 12.0888 17.8743 12.3999 18.0395C12.711 18.2048 13.0027 18.1902 13.2749 17.9958ZM4.58325 23.3333C4.11659 23.3333 3.70825 23.1583 3.35825 22.8083C3.00825 22.4583 2.83325 22.05 2.83325 21.5833V6.41663C2.83325 5.94996 3.00825 5.54163 3.35825 5.19163C3.70825 4.84163 4.11659 4.66663 4.58325 4.66663H24.4166C24.9027 4.66663 25.3159 4.84163 25.6562 5.19163C25.9964 5.54163 26.1666 5.94996 26.1666 6.41663V21.5833C26.1666 22.05 25.9964 22.4583 25.6562 22.8083C25.3159 23.1583 24.9027 23.3333 24.4166 23.3333H4.58325Z" fill="black"/>
</svg>
