<svg width="29" height="28" viewBox="0 0 29 28" fill="none" xmlns="http://www.w3.org/2000/svg">
<path d="M14.5 18.375C15.8806 18.375 17.0521 17.8937 18.0146 16.9312C18.9771 15.9687 19.4583 14.7972 19.4583 13.4166C19.4583 12.0361 18.9771 10.8645 18.0146 9.90204C17.0521 8.93954 15.8806 8.45829 14.5 8.45829C13.1195 8.45829 11.9479 8.93954 10.9854 9.90204C10.0229 10.8645 9.54168 12.0361 9.54168 13.4166C9.54168 14.7972 10.0229 15.9687 10.9854 16.9312C11.9479 17.8937 13.1195 18.375 14.5 18.375ZM14.5 16.6833C13.5861 16.6833 12.8132 16.3673 12.1813 15.7354C11.5493 15.1034 11.2333 14.3305 11.2333 13.4166C11.2333 12.5027 11.5493 11.7298 12.1813 11.0979C12.8132 10.4659 13.5861 10.15 14.5 10.15C15.4139 10.15 16.1868 10.4659 16.8188 11.0979C17.4507 11.7298 17.7667 12.5027 17.7667 13.4166C17.7667 14.3305 17.4507 15.1034 16.8188 15.7354C16.1868 16.3673 15.4139 16.6833 14.5 16.6833ZM14.5 22.1666C11.8167 22.1666 9.37154 21.4375 7.1646 19.9791C4.95766 18.5208 3.25141 16.5958 2.04585 14.2041C1.98752 14.1069 1.94377 13.9902 1.9146 13.8541C1.88543 13.718 1.87085 13.5722 1.87085 13.4166C1.87085 13.2611 1.88543 13.1152 1.9146 12.9791C1.94377 12.843 1.98752 12.7263 2.04585 12.6291C3.25141 10.2375 4.95766 8.31246 7.1646 6.85413C9.37154 5.39579 11.8167 4.66663 14.5 4.66663C17.1833 4.66663 19.6285 5.39579 21.8354 6.85413C24.0424 8.31246 25.7486 10.2375 26.9542 12.6291C27.0125 12.7263 27.0563 12.843 27.0854 12.9791C27.1146 13.1152 27.1292 13.2611 27.1292 13.4166C27.1292 13.5722 27.1146 13.718 27.0854 13.8541C27.0563 13.9902 27.0125 14.1069 26.9542 14.2041C25.7486 16.5958 24.0424 18.5208 21.8354 19.9791C19.6285 21.4375 17.1833 22.1666 14.5 22.1666ZM14.5 20.4166C16.8528 20.4166 19.016 19.7798 20.9896 18.5062C22.9632 17.2326 24.4653 15.5361 25.4958 13.4166C24.4653 11.2972 22.9632 9.60065 20.9896 8.32704C19.016 7.05343 16.8528 6.41663 14.5 6.41663C12.1472 6.41663 9.98404 7.05343 8.01043 8.32704C6.03682 9.60065 4.52502 11.2972 3.47502 13.4166C4.52502 15.5361 6.03682 17.2326 8.01043 18.5062C9.98404 19.7798 12.1472 20.4166 14.5 20.4166Z" fill="black"/>
</svg>
