<svg width="29" height="28" viewBox="0 0 29 28" fill="none" xmlns="http://www.w3.org/2000/svg">
<mask id="mask0_1262_8366" style="mask-type:alpha" maskUnits="userSpaceOnUse" x="0" y="0" width="29" height="28">
<rect x="0.5" width="28" height="28" fill="#D9D9D9"/>
</mask>
<g mask="url(#mask0_1262_8366)">
<path d="M3.67908 24.5C3.4652 24.5 3.27075 24.4465 3.09575 24.3396C2.92075 24.2326 2.78464 24.0917 2.68742 23.9167C2.5902 23.7417 2.53672 23.5521 2.527 23.3479C2.51728 23.1438 2.57075 22.9444 2.68742 22.75L13.4791 4.08333C13.5957 3.88889 13.7464 3.74306 13.9312 3.64583C14.1159 3.54861 14.3055 3.5 14.4999 3.5C14.6944 3.5 14.8839 3.54861 15.0687 3.64583C15.2534 3.74306 15.4041 3.88889 15.5208 4.08333L26.3124 22.75C26.4291 22.9444 26.4826 23.1438 26.4728 23.3479C26.4631 23.5521 26.4096 23.7417 26.3124 23.9167C26.2152 24.0917 26.0791 24.2326 25.9041 24.3396C25.7291 24.4465 25.5346 24.5 25.3207 24.5H3.67908ZM14.4999 21C14.8305 21 15.1076 20.8882 15.3312 20.6646C15.5548 20.441 15.6666 20.1639 15.6666 19.8333C15.6666 19.5028 15.5548 19.2257 15.3312 19.0021C15.1076 18.7785 14.8305 18.6667 14.4999 18.6667C14.1694 18.6667 13.8923 18.7785 13.6687 19.0021C13.4451 19.2257 13.3333 19.5028 13.3333 19.8333C13.3333 20.1639 13.4451 20.441 13.6687 20.6646C13.8923 20.8882 14.1694 21 14.4999 21ZM14.4999 17.5C14.8305 17.5 15.1076 17.3882 15.3312 17.1646C15.5548 16.941 15.6666 16.6639 15.6666 16.3333V12.8333C15.6666 12.5028 15.5548 12.2257 15.3312 12.0021C15.1076 11.7785 14.8305 11.6667 14.4999 11.6667C14.1694 11.6667 13.8923 11.7785 13.6687 12.0021C13.4451 12.2257 13.3333 12.5028 13.3333 12.8333V16.3333C13.3333 16.6639 13.4451 16.941 13.6687 17.1646C13.8923 17.3882 14.1694 17.5 14.4999 17.5Z" fill="black"/>
</g>
</svg>
