<svg width="29" height="28" viewBox="0 0 29 28" fill="none" xmlns="http://www.w3.org/2000/svg">
<mask id="mask0_1472_6343" style="mask-type:alpha" maskUnits="userSpaceOnUse" x="0" y="0" width="29" height="28">
<rect x="0.5" width="28" height="28" fill="#D9D9D9"/>
</mask>
<g mask="url(#mask0_1472_6343)">
<path d="M16.5417 22.1667C16.2111 22.1667 15.934 22.0549 15.7104 21.8313C15.4868 21.6077 15.375 21.3306 15.375 21V7.00004C15.375 6.66949 15.4868 6.3924 15.7104 6.16879C15.934 5.94518 16.2111 5.83337 16.5417 5.83337H18.1458C18.4764 5.83337 18.7535 5.94518 18.9771 6.16879C19.2007 6.3924 19.3125 6.66949 19.3125 7.00004V21C19.3125 21.3306 19.2007 21.6077 18.9771 21.8313C18.7535 22.0549 18.4764 22.1667 18.1458 22.1667H16.5417ZM10.8542 22.1667C10.5236 22.1667 10.2465 22.0549 10.0229 21.8313C9.79931 21.6077 9.6875 21.3306 9.6875 21V7.00004C9.6875 6.66949 9.79931 6.3924 10.0229 6.16879C10.2465 5.94518 10.5236 5.83337 10.8542 5.83337H12.4583C12.7889 5.83337 13.066 5.94518 13.2896 6.16879C13.5132 6.3924 13.625 6.66949 13.625 7.00004V21C13.625 21.3306 13.5132 21.6077 13.2896 21.8313C13.066 22.0549 12.7889 22.1667 12.4583 22.1667H10.8542ZM5.16667 22.1667C4.83611 22.1667 4.55903 22.0549 4.33542 21.8313C4.11181 21.6077 4 21.3306 4 21V7.00004C4 6.66949 4.11181 6.3924 4.33542 6.16879C4.55903 5.94518 4.83611 5.83337 5.16667 5.83337H6.77083C7.10139 5.83337 7.37847 5.94518 7.60208 6.16879C7.82569 6.3924 7.9375 6.66949 7.9375 7.00004V21C7.9375 21.3306 7.82569 21.6077 7.60208 21.8313C7.37847 22.0549 7.10139 22.1667 6.77083 22.1667H5.16667ZM22.2292 22.1667C21.8986 22.1667 21.6215 22.0549 21.3979 21.8313C21.1743 21.6077 21.0625 21.3306 21.0625 21V7.00004C21.0625 6.66949 21.1743 6.3924 21.3979 6.16879C21.6215 5.94518 21.8986 5.83337 22.2292 5.83337H23.8333C24.1639 5.83337 24.441 5.94518 24.6646 6.16879C24.8882 6.3924 25 6.66949 25 7.00004V21C25 21.3306 24.8882 21.6077 24.6646 21.8313C24.441 22.0549 24.1639 22.1667 23.8333 22.1667H22.2292Z" fill="black"/>
</g>
</svg>
