<svg width="29" height="28" viewBox="0 0 29 28" fill="none" xmlns="http://www.w3.org/2000/svg">
<mask id="mask0_1311_6420" style="mask-type:alpha" maskUnits="userSpaceOnUse" x="0" y="0" width="29" height="28">
<rect x="0.5" width="28" height="28" fill="#D9D9D9"/>
</mask>
<g mask="url(#mask0_1311_6420)">
<path d="M8.72508 9.85829L5.40008 13.1833C5.18619 13.3972 4.91883 13.509 4.598 13.5187C4.27716 13.5284 4.00008 13.4166 3.76675 13.1833C3.55286 12.9694 3.44105 12.702 3.43133 12.3812C3.42161 12.0604 3.52369 11.7833 3.73758 11.55L4.58341 10.675L3.76675 9.85829C3.53341 9.62496 3.41675 9.35274 3.41675 9.04163C3.41675 8.73051 3.53341 8.45829 3.76675 8.22496L5.40008 6.59163L4.55425 5.71663C4.34036 5.50274 4.23341 5.23538 4.23341 4.91454C4.23341 4.59371 4.35008 4.31663 4.58341 4.08329C4.7973 3.8694 5.06466 3.7576 5.3855 3.74788C5.70633 3.73815 5.98341 3.84024 6.21675 4.05413L7.09175 4.89996L8.72508 3.26663C8.95841 3.03329 9.23064 2.91663 9.54175 2.91663C9.85286 2.91663 10.1251 3.03329 10.3584 3.26663L11.1751 4.08329L12.0501 3.23746C12.264 3.02357 12.5313 2.91663 12.8522 2.91663C13.173 2.91663 13.4501 3.03329 13.6834 3.26663C13.8973 3.48051 14.0042 3.75274 14.0042 4.08329C14.0042 4.41385 13.8973 4.68607 13.6834 4.89996L10.3584 8.22496L20.2751 18.1416L23.6001 14.8166C23.814 14.6027 24.0813 14.4909 24.4022 14.4812C24.723 14.4715 25.0001 14.5833 25.2334 14.8166C25.4473 15.0305 25.5591 15.2979 25.5688 15.6187C25.5786 15.9395 25.4765 16.2166 25.2626 16.45L24.4167 17.325L25.2334 18.1416C25.4667 18.375 25.5834 18.6472 25.5834 18.9583C25.5834 19.2694 25.4667 19.5416 25.2334 19.775L23.6001 21.4083L24.4459 22.2833C24.6598 22.4972 24.7667 22.7645 24.7667 23.0854C24.7667 23.4062 24.6501 23.6833 24.4167 23.9166C24.2029 24.1305 23.9355 24.2423 23.6147 24.252C23.2938 24.2618 23.0167 24.1597 22.7834 23.9458L21.9084 23.1L20.2751 24.7333C20.0417 24.9666 19.7695 25.0833 19.4584 25.0833C19.1473 25.0833 18.8751 24.9666 18.6417 24.7333L17.8251 23.9166L16.9501 24.7625C16.7362 24.9763 16.4688 25.0833 16.148 25.0833C15.8272 25.0833 15.5501 24.9666 15.3167 24.7333C15.1029 24.5194 14.9959 24.2472 14.9959 23.9166C14.9959 23.5861 15.1029 23.3138 15.3167 23.1L18.6417 19.775L8.72508 9.85829Z" fill="black"/>
</g>
</svg>
