<svg width="382" height="62" viewBox="0 0 382 62" fill="none" xmlns="http://www.w3.org/2000/svg">
<path d="M22.0322 1.98994C42.0935 1.98994 53.6514 13.6054 53.6514 31.0361C53.6514 48.557 42.0935 60.1725 22.0322 60.1725H0.532715V1.98242H22.0322V1.98994ZM21.7654 47.2873C32.9599 47.2873 38.7871 40.6606 38.7871 31.0361C38.7871 21.4117 32.9673 14.8751 21.7654 14.8751H14.5964V47.2798H21.7654V47.2873Z" fill="#ED1C24"/>
<path d="M115.006 60.1803V1.99023H124.14L151.37 33.3054V1.99023H165.256V60.1803H156.122L128.892 29.2257V60.1803H115.006Z" fill="#ED1C24"/>
<path d="M213.43 60.1803L210.383 52.5543H187.541L184.494 60.1803H169.267L194.08 1.99023H203.755L228.657 60.1803H213.43ZM198.921 24.0491L191.937 41.7503H206.001L198.921 24.0491Z" fill="#ED1C24"/>
<path d="M284.118 1.99023H292.362V60.1803H278.477V26.3181L263.427 41.2995H261.907L246.769 26.3181V60.1803H232.883V1.99023H241.119L262.619 23.14L284.118 1.99023Z" fill="#ED1C24"/>
<path d="M316.932 60.1803H302.868V1.99023H316.932V60.1803Z" fill="#ED1C24"/>
<path d="M355.668 0.540039C366.951 0.540039 377.256 5.71666 381.467 13.4252L370.717 21.2315C367.937 16.6935 362.926 13.6957 356.387 13.6957C346.178 13.6957 339.187 20.8709 339.187 31.0363C339.187 41.2017 346.171 48.3768 356.387 48.3768C362.926 48.3768 367.945 45.379 370.717 40.841L381.467 48.6473C377.256 56.3634 366.959 61.54 355.668 61.54C338.92 61.54 324.404 50.0147 324.404 31.0363C324.404 12.0729 338.913 0.540039 355.668 0.540039Z" fill="#ED1C24"/>
<path d="M95.9239 1.99023L82.2976 31.089L68.6714 60.1803H83.0909L110.351 1.99023H95.9239Z" fill="#ED1C24"/>
<path d="M54.2446 1.99023L67.5818 30.4504L67.8783 31.089H82.2978L68.6716 1.99023H54.2446Z" fill="#ED1C24"/>
</svg>
